<svg width="520" height="725" xmlns="http://www.w3.org/2000/svg" viewBox="0 0 520 725"><path fill="#f6eae8" stroke="#f6eae8" d="M258 44.27c-3.009 4.421-13.496 19.266-18.422 26.075-1.726 2.387-24.786 35.245-36.251 51.655-4.035 5.775-7.334 10.839-7.332 11.254.003.414 29.705.864 66.005 1 37.553.14 66-.134 66-.635 0-.484-1.491-2.959-3.313-5.5-1.822-2.54-9.17-12.944-16.329-23.119l-16.536-23.5c-1.936-2.75-9.044-12.875-15.796-22.5C260.322 36.611 262.179 38.129 258 44.27m-79.936 109.998c-6.687 9.592-13.091 18.69-41.914 59.536-9.433 13.368-17.15 24.73-17.15 25.25 0 1.132 131.659 1.327 132.322.196.241-.412-7.194-11.55-16.524-24.75-9.33-13.2-19.6-27.825-22.824-32.5-13.492-19.568-25.675-36.399-26.544-36.672-.511-.161-3.826 3.862-7.366 8.94m149.724 2.775c-7.508 10.91-11.246 16.356-28.613 41.689l-16.25 23.701c-6.009 8.762-10.925 16.3-10.925 16.75 0 .449 29.925.817 66.5.817s66.5-.273 66.5-.606c0-.562-4.702-7.147-40.986-57.394-7.347-10.175-16.319-22.656-19.936-27.737-3.618-5.08-6.898-9.242-7.29-9.25-.392-.007-4.442 5.406-9 12.03M97.424 271.25c-29.647 42.314-48.703 69.282-50.05 70.829-.756.868-1.374 1.881-1.374 2.25s29.25.671 65 .671 65 .216 65 .481c0 .264-14.451 18.534-32.114 40.6-26.551 33.169-32.337 39.885-33.401 38.769-1.195-1.253-22.989-31.999-36.924-52.089l-6.061-8.738-17.083-.012c-9.396-.006-17.334.24-17.64.546-.461.461 17.873 27.133 41.204 59.943 2.738 3.85 9.497 13.413 15.021 21.25L99.045 460l11.727-.013 11.728-.014 35.953-45.033c19.775-24.768 36.452-45.446 37.062-45.952 1.03-.855 13.278 15.767 37.985 51.55 8.639 12.512 18.759 26.862 23.808 33.76l3.808 5.202-5.542.299-5.543.3-6.598 8.45-6.599 8.451h-64.417c-35.429 0-64.417.263-64.417.585 0 .322 11.587 17.042 25.75 37.156 14.162 20.114 28.942 41.113 32.843 46.665l7.094 10.094 12.406.226 12.407.226 31.487-39.476c17.318-21.712 31.718-39.452 32-39.423.282.03 14.648 17.805 31.924 39.5L325.322 572h24.295l24.441-34.689c13.443-19.078 26.653-37.866 29.355-41.75A2125.83 2125.83 0 0 1 412.226 483l3.899-5.5-64.526-.257-64.525-.258-5.528-6.928c-3.041-3.81-5.99-7.213-6.553-7.562-.564-.348-.767-1.052-.45-1.564.331-.536-1.999-.931-5.484-.931-3.332 0-6.059-.2-6.059-.445 0-.382 32.018-46.244 34.247-49.055.436-.55 6.896-9.775 14.356-20.5s14.11-20.068 14.778-20.762c.965-1.003 8.786 8.205 38.012 44.75L401.189 460H424.688l10.906-15.514c5.998-8.533 14.765-21.021 19.48-27.75 4.716-6.73 14.729-20.956 22.25-31.613 7.522-10.657 13.676-19.769 13.676-20.25 0-.48-7.858-.873-17.463-.873h-17.462l-3.914 5.75c-12.664 18.605-39.379 55.75-40.096 55.75-.466 0-15.238-18-32.828-40l-31.98-40 64.871-.257c37.703-.15 64.872-.635 64.872-1.16 0-.496-3.504-5.78-7.787-11.742-8.331-11.599-32.469-45.847-40.713-57.765-14.198-20.527-17.052-24.499-17.629-24.536-.346-.022-7.521 9.748-15.945 21.71a16561.975 16561.975 0 0 1-23.87 33.815A5134.115 5134.115 0 0 0 354 329.796c-4.675 6.691-8.739 12.174-9.031 12.184-.292.011-9.292-10.89-20-24.224-22.162-27.598-39.714-49.381-47.143-58.506l-5.088-6.25-9.119.014c-13.439.02-11.436-1.597-36.368 29.367-27.624 34.307-35.464 43.968-36.208 44.619-.314.275-3.205 3.974-6.423 8.221l-5.852 7.721-5.44-7.721a19414.475 19414.475 0 0 1-18.055-25.721c-20.111-28.693-38.453-54.813-40.18-57.219-.876-1.22-1.86-2.232-2.187-2.25-.326-.017-7.293 9.532-15.482 21.219m132.618 54.469L198.77 364.5l31.615.264c17.388.145 45.752.145 63.03 0l31.414-.264-9.669-12-31.025-38.5c-11.746-14.575-21.686-26.626-22.088-26.781-.403-.154-14.805 17.171-32.005 38.5M184 587.927c0 .762 32.331 47.503 38.786 56.073 1.036 1.375 9.448 13.3 18.694 26.5 9.246 13.2 17.621 25.042 18.611 26.316l1.801 2.316 2.804-3.884c3.114-4.314 24.883-35.227 38.804-55.104 4.95-7.068 15.188-21.639 22.75-32.381 7.563-10.742 13.75-19.809 13.75-20.147 0-.339-7.852-.616-17.449-.616h-17.449l-2.4 3.25c-1.319 1.788-10.384 14.614-20.143 28.503s-18.54 26.237-19.514 27.44l-1.771 2.187-1.158-2.162c-.636-1.19-7.308-10.838-14.826-21.44-7.518-10.603-16.57-23.441-20.117-28.528l-6.448-9.25h-17.363c-10 0-17.362.393-17.362.927" fill-rule="evenodd"/><path fill="#fbfbfb" stroke="#fbfbfb" d="M244.368 64.32c-9.378 13.299-24.134 34.231-32.79 46.516-8.656 12.285-15.549 22.526-15.318 22.758.232.231 30 .305 66.153.163l65.732-.257-5.378-7.5c-5.197-7.248-35.863-50.752-51.953-73.703-4.319-6.162-8.2-11.418-8.624-11.68-.424-.262-8.444 10.405-17.822 23.703m-64.683 88.371c-3.079 4.295-17.939 25.359-33.023 46.809l-27.426 39 65.541.257c36.048.142 65.713.087 65.922-.122.208-.209-3.38-5.725-7.975-12.258a114244.43 114244.43 0 0 0-27.366-38.877c-10.457-14.85-21.18-30.15-23.83-34-2.649-3.85-5.138-7.364-5.531-7.809-.393-.444-3.233 2.706-6.312 7m132.789 27.317a61534.314 61534.314 0 0 1-32.052 46.74l-8.077 11.752 65.487.257c36.018.142 65.682.063 65.919-.175.406-.406-3.885-6.468-34.743-49.082A9074.23 9074.23 0 0 1 347.74 160c-4.926-6.875-9.483-13.058-10.125-13.74-.907-.964-6.51 6.557-25.141 33.748M80.046 296.474c-17.85 25.438-32.624 46.76-32.831 47.382-.277.83 16.841 1.198 64.574 1.387l64.951.257-32.188 40.235c-17.703 22.128-32.405 40.452-32.672 40.718-.266.266-10.311-13.452-22.322-30.485L67.72 365H50.301c-13.651 0-17.264.27-16.702 1.25 2.538 4.423 64.679 92.255 65.786 92.985.613.404 5.947.741 11.853.75l10.739.015 36.144-45.25c19.879-24.887 36.647-45.796 37.261-46.463.851-.923 2.433.697 6.618 6.777 3.025 4.394 10.028 14.39 15.562 22.213C240.937 430.318 261 459.064 261 459.516c0 .266-2.363.489-5.25.495l-5.25.011-6.765 8.482-6.764 8.481-64.51.258-64.51.257 7.328 10.5c4.03 5.775 16.055 22.875 26.722 38a38486.658 38486.658 0 0 1 25.893 36.75l6.498 9.25h23.523l31.591-39.5c17.375-21.725 31.907-39.499 32.293-39.499.385.001 14.876 17.755 32.201 39.455l31.5 39.452 12 .009 12 .008 19-27.145c10.45-14.93 25.188-35.948 32.75-46.708 7.563-10.759 13.75-19.902 13.75-20.317 0-.415-28.913-.76-64.25-.766l-64.25-.011-6.73-8.439-6.73-8.438-5.429-.301-5.428-.3 14.468-20.5a35902.595 35902.595 0 0 0 32.533-46.204l18.067-25.704 37.124 46.441 37.125 46.441 9.685.013c5.327.007 10.738-.387 12.025-.877 1.491-.567 11.733-14.258 28.24-37.75 14.245-20.273 28.939-41.135 32.653-46.36l6.754-9.5-16.642-.275c-9.153-.151-17.139-.084-17.747.149-.608.233-9.14 11.832-18.96 25.775-24.646 34.993-24.634 34.976-25.637 34.641-1.144-.381-64.96-80.034-64.495-80.499.191-.192 29.435-.329 64.986-.306 35.551.024 64.638-.165 64.638-.418 0-.254-5.484-8.248-12.188-17.764a80673.377 80673.377 0 0 1-33.137-47.106l-20.95-29.804-3.113 4.397c-1.711 2.418-16.387 23.34-32.612 46.495-16.225 23.154-29.725 42.097-30 42.096-.275-.002-6.35-7.353-13.5-16.336a19704.15 19704.15 0 0 0-35.5-44.39l-22.5-28.056-11.537-.049-11.537-.05-7.486 9.25c-4.116 5.087-20.253 25.137-35.859 44.554-15.605 19.417-28.693 34.942-29.083 34.5-.391-.442-8.29-11.604-17.554-24.804-38.452-54.789-45.717-65.055-46.803-66.139-.854-.852-9.301 10.491-33.595 45.113m149.891 28.802L198.374 364.5l31.885.264c17.537.145 46.077.145 63.422 0l31.537-.264-11.281-14c-35.723-44.336-52.058-64.497-52.236-64.474-.11.014-14.404 17.676-31.764 39.25M184 587.596c0 .731-3.496-4.296 40.44 58.154 20.218 28.737 37.053 52.243 37.41 52.234.358-.009 4.572-5.588 9.365-12.397 4.793-6.81 14.202-20.19 20.91-29.734l28.36-40.353c8.89-12.65 16.97-24.237 17.955-25.75l1.79-2.75H305.249l-21.375 30.475c-11.755 16.761-21.645 30.486-21.977 30.5-.592.025-7.527-9.638-31.397-43.752l-12-17.15-17.25-.036c-9.488-.021-17.25.231-17.25.559" fill-rule="evenodd"/><path fill="#d31d25" stroke="#d31d25" d="M253.616 51.75c-13.305 19.054-45.319 64.527-50.798 72.154-2.925 4.072-5.678 8.009-6.118 8.75-.667 1.123 10.152 1.346 65.191 1.346h65.991l-14.597-20.75c-19.409-27.591-26.287-37.337-36.893-52.276-4.89-6.89-10.017-14.199-11.392-16.243-1.375-2.045-2.81-3.72-3.188-3.724-.379-.004-4.067 4.83-8.196 10.743m-82.839 114.042a14113.995 14113.995 0 0 1-32.287 46.088c-10.21 14.509-18.394 26.549-18.186 26.757.207.208 29.652.262 65.432.12l65.055-.257-10.203-14.5a56054.688 56054.688 0 0 0-26.07-37c-8.726-12.375-18.648-26.528-22.048-31.452-3.401-4.924-6.585-9.067-7.076-9.208-.492-.141-7.069 8.612-14.617 19.452m152.67-1.042A15243.812 15243.812 0 0 1 304.736 192c-24.973 36.208-31.774 46.295-31.439 46.63.211.212 29.688.269 65.503.127l65.119-.257-19.489-27c-24.115-33.41-22.416-31.062-35.111-48.5-5.806-7.975-10.776-15.062-11.045-15.75-.949-2.429-2.105-1.065-14.827 17.5M105 261.727A19487.08 19487.08 0 0 1 78.815 299C51.619 337.638 48 342.852 48 343.395c0 .325 29.21.706 64.91.848l64.911.257-31.974 40c-17.585 22-32.559 40.598-33.275 41.329-1.075 1.098-5.112-4.08-23.187-29.736L67.5 365.027l-17.372-.013c-17.058-.014-17.347.021-16 1.947.755 1.078 7.497 10.641 14.983 21.25C56.597 398.82 70.461 418.525 79.92 432c9.458 13.475 17.733 25.027 18.389 25.671.663.652 6.074 1.478 12.201 1.863l11.011.692 37.281-46.613C179.307 387.976 196.265 367 196.486 367c.351 0 8.409 11.364 34.514 48.675a5242.73 5242.73 0 0 0 9.5 13.539l11.836 16.768c4.86 6.885 9.135 12.61 9.5 12.722.365.112 1.595-1.238 2.733-3 1.138-1.762 9.874-14.229 19.413-27.704 19.558-27.628 25.495-36.105 35.518-50.711 3.85-5.611 7.255-10.221 7.566-10.245.312-.024 16.905 20.422 36.875 45.437 19.969 25.014 36.892 45.966 37.607 46.558.871.723 4.921.849 12.304.382l11.007-.697 25.758-36.612c14.167-20.137 28.817-40.887 32.554-46.112 3.738-5.225 6.804-9.837 6.813-10.25.009-.413-7.588-.75-16.882-.75h-16.897l-21.853 30.99c-12.018 17.044-22.077 30.971-22.352 30.948-.275-.023-15.282-18.581-33.349-41.24l-32.85-41.198 65.146-.5 65.146-.5-17.417-24.765c-9.58-13.62-18.142-25.77-19.027-27-.885-1.229-7.283-10.335-14.218-20.235-6.935-9.9-13.168-18.583-13.851-19.295-1.003-1.046-2.487.493-7.714 8-10.526 15.117-15.419 22.085-32.319 46.032-8.826 12.505-18.262 25.904-20.969 29.776-2.707 3.871-5.251 6.915-5.653 6.763-.678-.256-14.763-17.569-55.751-68.526L272.886 254l-11.193.041-11.193.041-26.5 33.063c-45.215 56.413-45.061 56.232-46.501 54.708-.703-.744-9.507-13.053-19.564-27.353a22121.427 22121.427 0 0 0-27.86-39.53c-5.266-7.441-11.15-15.867-13.075-18.724-1.925-2.857-3.725-5.199-4-5.205-.275-.006-3.875 4.803-8 10.686m141.233 42.991c-8.29 10.33-22.528 28.007-31.639 39.282-9.112 11.275-16.572 20.837-16.58 21.25-.008.413 28.813.75 64.045.75 50.972 0 63.909-.255 63.324-1.25-.404-.687-3.258-4.4-6.344-8.25a54161.12 54161.12 0 0 0-49.894-62c-3.549-4.4-6.764-8.127-7.145-8.282-.381-.155-7.476 8.17-15.767 18.5m2.639 158.032c-1.377 1.512-4.723 5.611-7.437 9.108l-4.935 6.357-63.828-.533c-56.161-.469-63.761-.355-63.26.95.314.816 2.535 4.27 4.938 7.676 29.455 41.754 46.552 66.061 52.703 74.927l7.447 10.735 11.562.015 11.562.015 31.938-39.987c17.566-21.992 32.163-39.955 32.438-39.916.275.039 14.788 18.033 32.251 39.987L326.002 572h22.85l33.074-46.955C400.117 499.22 415 477.879 415 477.62c0-.258-28.734-.208-63.854.112l-63.854.581-7.223-9.157-7.223-9.156H262.11c-10.438 0-10.805.076-13.238 2.75m-62.639 128.5c1.358 1.788 9.594 13.375 18.301 25.75 36.326 51.627 49.101 69.812 52.879 75.269 3.78 5.459 4.083 5.673 5.653 4C265.006 694.2 339 589.104 339 588.417c0-.255-7.743-.341-17.206-.191l-17.206.274-12.317 17.5a11930.338 11930.338 0 0 1-21.4 30.302l-9.084 12.803-2.695-3.803a12509.656 12509.656 0 0 1-27.559-39.052L218.695 588h-34.932l2.47 3.25" fill-rule="evenodd"/><path fill="#241d23" stroke="#241d23" d="M241.168 266.357c-5.417 6.679-17.564 21.818-26.992 33.643s-17.753 22.175-18.499 23c-1.711 1.891-21.581 26.602-24.216 30.115-1.078 1.439-11.152 14.039-22.386 28a21380.808 21380.808 0 0 0-28.419 35.385c-9.001 11.259-10.911 13.44-10.51 12 .405-1.452-1.291-4.224-10.898-17.821A12307.105 12307.105 0 0 1 79.772 383c-5.979-8.525-11.283-15.393-11.786-15.262-.503.131-.657-.432-.343-1.25.492-1.282-1.802-1.488-16.536-1.488-9.409 0-17.107.261-17.107.58 0 1.827 22.435 32.277 23.383 31.737.614-.351.795-.281.402.154-.964 1.068.37 3.381 8.071 13.997 3.603 4.968 8.372 11.733 10.598 15.034 2.225 3.302 8.291 11.964 13.479 19.25L99.366 459l9.317.179c5.124.098 10.156.21 11.182.25 1.285.049 9.463-9.435 26.29-30.488 13.434-16.807 26.064-32.557 28.066-35 2.003-2.442 7.348-9.166 11.878-14.941s8.949-11.236 9.819-12.136c.87-.899 5.182-6.236 9.582-11.86 8.192-10.47 36.948-46.32 42.916-53.504 1.828-2.2 5.519-6.799 8.204-10.219l4.88-6.219 2 2.335c4.54 5.302 40.3 49.474 53.837 66.502 3.761 4.731 7.249 8.489 7.75 8.351.502-.137.8.17.663.683-.431 1.606 61.332 78.135 62.484 77.422.623-.385.786-.196.387.449-1.251 2.024 13.386 19.43 15.795 18.783 1.146-.308 6.134-.582 11.084-.61l9-.05 12-17.151A17899.316 17899.316 0 0 1 475.661 386c7.167-10.175 13.352-19.062 13.744-19.75.558-.979-2.933-1.247-16.096-1.238l-16.809.012-4 5.697a27202.179 27202.179 0 0 1-25.441 36.226c-6.75 9.595-12.498 18.033-12.773 18.75-.954 2.485-2.987 1.274-7.471-4.447a856.894 856.894 0 0 0-9.001-11.25c-5.91-7.232-30.191-37.609-40.314-50.435-6.558-8.309-14.556-18.199-31.187-38.565a20806.33 20806.33 0 0 1-22.749-28.37c-20.124-25.122-27.127-33.695-30.415-37.235-1.033-1.112-3.8-1.423-11.741-1.318l-10.389.137-9.851 12.143m2.045 203.749a6411.113 6411.113 0 0 1-10.056 12.5c-1.289 1.592-4.211 5.369-6.494 8.394-2.284 3.025-4.422 5.725-4.754 6-.331.275-4.74 5.675-9.798 12a8711.324 8711.324 0 0 1-10.41 13c-.667.825-3.46 4.402-6.207 7.948-6.582 8.499-8.529 10.426-9.498 9.402-.443-.467-5.872-8.05-12.065-16.85-6.194-8.8-12.851-18.25-14.795-21a1269.71 1269.71 0 0 1-7.995-11.5c-2.453-3.575-5.373-7.738-6.489-9.25l-2.028-2.75-17.062.079c-9.384.043-16.499.306-15.812.583.688.278 1.25.896 1.25 1.373 0 .478 2.138 3.87 4.75 7.538s7.45 10.573 10.75 15.345c3.3 4.771 15.39 22.014 26.867 38.317l20.866 29.641 10.265.312c5.646.172 10.993.167 11.883-.011.89-.178 6.343-6.253 12.117-13.5 5.775-7.247 11.062-13.831 11.751-14.63 4.572-5.311 6.647-8.406 6.162-9.191-.308-.498-.124-.782.408-.631.533.151 6.207-6.25 12.609-14.225 14.161-17.638 17.406-21.613 20.353-24.932l2.28-2.568 2.72 3.356c1.495 1.846 7.37 9.161 13.054 16.256 5.88 7.339 10.797 12.616 11.405 12.24.645-.399.776-.187.329.536-.437.707.831 3.126 3.094 5.905 2.108 2.589 4.372 5.382 5.031 6.207l11.8 14.779c5.832 7.303 11.027 13.017 11.543 12.698.517-.32.716.005.441.721-.274.716.649 2.539 2.052 4.052 2.497 2.692 2.794 2.75 14.013 2.75h11.461l4.493-6.103c2.471-3.357 4.198-6.62 3.838-7.25-.361-.631-.294-.82.147-.421.975.881 7.635-8.227 6.894-9.427-.289-.467-.075-.725.474-.574.55.151 3.199-2.875 5.888-6.725 2.688-3.85 13.522-19.258 24.075-34.24C405.366 491.278 414 478.79 414 478.51c0-.281-7.382-.51-16.404-.51h-16.404l-5.638 7.75c-8.029 11.037-35.62 50.098-37.613 53.25-1.005 1.589-3.242-.662-12.441-12.519-13.003-16.761-33.739-41.952-34.396-41.787-.424.107-.771-.358-.771-1.034 0-1.221-15.764-21.503-17.78-22.878-.579-.394-5.682-.619-11.34-.5l-10.287.218-7.713 9.606M185.609 589.25c4.217 7.25 22.899 32.554 23.678 32.073.562-.348.729-.159.372.42-.539.872 6.708 11.837 23.964 36.257 1.36 1.925 7.283 10.323 13.161 18.663 5.879 8.34 11.101 14.908 11.607 14.596.505-.313.649-.133.32.399-.328.532.209 2.196 1.195 3.699l1.792 2.732 17.818-25.28c9.799-13.905 17.817-25.85 17.817-26.545 0-.695.211-1.053.468-.796.842.841 27.757-37.446 27.562-39.207-.075-.682.196-1.033.604-.782.407.252 3.506-3.539 6.886-8.424l6.145-8.883-16.839-.123-16.839-.123-7.827 11.147c-4.304 6.131-7.826 11.753-7.826 12.493 0 .74-.318 1.15-.706.91-.387-.24-6.5 7.874-13.583 18.03-7.083 10.156-13.144 18.472-13.47 18.48-.597.014-3.542-4.076-27.71-38.486-7.339-10.45-13.761-18.888-14.271-18.75-.51.138-.874-.087-.809-.5.491-3.107-.263-3.25-17.177-3.25-13.368 0-16.902.27-16.332 1.25" fill-rule="evenodd"/></svg>