<svg xmlns="http://www.w3.org/2000/svg" viewBox="0 0 1477 671"><path fill="#d31e26" stroke="#d31e26" d="M252.973 18.023c-5.76 8.254-20.482 29.287-32.715 46.742-12.234 17.454-22.246 32.073-22.25 32.485-.005.412 29.692.75 65.992.75 36.3 0 66-.192 66-.426 0-.597-63.861-91.793-65.345-93.316-.954-.979-3.42 1.926-11.682 13.765m-69.595 95.227c-50.015 70.698-61.769 87.528-62.151 88.992-.436 1.664 3.064 1.758 65.763 1.758 60.165 0 66.168-.146 65.613-1.593-1.004-2.615-65.107-93.407-65.95-93.407-.147 0-1.621 1.912-3.275 4.25m150.2 3.005c-6.221 9.156-38.153 55.628-50.196 73.053-5.015 7.255-8.926 13.53-8.691 13.942.64 1.124 132.309.937 132.309-.188 0-1.312-66.542-93.333-67.833-93.807-.367-.134-2.882 3.016-5.589 7M736.75 191.81c-2.062.171-3.75.479-3.75.685 0 .206.439 1.529.975 2.94l.975 2.565H722v3.5c0 3.269.211 3.5 3.191 3.5 2.935 0 3.042.109 1.332 1.36-1.8 1.316-1.791 1.455.309 4.404 2.917 4.096 2.84 4.236-2.332 4.236-4.333 0-4.5.111-4.5 3v3h15v6h-13v7h13.081l-.291 8.25-.29 8.25-3.75.31c-4.452.369-4.39.693-1.237-6.435 1.382-3.125 2.395-5.777 2.25-5.893-1.037-.832-4.991-2.58-5.23-2.313-1.422 1.591-6.479 13.109-6.056 13.794.3.486 1.861 1.172 3.469 1.525 2.193.482 3.085 1.376 3.568 3.577.719 3.273 4.589 3.987 10.151 1.872 4.023-1.529 4.303-2.384 4.32-13.187L742 234H755.127l-.314-3.25-.313-3.25-6.312-.299c-6.206-.295-6.306-.345-6-3 .301-2.603.557-2.712 7.062-2.997 6.743-.295 6.75-.298 6.75-3.25 0-2.79-.227-2.954-4.082-2.954h-4.081l2.152-3.482c2.264-3.664 2.015-5.431-.798-5.65-.93-.072-.116-.41 1.809-.75 3.085-.545 3.5-.974 3.5-3.618 0-2.943-.107-3.006-5.632-3.296-5.274-.278-5.719-.5-7-3.5-1.237-2.896-1.728-3.174-5.118-2.894M1181 198v7h-26v35h4c3.333 0 4-.333 4-2 0-1.852.667-2 9-2h9v23h8v-23h9c7.333 0 9 .278 9 1.5 0 1.083 1.111 1.5 4 1.5h4v-34h-26v-14h-8v7m-301.75-4.792c-2.924 1.427-2.88 1.68 1.25 7.088 4.562 5.975 4.799 5.704-5 5.704H867v7h62v-7h-8.5c-9.756 0-9.628.135-5-5.271 1.925-2.249 3.5-4.648 3.5-5.331 0-1.115-6.782-4.099-7.379-3.248l-4.984 7.1-4.738 6.75H887.778l2.354-1.906 2.354-1.906-4.103-4.844c-4.443-5.246-5.695-5.813-9.133-4.136m69.75 2.737v3.945l-4.75.305c-4.323.278-4.778.547-5.061 2.998-.295 2.558-.071 2.708 4.5 3 4.611.294 4.811.432 4.811 3.307 0 2.951-.094 3.005-5.75 3.3-5.633.294-5.75.36-5.75 3.25V219l7.75.036 7.75.036-3 2.459c-1.65 1.352-4.013 2.461-5.25 2.464-1.555.003-2.25.602-2.25 1.938 0 1.063-.859 2.205-1.91 2.538-3.188 1.012-4.386 3.108-3.124 5.465 1.489 2.783 2.987 2.605 7.875-.936 3.23-2.34 5.189-2.998 8.9-2.989l4.759.011-3.25 2.562c-1.788 1.408-3.25 3.173-3.25 3.921 0 1.624-1.616 2.155-9.304 3.058-5.778.678-5.803.696-5.5 3.809.167 1.72.754 3.07 1.304 3 .55-.07 3.813-.43 7.25-.8l6.25-.671v3.03c0 3.407-2.913 4.81-7.566 3.642-2.404-.604-2.546-.437-2.25 2.641l.316 3.286 6.35-.014c7.761-.017 10.15-2.143 10.15-9.036v-4.327l4.75-.636c6.934-.929 7.25-1.126 7.25-4.528v-3.103l-5.75.686-5.75.686 3.75-3.906c5.83-6.073 5.334-9.322-1.424-9.322h-5.175l2.349-2.5c2.935-3.124 11.848-3.837 10.155-.813-.646 1.156-.446 2.732.636 5 1.92 4.027 2.523 4.109 4.151.563l1.262-2.75 2.463 6.5c1.354 3.575 2.716 7.309 3.027 8.298.697 2.22-2.207 5.434-9.364 10.363-6.066 4.178-6.054 4.149-3.258 7.703l2.071 2.634 4.179-2.936c2.298-1.615 5.832-4.486 7.854-6.381l3.677-3.444 2.652 2.769c1.459 1.523 4.635 4.192 7.058 5.932l4.405 3.163 2.012-3.3c2.573-4.22 2.617-4.025-1.389-6.182-1.875-1.01-4.838-3.31-6.585-5.112l-3.175-3.277 3.011-8.865c1.656-4.876 3.321-11.453 3.7-14.615.623-5.2.917-5.75 3.073-5.75 2.116 0 2.385-.452 2.385-4v-4h-9.607c-8.752 0-9.544-.156-8.901-1.75.388-.963.945-3.437 1.238-5.5.529-3.717.503-3.75-2.947-3.75h-3.48l-2.23 8.25c-2.891 10.697-6.868 19.516-6.99 15.5-.052-1.741-.633-2.75-1.583-2.75-2.023 0-1.903-.593.875-4.317 4.766-6.39 4.98-7.448 1.83-9.077-2.768-1.432-2.868-1.387-4.748 2.103-1.848 3.432-1.941 3.476-2.478 1.178-.446-1.906-1.305-2.45-4.268-2.697-3.601-.302-3.711-.428-3.711-4.25 0-3.836-.092-3.94-3.5-3.94-3.409 0-3.5.103-3.5 3.945m109 16.926v20.871l-7.25.651c-17.384 1.563-17.738 1.644-17.301 3.969.221 1.176.436 2.825.477 3.664.065 1.341 1.531 1.399 12.074.474l12-1.053V258h7.922l.289-8.75.289-8.75 4.5-.5c2.749-.305 4.461-.986 4.4-1.75-.055-.687-.167-2.32-.25-3.627-.139-2.211-.466-2.342-4.65-1.87l-4.5.507V192h-8v20.871m50.527-19.915c-.325.526.105 2.62.954 4.654.85 2.033 1.359 3.884 1.131 4.112-.228.228-7.097.496-15.263.596l-14.849.182-.307 3.698-.308 3.699 5.717.301 5.716.302 1.696 5c2.518 7.421 6.365 14.568 10.519 19.54l3.692 4.419-7.862 3.795c-4.325 2.088-10.338 4.549-13.363 5.469-3.025.921-5.664 1.786-5.864 1.923-.703.481 4.039 7.354 5.074 7.354 1.763 0 19.711-7.925 23.815-10.516l3.864-2.439 7.806 3.996c4.293 2.198 10.892 4.993 14.664 6.21l6.859 2.213 2.386-2.982c3.204-4.004 3.212-3.989-3.354-5.834-6.844-1.923-20.25-8.193-20.25-9.471 0-.496 1.396-2.651 3.102-4.789 4.012-5.029 8.502-13.93 9.974-19.774l1.161-4.614h11.884l-.311-3.75-.31-3.75-13.219-.279-13.219-.279-1.766-4.971c-1.687-4.75-1.93-4.971-5.472-4.971-2.038 0-3.972.43-4.297.956m141.448 1.571-2.374 2.527 7.928 7.975 7.928 7.975 3.022-3.057 3.021-3.056-7.73-7.446c-8.741-8.419-8.573-8.349-11.795-4.918M774 195.21c-5.225.489-10.932 1.106-12.682 1.371l-3.181.484-.319 22.217c-.371 25.905-1.04 28.609-5.285 21.365-1.498-2.556-2.935-4.647-3.194-4.647-.488 0-4.551 2.023-5.218 2.597-.208.18 1.072 2.587 2.845 5.35 2.83 4.411 3.465 4.893 5.214 3.957 2.837-1.518 3.219-.576 1.284 3.166-1.644 3.179-1.628 3.298.676 5.071 1.298.998 2.846 1.825 3.439 1.837 3.048.063 8.371-18.45 8.404-29.228L766 223h8v35h7v-35h4.063c3.982 0 4.057-.065 3.75-3.25l-.313-3.25-11.25-.283-11.25-.283v-12.652l10.183-1.158c11.713-1.331 11.311-1.142 10.109-4.749-1.114-3.341-.626-3.255-12.292-2.165m245.5.063c-11.667 1.135-10.87.765-10.016 4.655.613 2.792 1.032 3.072 4.595 3.072 3.899 0 3.921.022 3.921 3.945v3.945l-4.75.305c-4.704.302-4.753.341-5.06 4.055l-.311 3.75h4.561c5.66 0 5.659.174-.069 11.037-3.969 7.528-4.53 9.3-3.942 12.435.926 4.935 2.413 4.138 6.321-3.388l3.25-6.259V258h8v-27.374l3.021 2.894 3.02 2.894 2.568-2.568 2.567-2.568-4.545-3.724c-2.5-2.049-5.015-3.435-5.588-3.08-.637.393-1.043-.547-1.043-2.415 0-2.965.14-3.059 4.56-3.059h4.561l-.311-3.75c-.301-3.64-.435-3.759-4.56-4.057l-4.25-.308v-8.658l4.5-.675c4.604-.69 5.432-1.96 3.893-5.97-.662-1.724-.41-1.719-14.893-.309M793 198.5v3.5h10.5c7.692 0 10.521.334 10.577 1.25.042.688.155 2.713.25 4.5l.173 3.25H796v47h4c3.333 0 4-.333 4-2 0-1.941.667-2 22.5-2s22.5.059 22.5 2c0 1.667.667 2 4 2h4v-47h-19v-9h22v-7h-67v3.5m248.552 1.442c-2.283 2.523-2.056 2.96 4.386 8.433l5.438 4.621 2.312-2.172c3.114-2.927 3.133-2.884-3.604-8.176-6.852-5.384-6.274-5.201-8.532-2.706M822 206.5v4.5h9v-9h-9v4.5m-88.43 2.002c2.191 2.873 2.448 3.772 1.428 5-1.059 1.276-.782 1.498 1.863 1.498 2.722 0 3.418-.617 5.639-5l2.534-5h-14.136l2.672 3.502M956 209.5c0 4.215 1.085 4.399 4.46.76 3.356-3.619 3.211-4.26-.96-4.26-3.333 0-3.5.167-3.5 3.5m284.441-1.12c-1.11 4.422-.028 40.932 1.281 43.233 2.094 3.682 6.188 4.584 19.167 4.223 14.446-.402 15.557-1.091 17.674-10.962.752-3.506 1.383-6.677 1.402-7.046.054-1.036-6.793-3.052-7.945-2.34-.561.346-1.02 2.208-1.02 4.137 0 3.61-1.464 7.317-3.4 8.61-1.935 1.292-16.404.886-17.291-.485-.445-.687-1.034-10.25-1.309-21.25l-.5-20-3.716-.308c-3.247-.27-3.796.007-4.343 2.188m-139.899 3.87c1.551 5.153 6.557 14.532 9.696 18.163l3.365 3.892 3.233-3.902c4.052-4.892 9.164-14.967 9.164-18.063 0-2.334-.033-2.34-13.067-2.34h-13.068l.677 2.25m-119.254 4c.624 5.768 3.61 15.75 4.712 15.75 1.074 0 3.942-9.655 4.645-15.638l.63-5.362H980.72l.568 5.25m294.458-3.625c-3.586 1.879-3.63 1.645 2.747 14.362l5.494 10.953 3.506-2.069c4.332-2.555 4.527-1.259-2.027-13.478-6.395-11.922-6.126-11.651-9.72-9.768M1163 220v8h18v-16h-18v8m26.667-7.333c-.367.366-.667 3.966-.667 8V228h18v-16h-8.333c-4.584 0-8.634.3-9 .667m39.981 1.47c-.206.749-1.787 6.18-3.512 12.069-3.863 13.187-3.863 13.345.026 14.701 4 1.394 3.505 2.131 7.453-11.115 3.615-12.128 4.109-15.784 2.135-15.806-.687-.007-2.257-.283-3.488-.613-1.446-.388-2.371-.117-2.614.764M402 230.794c-10.347 14.917-19.159 27.447-36.362 51.706-3.12 4.4-8.253 11.701-11.406 16.225-3.152 4.523-6.182 8.219-6.732 8.213-1.121-.013-10.19-11.08-46.805-57.113L275.5 218.151l-11.537-.076-11.537-.075-15.678 19.75c-21.61 27.223-38.468 48.175-41.638 51.75-1.463 1.65-5.287 6.262-8.497 10.25-3.211 3.988-6.136 7.25-6.5 7.25-1.029 0-7.022-8.35-48.093-67a2445.198 2445.198 0 0 1-11.961-17.25c-2.92-4.262-5.65-7.75-6.067-7.75-.659 0-8.134 10.427-25.033 34.918-2.498 3.62-12.532 17.962-22.297 31.872-9.765 13.909-18.007 25.946-18.316 26.75-.487 1.271 7.878 1.46 64.63 1.46h65.191l-1.834 2.408c-3.064 4.026-61.522 77.001-62.763 78.35-.901.979-5.999-5.614-23-29.75L68.728 330H51.364c-9.55 0-17.364.227-17.364.505 0 .653 61.336 88.134 64.275 91.674 2.093 2.52 2.88 2.717 13.29 3.322l11.066.644 12.934-16.321c7.114-8.977 18.045-22.622 24.292-30.322a8077.958 8077.958 0 0 0 24.381-30.252c7.164-8.937 13.332-16.25 13.706-16.25.819 0 1.192.506 18.068 24.5 28.798 40.946 38.833 55.236 42.834 61l4.165 6-5.236.5c-5.204.497-5.277.552-12.255 9.236l-7.02 8.736-64.37-.033c-35.403-.018-64.52.118-64.704.302-.294.293 26.143 38.278 56.074 80.568l10 14.129 12.154.031 12.154.031 32-39.993 32.001-39.993 31.845 39.944 31.846 39.945 12.18.048 12.179.049 11.924-16.75c13.51-18.98 46.124-65.287 51.11-72.57 1.815-2.651 3.077-5.044 2.804-5.316-.272-.273-29.29-.452-64.483-.399l-63.988.096-7.202-9.03-7.201-9.031h-4.912c-2.701 0-4.911-.224-4.911-.497 0-.75 26.485-38.765 53.298-76.503 4.885-6.875 9.287-13.175 9.783-14 1.356-2.257.603-3.126 42.343 48.929 16.57 20.664 31.096 38.829 32.28 40.366l2.155 2.795 11.62-.695 11.619-.694 4.781-7.101c4.529-6.726 51.963-74.261 58.296-82.998l2.973-4.102-16.787-.275c-9.233-.151-17.285-.085-17.892.149-.608.233-7.565 9.582-15.46 20.775-7.895 11.193-17.447 24.738-21.227 30.101-3.78 5.363-7.261 9.75-7.737 9.75-.475 0-5.067-5.281-10.205-11.737-5.137-6.455-19.578-24.452-32.09-39.994-12.512-15.542-22.75-28.485-22.75-28.763 0-.278 29.25-.506 65-.506s65-.249 65-.554c0-.304-4.341-6.717-9.647-14.25-10.02-14.226-37.951-54.16-49.488-70.756-3.649-5.249-6.799-9.696-7-9.884-.201-.187-5.54 7.12-11.865 16.238m636.602-13.31c-2.095 3.198-2.392 2.598 3.988 8.048l5.589 4.776 2.277-2.855 2.276-2.855-4.616-3.861c-7.004-5.86-7.659-6.084-9.514-3.253M804 233v15h45v-8.731l-7.194-.515c-9.628-.689-10.806-2.092-10.806-12.865V218h-4.5c-4.039 0-4.5.237-4.5 2.318 0 5.06-3.118 12.535-7.131 17.093l-4.14 4.704-2.875-2.755-2.875-2.754 3.451-3.553c3.84-3.954 5.57-7.717 5.57-12.118 0-2.855-.136-2.935-5-2.935h-5v15m34.202-8.75.298 6.25 5.25.302 5.25.303V218H837.905l.297 6.25M872 230v4h52v-8h-52v4m-7.605 18.414c-.304.792-.405 2.486-.224 3.763l.329 2.323h67v-7l-33.276-.264c-28.22-.223-33.36-.044-33.829 1.178m-603.973 6.42c-2.324 2.803-37.51 46.464-58.244 72.275L199.855 330h63.656c35.011 0 63.506-.357 63.322-.793-.477-1.136-61.764-77.046-62.641-77.588-.401-.248-2.098 1.199-3.77 3.215m605.054 23.368c-.279.728-.388 14.143-.242 29.811l.266 28.487 4.265.308 4.265.308-.265-29.808-.265-29.808-3.758-.311c-2.434-.201-3.937.156-4.266 1.013m126.191-.535c-.367.366-.667 6.885-.667 14.485v13.819l-3.25-1.982c-11.123-6.782-23.14 2.134-22.522 16.71.581 13.694 11.063 21.016 22.061 15.409 2.931-1.495 3.711-1.6 3.711-.5 0 .957 1.249 1.392 4 1.392h4v-60h-3.333c-1.834 0-3.634.3-4 .667M561 308.5V337h9v-37.447l19.961 20.474 19.962 20.473-.212-29-.211-29h-8l-.5 18.399-.5 18.4-18.948-19.65C571.131 288.842 562.243 280 561.802 280c-.441 0-.802 12.825-.802 28.5m481.5-26.004c-4.826 1.7-9.082 6.464-9.961 11.15-1.395 7.434 2.052 12.032 12.904 17.213 11.049 5.275 13.816 10.973 8.102 16.686-4.689 4.69-14.545 1.681-14.545-4.441 0-2.776-1.118-3.186-5.434-1.995-3.411.942-3.688 1.275-3.087 3.713 4.167 16.911 28.163 17.561 33.485.907 2.969-9.291-1.279-16.126-13.521-21.755-9.771-4.493-11.746-7.671-7.443-11.974 2.869-2.869 8.551-2.674 11.278.387 2.047 2.298 2.25 2.329 5.424.815 4.13-1.969 4.127-3.006-.017-7.023-5.14-4.982-10.334-6.095-17.185-3.683m128.508.063c-31.259 8.674-24.952 54.896 7.492 54.91 11.544.005 14.5-1.758 14.5-8.65 0-4.861-.093-5.045-1.787-3.512-12.127 10.975-32.213 1.503-32.213-15.192 0-15.759 14.873-24.774 29.033-17.598l4.967 2.517v-5.004c0-4.788-.153-5.067-3.558-6.49-5.532-2.311-12.335-2.673-18.434-.981m95.71-.522c-12.42 3.103-21.662 15.02-21.686 27.963-.038 19.97 20.573 33.459 39.219 25.668 3.553-1.484 3.749-1.803 3.749-6.117 0-5.353.364-5.227-5.697-1.97-13.524 7.267-28.303-2.163-28.303-18.059 0-15.341 14.672-24.082 28.581-17.026 2.705 1.373 5.031 2.498 5.169 2.5.138.002.25-2.163.25-4.811 0-4.523-.213-4.916-3.521-6.493-4.422-2.109-12.813-2.891-17.761-1.655m-527.324 1.379c-.299.778-.397 2.691-.219 4.25l.325 2.834 10.75.284c5.913.156 10.75.478 10.75.716 0 .44-11.295 20.231-20.136 35.281-2.675 4.554-4.864 8.717-4.864 9.25 0 .592 7.578.969 19.5.969H775v-8h-12.5c-6.875 0-12.5-.246-12.5-.548 0-.612 15.858-28.667 21.419-37.893 1.97-3.268 3.581-6.53 3.581-7.25 0-2.003-34.837-1.898-35.606.107m351.298-.775c-.38.381-.692 12.767-.692 27.526V337h15c8.25 0 15.045-.337 15.101-.75.055-.413.168-2.1.25-3.75l.149-3-10.75-.284-10.75-.284V311H1120.121l-.311-3.75-.31-3.75-10.25-.285-10.25-.285V291h10.5c11.502 0 10.494.582 10.834-6.25.111-2.223-.06-2.253-14.418-2.526-7.992-.151-14.843.036-15.224.417m285.022 7.978c-.393.393-.714 3.339-.714 6.548 0 4.518-.338 5.833-1.5 5.833-1.048 0-1.5 1.056-1.5 3.5s.452 3.5 1.5 3.5c1.26 0 1.5 2.173 1.5 13.557v13.558l4.25-.308 4.25-.307.279-13.25.279-13.25h2.971c2.729 0 2.971-.285 2.971-3.5 0-3.222-.238-3.5-3-3.5-2.42 0-3.016-.435-3.081-2.25-.395-10.943-.126-10.225-3.955-10.548-1.944-.163-3.857.024-4.25.417M680.67 305.25a625.217 625.217 0 0 0-4.697 11.062l-2.392 5.811-2.389-5.311a1440.622 1440.622 0 0 1-4.255-9.562c-1.801-4.101-2.025-4.25-6.401-4.25-2.495 0-4.512.337-4.483.75.029.413 4.009 8.593 8.845 18.179l8.792 17.428 2.469-5.428c1.357-2.986 3.34-7.565 4.405-10.175 1.065-2.611 2.224-4.748 2.576-4.75.352-.002 2.539 4.496 4.86 9.996s4.408 10 4.637 10c.387 0 17.363-34.851 17.363-35.644 0-.196-1.965-.356-4.368-.356h-4.367l-3.883 8.985c-2.135 4.941-4.163 8.991-4.506 9-.344.008-2.559-4.71-4.923-10.485-2.364-5.775-4.451-10.5-4.638-10.5-.187 0-1.377 2.363-2.645 5.25m-52.17-1.389c-11.66 7.202-11.111 26.778.905 32.235 7.717 3.505 15.872 1.929 20.892-4.037 3.41-4.053 3.386-4.373-.471-6.199-3.085-1.461-3.248-1.419-5.873 1.518-3.686 4.126-9.163 4.241-12.583.266-4.447-5.17-3.637-5.644 9.63-5.644h12v-3.843c0-12.225-14.322-20.583-24.5-14.296m161.52-.109c-12.339 6.199-11.308 27.469 1.591 32.859 6.743 2.817 13.656 1.42 19.139-3.869 4.036-3.893 4.074-5.158.202-6.762-2.82-1.168-3.269-1.05-6.013 1.579-4.06 3.889-9.266 3.925-12.569.085-4.447-5.17-3.637-5.644 9.63-5.644h12l-.048-4.25c-.141-12.429-12.577-19.704-23.932-13.998m38.878.506c-17.425 11.58-3.316 41.138 15.142 31.722 3.324-1.696 3.96-1.777 3.96-.5 0 1.107 1.087 1.52 4 1.52h4v-34h-4c-2.871 0-4 .419-4 1.485 0 1.212-.598 1.121-3.25-.496-4.514-2.752-11.484-2.634-15.852.269m61.092-.008c-10.417 7.09-10.871 23.59-.854 31.016 4.072 3.019 11.029 3.424 15.319.893 2.831-1.67 3.545-1.796 3.545-.625 0 1.071 1.213 1.466 4.5 1.466h4.5v-34h-4.417c-2.429 0-4.575.477-4.77 1.06-.228.684-1.41.509-3.333-.494-4.369-2.278-10.568-1.985-14.49.684m47.76-.678c-1.593.864-2.75 1.058-2.75.46 0-.568-2.025-1.032-4.5-1.032H926v34h8.833l.333-11.898c.36-12.837 1.631-16.102 6.266-16.102 5.691 0 6.568 2.086 6.568 15.614v12.501l4.25-.308 4.25-.307.332-8.5c.533-13.627-.459-18.827-4.329-22.697-3.758-3.758-9.726-4.458-14.753-1.731m365.259.283c-11.406 6.117-10.355 27.76 1.591 32.751 6.723 2.809 15.029 1.056 19.901-4.201 3.224-3.479 3.148-4.59-.458-6.72-2.912-1.721-2.981-1.71-4.582.734-3.853 5.881-13.051 5.064-15.29-1.358l-1.046-3 12.188-.281 12.187-.28-.294-4.484c-.796-12.113-13.383-18.96-24.197-13.161m43.741-.283c-1.593.864-2.75 1.058-2.75.46 0-.568-1.8-1.032-4-1.032h-4v34h7.789l.357-12.09c.387-13.112 1.673-15.91 7.31-15.91 4.621 0 5.544 2.644 5.544 15.886v12.229l4.25-.308 4.25-.307V324c0-14.063-1.138-18.244-5.591-20.547-3.584-1.853-9.624-1.799-13.159.119m58.473-.015c-1.246.872-2.223 1.092-2.223.5 0-.581-1.8-1.057-4-1.057h-4v34h8v-11.277c0-13.918 1.085-16.243 7.194-15.424 3.691.495 4.019.322 5.577-2.945 1.442-3.023 1.467-3.592.192-4.398-2.292-1.45-8.292-1.114-10.74.601m22.761.297c-10.483 5.578-10.94 23.863-.786 31.444 6.029 4.502 18.092 2.712 23.28-3.455 2.829-3.361 2.641-4.213-1.392-6.298-2.65-1.371-2.89-1.301-4.902 1.42-4.123 5.577-12.794 4.46-15.024-1.935l-1.056-3.03H1453v-2.851c0-13.143-13.523-21.411-25.016-15.295m-795.734 6.82c-4.3 3-2.844 4.326 4.75 4.326 6.848 0 7.726-.366 6.235-2.6-2.235-3.346-7.48-4.17-10.985-1.726m162.058-.48c-2.087 1.009-3.812 3.636-2.952 4.495.222.222 3.72.27 7.774.107l7.37-.296-2.705-2.75c-2.82-2.868-5.77-3.352-9.487-1.556m38.558 1.635c-8.077 7.216-1.185 21.412 8.795 18.118 7.754-2.559 8.718-15.631 1.432-19.399-4.296-2.222-6.635-1.929-10.227 1.281m62.244-1.433c-7.381 4.09-6.42 17.026 1.457 19.626 8.297 2.738 15.071-6.66 10.994-15.252-2.504-5.278-7.594-7.066-12.451-4.374m82.594.2c-6.847 3.713-6.065 16.355 1.198 19.363 9.804 4.061 17.392-10.84 9.232-18.13-3.531-3.156-6.284-3.481-10.43-1.233m328.931.477c-4.096 3.221-3.221 3.927 4.865 3.927 4.125 0 7.5-.417 7.5-.927 0-1.586-5.155-5.073-7.5-5.073-1.227 0-3.416.933-4.865 2.073m124.57.677-2.705 2.75 7.37.296c8.704.35 9.573-.155 5.824-3.381-3.686-3.173-7.148-3.062-10.489.335m-298.455 17.33c-2.01 1.171-2.349 5.921-.55 7.72 3.906 3.906 10.434-1.658 7.392-6.3-1.731-2.642-3.953-3.103-6.842-1.42m71.821.491c-3 3.001-.846 8.429 3.345 8.429.976 0 2.519-.823 3.429-1.829 4.232-4.676-2.316-11.057-6.774-6.6m-131.56.916c-2.794 3.367 1.194 8.523 5.357 6.925 4.16-1.596 2.646-8.412-1.868-8.412-1.24 0-2.81.669-3.489 1.487m-494.282 30.162c-4.811 7.97-7.098 32.489-4.312 46.237 2.626 12.961 4.274 16.406 7.471 15.617 4.167-1.028 4.271-1.706 1.463-9.559-4.086-11.431-4.058-32.053.06-43.221 1.577-4.278 2.66-7.986 2.405-8.24-.98-.98-6.599-1.641-7.087-.834M925 371.5c0 10.318-.706 13.402-2.43 10.613-2.305-3.729-12.408-1.472-16.806 3.756-9.814 11.662 3.304 31.052 16.302 24.096 1.355-.726 2.561-.7 4.027.085 1.151.616 3.176.848 4.5.516l2.407-.604V360h-8v11.5m378.233 13.75.267 25.25h6l.267-25.25.267-25.25h-7.068l.267 25.25m123.679-24.261c-1.422.832-1.332 1.686.865 8.22 4.437 13.194 4.128 32.575-.74 46.427l-1.83 5.207 2.952 1.223c3.651 1.512 4.155 1.014 6.711-6.634 4.281-12.806 4.84-28.459 1.544-43.222-2.433-10.899-4.956-13.879-9.502-11.221m-822.45 3.075c-4.158 1.209-8.425 5.922-9.081 10.03-.876 5.484 2.664 9.706 11.842 14.123 8.335 4.012 10.002 6.399 8.147 11.671-2.25 6.398-12.696 5.732-14.021-.894-.572-2.857-.857-3.044-3.734-2.438-4.497.945-4.725 1.482-2.624 6.174 6.445 14.396 28.065 9.521 28.417-6.406.13-5.88-2.639-9.171-11.27-13.391-9.543-4.667-11.068-7.003-7.138-10.933 2.552-2.552 6.034-2.547 9.289.013 2.427 1.909 7.711 1.257 7.711-.951 0-5.136-10.092-9.163-17.538-6.998m569.916.373c-6.308 2.745-8.247 9.803-4.402 16.024l1.976 3.198-3.036 2.245c-11.91 8.806-7.114 25.07 7.4 25.089 5.055.007 7.822-1.006 11.248-4.117 2.031-1.845 2.109-1.827 4.937 1.125 2 2.088 3.829 2.999 6.019 2.999 4.747 0 4.797-.844.364-6.139l-4.066-4.856 2.639-3.137 2.64-3.136-2.233-2.377-2.232-2.376-2.625 2.515-2.625 2.514-2.491-2.754c-5.494-6.074-5.465-5.876-1.511-10.253 8.437-9.339-.444-21.594-12.002-16.564m67.279.131c-3.184 1.017-6.347 3.094-9.234 6.064-15.053 15.489-4.701 40.264 16.859 40.346 9.161.035 12.718-1.926 12.718-7.009v-4.132l-3.715 2.296c-8.003 4.946-19.798 1.628-23.739-6.678-7.082-14.923 8.097-30.779 22.454-23.455 5.093 2.598 5 2.632 5-1.839 0-3.218-.446-4.043-2.75-5.096-4.333-1.979-12.251-2.202-17.593-.497M870.232 387.25l.268 23.25h25l.313-3.25.314-3.25H878v-14.922l8.75-.289 8.75-.289.313-3.25.314-3.25h-8.98c-9.865 0-9.823.029-9.302-6.517l.356-4.483H896v-7h-26.037l.269 23.25M660.2 366.2c-1.859 1.859-1.418 5.613.8 6.8 3.845 2.058 8.03-2.206 5.961-6.072-1.154-2.157-4.926-2.563-6.761-.728m396.835.734c-1.535 2.869-1.291 3.852 1.398 5.614 3.07 2.012 6.567.476 6.567-2.883 0-4.537-5.913-6.564-7.965-2.731m119.715 3.146c-2.876 1.675-1.552 8.92 1.63 8.92 3.948 0 6.088-7.144 2.686-8.965-2.302-1.232-2.12-1.234-4.316.045M1041 375.437c0 4.278-.346 5.563-1.5 5.563-1.048 0-1.5 1.056-1.5 3.5 0 2.41.457 3.5 1.467 3.5 1.186 0 1.522 2.157 1.75 11.25l.283 11.25h6l.283-11.25c.282-11.217.29-11.25 2.75-11.25 2.153 0 2.467-.446 2.467-3.5 0-3.047-.317-3.5-2.448-3.5-2.248 0-2.472-.429-2.75-5.25-.294-5.12-.383-5.258-3.552-5.563l-3.25-.314v5.564m278 0c0 4.278-.346 5.563-1.5 5.563-1.048 0-1.5 1.056-1.5 3.5s.452 3.5 1.5 3.5c1.247 0 1.5 1.951 1.5 11.563v11.564l3.25-.314 3.25-.313.283-11.25c.282-11.217.29-11.25 2.75-11.25 2.153 0 2.467-.446 2.467-3.5 0-3.047-.317-3.5-2.448-3.5-2.248 0-2.472-.429-2.75-5.25-.294-5.12-.383-5.258-3.552-5.563l-3.25-.314v5.564m-680.599 6.468c-14.851 6.745-10.62 29.129 5.497 29.081 8.149-.024 9.102-.618 9.102-5.675v-4.456l-2.635 2.072c-5.84 4.595-13.82.689-13.82-6.764 0-7.917 7.729-11.882 13.82-7.09l2.635 2.072v-4.475c0-6.562-6.191-8.583-14.599-4.765m45.061-.872c-11.095 3.34-13.191 21.893-3.163 28.007 5.573 3.399 12.858 2.717 17.698-1.656 4.774-4.313 4.858-4.787 1.121-6.335-2.598-1.076-3.142-.934-5.517 1.441-3.449 3.449-8.061 3.144-10.935-.724-2.792-3.755-2.058-4.094 9.087-4.186l9.747-.08-.096-3.542c-.257-9.544-8.78-15.683-17.942-12.925m35.788.458c-1.788.777-3.25.984-3.25.461 0-.524-1.587-.952-3.527-.952h-3.526l.276 14.75.277 14.75h6l.5-10.102c.55-11.104 1.577-13.398 6-13.398 4.205 0 4.902 1.746 5.213 13.058l.287 10.442 3.25.313 3.25.314v-11.499c0-13.612-.784-16.222-5.462-18.176-4.226-1.766-5.144-1.762-9.288.039m32.434-.042c-17.076 6.09-12.485 29.551 5.783 29.551 6.754 0 8.533-1.258 8.533-6.035 0-4.551-.263-4.69-3.727-1.965-5.839 4.593-13.273.672-13.273-7 0-7.621 8.806-12.187 13.5-7 2.719 3.004 3.5 2.457 3.5-2.453 0-4.294-.134-4.49-3.75-5.494-4.744-1.318-5.881-1.275-10.566.396m28.959-.421c-11.118 3.332-13.256 21.968-3.223 28.086 7.051 4.3 21.58.142 21.58-6.176 0-2.525-5.347-2.823-8.162-.455-3.392 2.854-6.432 3.19-9.491 1.048-2.39-1.675-3.763-5.502-2.003-5.586.636-.031 5.206-.143 10.156-.25l9-.195-.063-4.75c-.115-8.73-8.765-14.428-17.794-11.722m30.714-.036c-4.945 1.995-7.169 10.138-3.607 13.204.962.829 3.682 2.567 6.042 3.863 3.173 1.742 4.216 2.887 4 4.389-.381 2.648-3.437 3.183-5.826 1.021-2.23-2.017-6.966-1.273-6.966 1.096 0 6.329 11.827 8.761 17.077 3.512 5.577-5.577 3.687-11.606-5.036-16.056-2.222-1.134-4.041-2.728-4.041-3.541 0-1.734 2.124-1.956 3.693-.387.949.949 4.046.12 6.138-1.643 1.028-.866-2.251-4.401-4.959-5.345-3.638-1.268-3.653-1.268-6.515-.113m172.327.457c-16.498 5.884-12.633 29.589 4.816 29.536 7.501-.023 8.5-.689 8.5-5.674v-4.456l-2.635 2.072c-8.587 6.755-18.938-5.366-11.418-13.371 3.037-3.232 8.866-3.525 11.532-.58 2.43 2.686 3.159 1.921 2.706-2.838-.551-5.77-5.577-7.515-13.501-4.689m27.766-.042c-9.698 4.224-12.05 17.414-4.592 25.761 3.427 3.834 11.508 5.133 15.533 2.495 2.099-1.375 2.499-1.392 2.985-.125.322.838 1.855 1.462 3.593 1.462H1032v-30h-3.5c-2.324 0-3.5.468-3.5 1.392 0 1.1-.78.995-3.711-.5-4.339-2.212-5.719-2.28-9.839-.485m70.205.052C1064.937 387.419 1069.204 411 1087 411c17.052 0 22.124-22.047 6.684-29.057-4.94-2.242-6.879-2.321-12.029-.484m38.595.032c-1.787.777-3.25.984-3.25.461 0-.524-1.587-.952-3.527-.952h-3.526l.276 14.75.277 14.75h6l.5-10.102c.55-11.104 1.577-13.398 6-13.398 4.205 0 4.902 1.746 5.213 13.058l.287 10.442h6l.285-11.5c.323-13.008-.47-15.55-5.503-17.655-3.956-1.654-4.927-1.638-9.032.146m257.973.066c-1.246.872-2.223 1.092-2.223.5 0-.581-1.575-1.057-3.5-1.057h-3.5v14.441c0 15.215.297 16.203 4.557 15.134 2.383-.598 2.443-.853 2.443-10.439 0-11.099 1.459-13.991 6.428-12.743 4.009 1.006 6.84-4.96 3.039-6.406-3.521-1.338-4.647-1.25-7.244.57m21.42-.56c-11.567 3.593-13.426 22.927-2.737 28.454 8.477 4.384 26.303-2.805 19.572-7.892-2.771-2.095-4.022-1.924-6.887.941-3.172 3.172-6.993 3.189-10.136.045-3.834-3.833-3.116-4.533 4.795-4.68 14.346-.266 13.213.08 13.562-4.146.726-8.789-8.971-15.579-18.169-12.722m-739.42 14.753.277 14.75h6l.277-14.75.276-14.75h-7.106l.276 14.75M941 391.55c0 15.367 2.691 19.45 12.823 19.45 4.782 0 5.753-.376 8.777-3.4l3.4-3.4V381h-7v10.345c0 11.141-1.062 13.655-5.772 13.655-3.912 0-5.228-3.579-5.228-14.223V381h-7v10.55m116.223 4.2.277 14.75 3.25.313 3.25.314V381h-7.053l.276 14.75M1270 392.6v11.6l3.4 3.4c2.939 2.939 4.058 3.398 8.25 3.385 10.448-.031 13.346-4.316 13.348-19.735L1295 381h-7l-.015 9.25c-.017 10.565-1.264 14.102-5.132 14.554-4.808.563-5.853-1.826-5.853-13.375V381h-7v11.6m65-1.568c0 15.467 3.054 19.968 13.55 19.968 3.955 0 5.158-.508 8.05-3.4l3.4-3.4V380.873l-3.25.314-3.25.313-.5 10.79c-.537 11.592-1.197 12.969-5.977 12.469-3.731-.39-4.992-4.043-5.008-14.509L1342 381h-7v10.032m-651.25-2.952c-3.836 2.234-2.009 3.92 4.25 3.92 4.603 0 6-.341 6-1.465 0-3.013-6.584-4.59-10.25-2.455m96.949.7c-2.636 2.913-2.166 3.22 4.923 3.22h6.622l-1.486-2.25c-1.991-3.014-7.71-3.566-10.059-.97m131.475.534c-3.136 3.339-2.996 9.955.281 13.231 6.555 6.555 15.624-.714 12.542-10.053-1.929-5.846-8.732-7.532-12.823-3.178m100 0c-3.305 3.519-3.057 10.846.461 13.613 6.946 5.464 14.779-1.22 12.234-10.439-1.599-5.791-8.593-7.539-12.695-3.174m69.615-.951c-6.532 4.963-2.876 16.637 5.211 16.637 7.37 0 11.196-10.649 5.686-15.826-2.624-2.464-8.176-2.877-10.897-.811m317.866.466c-2.561 2.83-2.094 3.171 4.345 3.171 4.256 0 6-.378 6-1.3 0-3.791-7.397-5.129-10.345-1.871m-227.12 3.275c-8.451 7.42.395 16.574 9.961 10.307 3.247-2.128 3.224-2.245-1.581-8.28-4.829-6.065-4.008-5.867-8.38-2.027m-340.787 18.413c-3.348 8.028-3.446 8.574-1.716 9.5 2.751 1.473 2.645 1.581 7.062-7.204 3.875-7.707 4.011-8.263 2.32-9.5-3.161-2.311-4.044-1.482-7.666 7.204m-646.06 143.128c-.533.533 5.357 9.661 7.328 11.355.32.275 3.238 4.325 6.486 9 3.247 4.675 9.1 13 13.007 18.5 3.906 5.5 16.906 24.063 28.889 41.25 11.982 17.188 22.082 31.242 22.444 31.232.699-.019 1.048-.508 30.636-42.982 29.597-42.487 45.5-64.868 46.557-65.522.531-.328.965-1.244.965-2.037 0-1.199-2.906-1.441-17.32-1.441h-17.321l-21.78 30.979-21.78 30.979-7.174-10.229a46667.662 46667.662 0 0 1-19.073-27.229c-6.544-9.35-13.208-18.687-14.809-20.75l-2.911-3.75h-16.749c-9.212 0-17.04.29-17.395.645" fill-rule="evenodd"/><path fill="#fbfbfb" stroke="#fbfbfb" d="M734.731 192.603c-.332.331-.211 1.635.269 2.897 1.193 3.137.552 3.5-6.167 3.5-5.555 0-5.833.119-5.833 2.5v2.5h31v-2.45c0-2.28-.398-2.471-5.717-2.75-5.499-.289-5.752-.424-6.644-3.55-.889-3.112-4.905-4.651-6.908-2.647m145.32 1.324-2.449 1.882 3.699 4.514c4.799 5.857 5.059 5.554-5.051 5.888l-8.75.289-.313 3.25-.314 3.25H928v-7h-8.5c-8.939 0-9.821-.495-6.398-3.593 2.111-1.91 5.329-7.309 4.72-7.919-2.792-2.792-5.727-1.375-10.232 4.939L902.899 206l-8.2-.027c-8.041-.026-8.148-.058-5.532-1.681l2.667-1.655-4.154-5.318c-4.725-6.051-4.373-5.894-7.629-3.392m69.756 2.323-.307 4.25-4.75.305c-4.289.275-4.75.542-4.75 2.75 0 2.271.359 2.445 5.063 2.445h5.064l-.314 3.25c-.313 3.25-.313 3.25-6.563 3.548-5.887.28-6.25.44-6.25 2.75 0 2.398.175 2.452 8 2.452 4.4 0 8 .417 8 .927 0 1.629-5.184 5.073-7.635 5.073-1.382 0-2.365.593-2.365 1.428 0 .785-1.399 2.522-3.11 3.861-2.725 2.133-2.966 2.701-1.949 4.6 1.264 2.362 1.665 2.247 7.203-2.057 2.913-2.264 4.668-2.832 8.75-2.832 5.662 0 6.416 1.095 2.515 3.652-1.425.934-2.984 2.731-3.465 3.995-.899 2.365-2.061 2.805-10.194 3.86-4.171.54-4.75.907-4.75 3.007 0 2.299.203 2.367 5.25 1.756 8.907-1.079 9.221-1.019 9.554 1.854.463 3.989-2.341 6.201-7.057 5.569-3.177-.426-3.79-.246-3.321.974.316.823.574 1.91.574 2.415 0 .505 2.425.918 5.389.918 7.408 0 9.687-1.955 9.928-8.513l.183-4.987 5.75-.864c5.095-.765 5.75-1.127 5.75-3.177 0-2.208-.254-2.288-5.5-1.747-6.596.681-6.797-.04-1.462-5.249 2.561-2.501 3.933-4.679 3.75-5.953-.287-2.003-.393-2.031-9.225-2.424-4.485-.199 3.373-6.086 8.124-6.086 4.763 0 6.534-3.606 2.313-4.71-2.587-.677-2.6-.624 1.5-5.994 1.925-2.521 3.5-4.953 3.5-5.405 0-.828-4.013-3.336-4.357-2.722C961.477 211.967 955 216.871 955 209.5c0-3.417.095-3.5 4-3.5 3.574 0 4-.26 4-2.44 0-2.097-.526-2.483-3.75-2.75-3.64-.301-3.759-.435-4.057-4.56-.27-3.726-.602-4.25-2.693-4.25s-2.423.524-2.693 4.25m29.713-3.025c-.239.701-1.169 4.2-2.066 7.775-.898 3.575-3.182 9.858-5.076 13.963-3.079 6.67-3.316 7.773-2.231 10.392l1.214 2.93 2.211-2.772 2.211-2.773.717 2.38c.394 1.309 1.84 5.232 3.212 8.717l2.495 6.337-2.804 2.927c-1.542 1.61-4.952 4.383-7.578 6.163-5.275 3.576-5.711 4.624-2.958 7.115 1.772 1.604 2.133 1.473 7.143-2.595 11.013-8.943 9.001-8.674 16.608-2.221l6.692 5.677 1.823-2.37c2.44-3.173 2.428-3.209-1.964-6.253-2.107-1.46-5.099-3.978-6.648-5.595l-2.818-2.941 2.58-5.949c2.415-5.568 4.369-13.694 4.961-20.632.209-2.452.758-3.058 3.006-3.316 2.303-.265 2.75-.794 2.75-3.25V204h-9.5c-10.54 0-10.734-.16-8.384-6.902 1.276-3.66 1.311-3.594-2.388-4.482-1.851-.444-2.917-.242-3.208.609m79.25 20.025c-.169 13.273-.645 21.271-1.27 21.305-19.478 1.077-23.5 2.046-23.5 5.667 0 2.96.064 2.996 4.25 2.425 2.338-.319 7.963-.878 12.5-1.242l8.25-.663V258h5.922l.289-8.743.289-8.743 4.75-.865c4.408-.803 4.75-1.079 4.75-3.84 0-2.928-.073-2.969-4.75-2.642l-4.75.333-.27-20.75-.271-20.75H1059.04l-.27 21.25m51.98-20.561c-2.137.559-2.171 1.369-.25 5.965.825 1.975 1.5 3.76 1.5 3.968 0 .208-6.975.378-15.5.378H1081v3c0 2.91.142 3 4.75 3.015 5.953.02 6.547.455 8.161 5.985 1.939 6.641 5.792 13.889 10.195 19.179 2.142 2.574 3.894 4.932 3.894 5.239 0 .973-15.259 8.261-21.207 10.128l-5.706 1.792 1.672 2.831c.92 1.557 2.205 2.831 2.857 2.831 1.837 0 17.312-6.684 22.849-9.869l4.965-2.857 6.167 3.39c11.123 6.114 21.912 9.553 23.642 7.536 3.063-3.573 2.849-3.987-2.988-5.768-7.914-2.415-20.251-8.535-20.251-10.046 0-.684.59-1.838 1.312-2.565 3.451-3.476 8.892-12.933 10.816-18.799 2.81-8.57 3.26-9.022 8.994-9.022 4.753 0 4.878-.077 4.878-3v-3H1119.325l-1.87-5.5c-1.858-5.468-2.481-5.915-6.705-4.811m70.265 4.061c.309 9.011 1.454 8.25-12.408 8.25-14.383 0-13.193-1.117-13.521 12.7-.397 16.708.492 21.3 4.123 21.3 2.137 0 3.126-.565 3.501-2 .474-1.811 1.364-2 9.407-2H1181v23h8v-23h9.5c8.833 0 9.5.14 9.5 2 0 1.619.667 2 3.5 2h3.5v-34h-26v-13h-8.148l.163 4.75m69.452-1.713c-1.816 2.007-1.734 2.147 5.544 9.474 6.946 6.993 7.496 7.34 9.189 5.808 2.99-2.706 2.101-4.808-4.737-11.204-7.332-6.859-7.44-6.903-9.996-4.078M769.5 196.386l-10 1.114-.575 22c-.567 21.68-1.016 24.908-4.371 31.396-1.691 3.27-.479 5.945 2.751 6.072 2.886.114 7.672-17.766 7.687-28.718L765 223h10v34h5V223.121l3.75-.311c3.256-.269 3.792-.672 4.066-3.06l.317-2.75H765v-6.921c0-7.972-.79-7.456 13.25-8.653 7.844-.669 8.559-1.154 7.143-4.844-.684-1.783-1.54-1.794-15.893-.196m24.104-.657c-.332.332-.604 1.639-.604 2.904 0 2.239.282 2.307 10.75 2.583l10.75.284.305 4.75.305 4.75H797v47h3c2.333 0 3-.444 3-2 0-1.943.667-2 23.5-2s23.5.057 23.5 2c0 1.556.667 2 3 2h3v-47.142l-9.002.321-9.003.321.003-5.25L838 201H859.133l-.317-2.75-.316-2.75-32.146-.188c-17.68-.103-32.417.084-32.75.417m224.396.201c-7.276.553-7.509.652-7.816 3.32-.305 2.645-.142 2.75 4.25 2.75H1019v10h-5c-4.889 0-5 .067-5 3 0 2.889.167 3 4.5 3 2.475 0 4.5.394 4.5.876 0 1.5-4.851 11.927-7.504 16.131-2.432 3.852-2.651 8.161-.483 9.501.939.581 4.225-4.76 6.074-9.872 2.265-6.264 2.913-4.069 2.913 9.864V258h6v-13.5c0-14.264.177-14.722 4.414-11.389 2.619 2.06 2.733 2.066 4.734.255l2.05-1.855-3.778-3.266c-2.47-2.136-4.408-3.066-5.599-2.688-1.558.494-1.821-.01-1.821-3.49V218h4.5c4.333 0 4.5-.111 4.5-3 0-2.894-.161-3-4.552-3h-4.553l.303-5.25.302-5.25 4.5-.5c2.749-.305 4.461-.986 4.4-1.75-.384-4.797.55-4.608-16.4-3.32m23.665 4.888c-2.642 2.919 8.447 12.296 11.39 9.632 2.717-2.458 2.58-2.774-3.186-7.365-5.876-4.679-5.993-4.711-8.204-2.267m-220.101 1.079c-.341.551-.495 2.824-.342 5.051l.278 4.049 4.805.002 4.805.001-.305-4.75-.305-4.75-4.158-.303c-2.287-.167-4.437.148-4.778.7m-93.924 4.576c-1.805 1.367-1.798 1.497.25 4.372 2.8 3.933 2.771 3.992-2.14 4.348-3.803.275-4.283.596-4.566 3.057l-.317 2.75h15.26l-.314 3.25c-.312 3.242-.329 3.251-6.813 3.75-5.667.436-6.5.756-6.5 2.5s.833 2.064 6.5 2.5l6.5.5.294 7.845c.331 8.834-.522 10.655-4.986 10.655-5.26 0-3.487 4.415 1.931 4.807 7.316.53 9.261-2.466 9.261-14.262V233h6c5.733 0 6-.111 6-2.5s-.267-2.5-6-2.5h-6v-7h13v-3c0-2.833-.222-3-4-3-4.634 0-4.716-.185-1.858-4.199 1.765-2.479 1.897-3.163.75-3.889-2.786-1.764-4.536-.824-6.68 3.588-1.202 2.475-2.642 4.545-3.199 4.6-.557.055-2.138.1-3.513.1-4.539 0-4.906-.183-3.068-1.526 1.733-1.268 1.709-1.489-.559-4.988-2.681-4.136-2.69-4.14-5.233-2.213m513.739 1.982c-.307.8-.401 10.363-.208 21.25.467 26.392.03 25.795 18.874 25.795 14.71 0 15.963-.977 18.338-14.304.535-3.004.295-3.428-2.647-4.667l-3.236-1.362-1.108 6.076c-1.431 7.844-2.737 8.757-12.526 8.757-11.041 0-10.866.382-10.866-23.723V207h-3.031c-1.731 0-3.271.624-3.59 1.455m-141.176 1.398c-2.617 1.661 6.968 20.46 12.002 23.538 3.335 2.039 12.561-11.487 14.419-21.141l.626-3.25-12.875.015c-7.081.009-13.458.386-14.172.838m-119.666 2.03C979.527 215.066 984.2 233 986.04 233c1.145 0 4.522-11.029 5.435-17.75l.713-5.25h-5.527c-4.534 0-5.634.338-6.124 1.883m182.289 8.205c-.179 4.448-.138 8.273.091 8.5.229.227 4.391.412 9.25.412H1181v-17h-17.848l-.326 8.088m26.174.45v8.537l9.25-.287 9.25-.288.29-8.25.291-8.25H1189v8.538m86.371-6.766-2.128 1.728 5.652 10.646 5.653 10.647 2.726-1.428c3.499-1.834 3.523-1.68-1.773-11.256-7.584-13.71-6.871-12.982-10.13-10.337m-45.401 2.478c-.016 1.238-1.558 6.75-3.426 12.25-3.578 10.538-3.562 10.885.551 11.851 2.702.634 3.18-.544 9.512-23.477.293-1.06-.344-1.838-1.829-2.236-3.855-1.033-4.777-.724-4.808 1.612m-191.347 1.878c-1.414 2.019-1.206 2.361 4.035 6.63l5.526 4.502 2.103-2.102c1.156-1.156 1.902-2.249 1.657-2.428-.244-.18-2.756-2.217-5.583-4.528-5.976-4.887-5.801-4.84-7.738-2.074m-235.28.418c-.22.575-.275 7.55-.122 15.5l.279 14.454h46l.302-5.25.303-5.25h-7.098C832.92 238 831 236.009 831 225.545V218h-5c-4.936 0-5 .04-5 3.134 0 5.403-2.207 10.82-6.307 15.477l-3.954 4.492-2.384-2.239-2.383-2.239 2.963-3.063c3.331-3.442 6.065-9.273 6.065-12.937 0-2.257-.422-2.466-5.628-2.782-3.312-.202-5.794.088-6.029.703m34.861 6.204.296 6.75h11l.296-6.75.295-6.75h-12.182l.295 6.75M236 239.789c-9.075 11.391-24.825 30.966-35 43.5-10.175 12.534-20.75 25.627-23.5 29.095-8.54 10.771-24.955 31.091-25.54 31.616-.306.275-9.307 11.451-20.001 24.836-17.754 22.22-19.562 24.176-20.8 22.5-2.489-3.371-20.144-28.646-31.467-45.048L68.5 330.077l-17.335-.039L33.83 330l3.457 4.75c3.609 4.959 25.862 36.585 48.021 68.25 7.121 10.175 13.452 19.01 14.069 19.633.618.623 6.091 1.428 12.162 1.79l11.039.658 24.57-30.791C186.259 345.277 197.117 332 198.09 332c.5 0 .91-.476.91-1.058 0-.582 8.438-11.441 18.75-24.131 10.313-12.69 21.424-26.502 24.691-30.692 7.947-10.191 20.714-25.565 21.46-25.841.329-.123 1.724 1.29 3.099 3.138 3.382 4.546 14.76 18.744 24.5 30.573 9.299 11.293 23.906 29.468 30.809 38.334 2.646 3.397 5.787 7.302 6.982 8.677 5.533 6.369 13.582 16.304 43.653 53.882l32.315 40.383 6.621-.625c3.641-.344 8.694-.629 11.228-.633l4.609-.007 6.336-9.25a1468.38 1468.38 0 0 1 12.892-18.446c15.26-21.409 45.581-64.651 45.888-65.444.184-.473-7.241-.856-16.5-.852l-16.833.009-8.584 12.241a527140.26 527140.26 0 0 0-22 31.381c-7.379 10.527-13.717 18.96-14.085 18.741-.368-.219-7.043-8.381-14.834-18.139-7.791-9.758-16.346-20.441-19.011-23.741-2.666-3.3-11.182-13.875-18.926-23.5-7.743-9.625-14.674-18.175-15.401-19-2.755-3.124-32.032-39.356-48.482-60-9.423-11.825-18.518-23.187-20.211-25.25l-3.079-3.75-11.193.039-11.194.039-16.5 20.711M872 230v3h51v-6h-51v3m-148.339 13.36c-2.644 5.983-2.445 7.578.952 7.625.911.012 6.387-10.485 6.387-12.243 0-.28-1.052-.71-2.339-.956-2.039-.39-2.68.325-5 5.574m23.05-5.11c-1.534 1.147-1.447 1.6 1.059 5.493 2.976 4.625 3.038 4.664 5.229 3.279 1.293-.818 1.159-1.572-.979-5.485-2.726-4.99-2.893-5.094-5.309-3.287M865 251v3h66v-6h-66v3m1.235 56.25.265 29.25h6l.265-29.25.265-29.25h-7.06l.265 29.25M992 292.5c0 7.975-.243 14.5-.54 14.5-.298 0-1.86-.975-3.472-2.167-5.942-4.393-16.982-1.614-20.484 5.159-8.271 15.995 6.803 33.78 21.128 24.926 3.272-2.022 3.368-2.026 3.368-.154 0 1.839.932 2.038 6.25 1.335.413-.054.75-13.149.75-29.099v-29h-7v14.5m-429.759 16 .259 28h6l.272-18.75c.15-10.312.6-18.765 1-18.783.4-.017 9.372 8.87 19.938 19.75l19.21 19.783.04-27.75L609 283h-7v18.5c0 10.175-.375 18.5-.834 18.5-.759 0-10.488-9.739-31.47-31.5l-7.713-8 .258 28m480.5-25.071c-14.617 5.216-13.007 19.749 2.962 26.743 7.49 3.28 10.155 5.552 10.848 9.248 2.088 11.131-13.84 15.719-17.683 5.093-1.202-3.324-1.601-3.616-4.222-3.092-1.593.318-3.266.579-3.719.579-1.139 0 .97 5.913 3.305 9.265 4.71 6.763 17.768 7.962 23.84 2.189 10.789-10.259 7.182-22.861-8.318-29.057-7.152-2.859-9.087-4.655-9.087-8.433 0-6.625 8.905-9.483 13.92-4.468 2.371 2.371 2.619 2.415 4.954.885 3.103-2.033 3.078-2.413-.366-5.714-4.624-4.429-10.082-5.505-16.434-3.238m128.449.083c-30.68 8.536-24.55 53.372 7.31 53.464 10.003.03 13.897-2.063 14.306-7.687l.305-4.21-4.805 2.692c-20.282 11.364-40.179-14.607-24.502-31.981 6.557-7.266 14.535-8.708 23.946-4.326l5.25 2.444v-3.769c0-3.311-.418-3.968-3.447-5.412-5.109-2.437-12.269-2.91-18.363-1.215m94.631-.165c-30.619 8.56-24.009 53.988 7.795 53.577 9.644-.125 12.822-1.753 13.191-6.758.359-4.861.432-4.83-4.478-1.933-8.896 5.249-22.02 1.292-27.001-8.14-9.277-17.566 8.241-37.128 26.152-29.205 5.961 2.637 5.52 2.752 5.52-1.439 0-3.079-.443-3.736-3.332-4.943-5.094-2.129-12.63-2.618-17.847-1.159m-525.437 1.095c-1.686 4.394-.362 5.045 10.878 5.342 5.979.158 10.738.708 10.738 1.241 0 .527-3.263 6.608-7.25 13.514-19.234 33.312-18.822 32.489-16 31.949.962-.184 9.288-.369 18.5-.411L774 336v-6h-12.5c-8.628 0-12.5-.35-12.5-1.13 0-1.034 13.442-25.058 21.605-38.614 1.867-3.101 3.395-6.002 3.395-6.447 0-1.59-33.002-.968-33.616.633M1091 309.4v26.399l13.25.406c14.107.432 15.511.115 15.254-3.44-.156-2.163-.633-2.288-10.584-2.765l-10.42-.5-.287-9.215-.287-9.214 10.287-.286 10.287-.285.313-3.25.314-3.25H1098v-13.932l10.75-.284c11.477-.303 10.818.032 10.375-5.284-.105-1.256-2.403-1.5-14.125-1.5h-14v26.4m285-12.4c0 4.667-.333 6-1.5 6-1.998 0-2.024 5.585-.029 6.35 1.171.45 1.527 3.266 1.75 13.857l.279 13.293h6l.5-13.5.5-13.5 2.75-.316c4.312-.497 4.082-6.184-.25-6.184h-3v-12h-7v6m-693.619 5.5c-3.023 7.86-8.253 19-8.919 19-.443 0-2.417-3.6-4.386-8-4.734-10.58-4.668-10.5-8.635-10.5-4.396 0-4.76-1.39 4.787 18.291l8.229 16.962 2.572-5.466a316.141 316.141 0 0 0 4.821-10.877l2.249-5.41 3.764 8.5a2643.24 2643.24 0 0 1 4.847 11c1.034 2.386 1.242 2.157 4.55-5 1.906-4.125 5.795-12.139 8.642-17.809l5.176-10.31-4.253.31-4.252.309-3.948 9.25c-2.171 5.087-4.257 9.25-4.634 9.25-.378 0-2.747-4.837-5.264-10.75-3.633-8.536-4.735-10.338-5.346-8.75m-50.762.491c-12.356 3.887-14.672 24.214-3.62 31.759 6.044 4.126 15.276 3.014 21.251-2.559 3.358-3.132 3.396-3.722.366-5.707-2.264-1.484-2.537-1.409-5.423 1.477-5.306 5.306-14.742 2.885-15.439-3.961l-.254-2.5 12.182-.28 12.182-.28-.541-3.72c-1.591-10.935-10.88-17.32-20.704-14.229m162.394-.254c-13.403 2.503-16.284 25.822-4.004 32.408 6.743 3.616 17.378 1.644 21.692-4.022 3.601-4.731-2.215-7.455-6.586-3.084-4.186 4.186-9.236 4.113-13.258-.192-5.175-5.54-4.013-6.309 10.028-6.629l12.36-.282-.673-4.213c-.991-6.194-3.561-9.941-8.557-12.473-4.36-2.21-6.036-2.441-11.002-1.513m38.606.287c-12.414 3.761-14.738 24.136-3.62 31.726 4.304 2.938 11.035 3.01 15.633.168 2.691-1.663 3.368-1.785 3.368-.608 0 1.565 4.441 3.153 6.046 2.162.543-.336.954-7.677.954-17.031V303h-3.5c-2.813 0-3.5.386-3.5 1.966 0 1.935-.051 1.937-3.25.097-4.189-2.409-8.511-3.136-12.131-2.039m60.985.014c-9.199 2.753-14.018 16.459-9.119 25.932 4.034 7.801 13.734 10.53 21.147 5.948 2.86-1.767 3.368-1.843 3.368-.5 0 .87.675 1.638 1.5 1.707 5.375.448 4.979 1.679 5.274-16.375l.274-16.75h-3.524c-2.841 0-3.524.382-3.524 1.972 0 1.891-.191 1.87-4.649-.5-4.952-2.633-6.187-2.798-10.747-1.434m46.695.058c-1.76.515-3.474 1.379-3.809 1.92-.926 1.498-2.49 1.174-2.49-.516 0-1.048-1.056-1.5-3.5-1.5H927v16.393c0 17.258.158 17.843 4.642 17.192 1.653-.24 1.913-1.538 2.358-11.779.574-13.21 2.185-16.752 7.639-16.791 5.516-.039 6.821 2.824 7.361 16.145.462 11.395.653 12.36 2.5 12.596 3.721.476 4.017-.791 3.5-14.987-.474-13.015-.631-13.858-3-16.154-2.969-2.878-7.292-3.808-11.701-2.519m366.615-.184c-13.25 4.239-15.7 23.924-3.962 31.835 5.626 3.791 15.455 2.99 20.015-1.632 4.077-4.132 4.215-4.766 1.436-6.586-2.588-1.697-2.678-1.674-5.461 1.373-5.29 5.793-15.942 2.882-15.942-4.357V321h24.26l-.52-4.614c-1.1-9.757-10.813-16.358-19.826-13.474m42.772.094c-1.548.47-3.46 1.392-4.25 2.047-1.148.953-1.436.866-1.436-.431 0-2.294-6.541-2.259-7.424.04-.986 2.57-.52 31.322.511 31.463.502.069 2.15.181 3.663.25l2.75.125.5-12.342c.542-13.373 1.827-16.158 7.456-16.158 4.723 0 6.002 3.196 6.544 16.349l.5 12.144 3 .004 3 .003.308-11.5c.342-12.76-.771-18.299-4.099-20.406-3.063-1.938-7.681-2.603-11.023-1.588m56.54.984c-3.921 2.407-4.226 2.444-4.226.51 0-1-1-1.5-3-1.5h-3v17.107c0 15.188.177 17.039 1.582 16.5.87-.334 2.22-.607 3-.607 1.127 0 1.418-2.001 1.42-9.75.002-13.166 1.673-16.786 7.696-16.668 3.712.073 4.335-.249 5.385-2.782 1.38-3.332 1.357-3.37-2.583-4.193-2.105-.44-3.977-.028-6.274 1.383m25.393-.999c-12.37 3.891-14.769 24.358-3.721 31.739 6.624 4.425 17.217 2.706 21.815-3.542l2.213-3.007-2.511-1.645c-2.431-1.592-2.602-1.547-5.364 1.41-4.949 5.297-13.566 3.752-15.866-2.845-1.417-4.064-1.307-4.101 12.118-4.101h11.969l-.642-4.75c-1.354-10.025-10.671-16.198-20.011-13.259m-800.046 7.345C626.966 314.943 627.978 316 637 316c8.667 0 9.478-.648 6.011-4.806-3.011-3.612-8.288-4.008-11.438-.858m161.504.253c-5.162 4.343-4.19 5.411 4.923 5.411 8.968 0 10.029-1.062 5.545-5.545-3.157-3.158-6.608-3.114-10.468.134m42.311-1.62C825.271 313.11 827.781 331 838.479 331c6.576 0 11.338-6.666 9.899-13.859-1.223-6.114-7.843-10.279-12.99-8.172m58.718 1.595c-10.195 8.579-1.585 24.712 10.299 19.297 7.18-3.271 7-16.532-.277-20.295-4.234-2.189-6.502-1.963-10.022.998m84.251-1.61c-4.819 2.03-7.383 9.407-5.38 15.478 2.712 8.216 13.576 9.201 17.513 1.588 4.866-9.411-3.239-20.813-12.133-17.066m327.617 1.918c-4.194 4.194-3.176 5.128 5.585 5.128 6.566 0 7.441-.217 7.441-1.845 0-5.557-8.587-7.722-13.026-3.283m124.949.051c-4.504 4.505-3.876 5.077 5.577 5.077 5.405 0 8.5-.392 8.5-1.077 0-2.161-5.847-6.923-8.5-6.923-1.6 0-3.815 1.161-5.577 2.923m-356.912 19.564c-1.527 1.84-.504 6.513 1.426 6.513 2.855 0 4.563-1.276 4.563-3.407 0-4.062-3.632-5.946-5.989-3.106m58.021.453c-1.646 3.076.359 6.269 3.684 5.87 3.349-.402 5.177-3.166 3.678-5.56-1.644-2.626-6.024-2.81-7.362-.31m72 0c-1.646 3.076.359 6.269 3.684 5.87 3.349-.402 5.177-3.166 3.678-5.56-1.644-2.626-6.024-2.81-7.362-.31m-625.858 33.923c-7.814 18.341-3.477 62.06 5.586 56.307.987-.627.82-2.077-.77-6.698-4.599-13.369-4.621-32.648-.05-45.839 2.195-6.336 2.11-7.125-.85-7.899-1.547-.405-2.342.433-3.916 4.129M926 372.582v12.581l-3.368-2.081c-10.438-6.452-21.883 3.877-18.641 16.822 2.43 9.698 12.775 14.206 19.238 8.382 1.568-1.413 1.788-1.406 2.357.078.381.993 1.765 1.636 3.521 1.636H932v-50h-6v12.582M1304 385v25h6v-50h-6v25m124.283-23.94c-2.125.816-2.156.999-.736 4.397 5.802 13.888 5.792 36.876-.023 51.703-1.271 3.24-1.259 3.728.102 4.25 3.187 1.223 4.063.423 6.202-5.66 4.802-13.653 4.92-34.981.267-48.219-2.483-7.065-2.94-7.574-5.812-6.471m-827.832 6.19c-7.586 7.004-5.115 14.506 6.665 20.239 10.356 5.04 12.699 9.787 7.429 15.056-4.383 4.383-14.545 1.59-14.545-3.997 0-1.623-2.657-2.053-4.691-.76-.892.567-.724 1.802.666 4.907 6.198 13.845 26.042 9.132 26.274-6.24.095-6.268-2.342-9.137-11.853-13.955-6.563-3.325-7.948-4.448-8.203-6.653-.6-5.186 10.175-8.434 12.995-3.917.976 1.562 1.597 1.727 3.259.864 2.875-1.491 2.835-1.399 1.604-3.698-3.164-5.913-14.082-6.941-19.6-1.846m572.437-1.75c-5.225 2.839-6.088 12.6-1.453 16.446 1.188.986.607 1.971-3.505 5.934-13.662 13.169 2.552 30.374 18.323 19.444l3.978-2.756 2.337 2.716c1.752 2.037 3.254 2.716 6.004 2.716h3.669l-3.621-4.418c-4.195-5.12-4.368-6.157-1.534-9.173 1.71-1.821 1.884-2.597.964-4.315-1.442-2.695-2.191-2.637-5.038.394-2.664 2.834-3.195 2.594-8.187-3.709l-3.1-3.913 3.738-3.828c9.106-9.325-1.009-21.824-12.575-15.538m68.238-.218c-1.856.593-5.325 3.001-7.709 5.352-17.055 16.814-1.114 45.367 21.908 39.237 4.943-1.316 5.189-1.542 5.481-5.045l.305-3.667-3.767 1.92c-19.256 9.818-35.416-18.445-17.505-30.616 4.315-2.932 14.409-3.499 17.72-.995 2.885 2.182 3.441 1.88 3.441-1.87 0-2.917-.449-3.559-3.149-4.5-3.879-1.352-12.204-1.26-16.725.184m-580.605 1.339c-1.949 1.949-1.656 4.265.729 5.767 3.737 2.353 7.731-3.466 4.168-6.072-2.321-1.696-2.933-1.658-4.897.305M871 387.5V410h11.883c11.852 0 11.885-.007 12.357-2.476.661-3.457.481-3.524-9.407-3.524H877v-16h18v-6h-18v-12h8.917c8.914 0 10.477-.628 9.329-3.75-.333-.904-3.75-1.25-12.353-1.25H871v22.5m186.832-20.03c-2.06 4.52 3.8 7.955 6.133 3.596 1.339-2.502 1.323-2.635-.536-4.495-2.265-2.264-4.305-1.936-5.597.899m117.368 2.73c-1.917 1.917.391 9.8 2.87 9.8 1.317 0 5.93-4.963 5.93-6.381 0-3.713-6.126-6.093-8.8-3.419m-133.533 1.467c-.367.366-.667 2.841-.667 5.5 0 3.629-.374 4.833-1.5 4.833-.933 0-1.5.944-1.5 2.5s.567 2.5 1.5 2.5c1.246 0 1.5 1.944 1.5 11.5V410h6v-23h2.5c3.437 0 3.664-4.696.25-5.18-1.96-.279-2.289-.996-2.552-5.57-.295-5.128-2.861-7.254-5.531-4.583M1319 376.5c0 4.222-.348 5.5-1.5 5.5-.933 0-1.5.944-1.5 2.5s.567 2.5 1.5 2.5c1.246 0 1.5 1.944 1.5 11.5V410h6v-23h2.5c2 0 2.5-.5 2.5-2.5s-.5-2.5-2.5-2.5c-2.364 0-2.5-.3-2.5-5.5 0-5.444-.03-5.5-3-5.5s-3 .056-3 5.5m-681.759 6.495c-9.01 5.493-9.805 18.907-1.472 24.84 6.885 4.903 17.231 3.519 17.231-2.305v-3.314l-3.75 1.926c-6.871 3.528-13.25-.272-13.25-7.893 0-8.673 8.972-13.204 15.124-7.637 1.802 1.631 1.876 1.555 1.876-1.922 0-5.89-8.782-7.949-15.759-3.695m43.102.061c-3.435 2.201-6.343 8.159-6.343 12.996 0 12.95 15.117 19.677 24.079 10.715l3.157-3.157-2.312-1.873c-2.268-1.836-2.344-1.833-3.869.144-4.005 5.193-13.191 3.781-13.871-2.131l-.317-2.75H701v-3.352c0-9.852-12.116-16.064-20.657-10.592m37.736-.268c-1.792 1.246-2.529 1.362-2.834.448-.226-.68-1.68-1.236-3.23-1.236h-2.818l-.141 14-.141 14h5.852l.407-10.121c.427-10.639 1.994-13.879 6.714-13.879 4.978 0 6.112 2.515 6.112 13.557V410h6l-.006-9.25c-.006-10.847-1.234-16.104-4.255-18.221-2.848-1.994-8.603-1.866-11.66.259m31.905.036c-10.928 5.721-9.971 22.342 1.539 26.738 7.408 2.829 12.877 1.171 13.301-4.034.306-3.764.228-3.889-1.5-2.391-4.105 3.558-11.855 2.476-14.244-1.987-4.624-8.64 4.24-18.138 12.799-13.713l3.121 1.614v-2.99c0-5.168-8.023-6.897-15.016-3.237m28.315.136c-9.28 5.658-8.368 22.606 1.437 26.703 8.186 3.42 22.781-3.614 16.742-8.068-1.793-1.322-2.236-1.213-4.739 1.171-4.796 4.567-12.949 2.653-13.913-3.266-.307-1.882.309-2.017 10.463-2.284l10.789-.284-.668-3.716c-1.88-10.456-11.63-15.428-20.111-10.256m30.709.532c-4.416 4.701-2.844 10.02 3.992 13.508 4.548 2.32 6.213 4.282 5.41 6.373-.772 2.013-5.188 2.136-7.331.204-1.284-1.157-2.007-1.193-3.873-.191l-2.295 1.232 2.088 2.654c5.942 7.554 19.744 1.519 17.447-7.629-.678-2.705-3.693-5.273-8.724-7.433-3.225-1.385-4.489-3.843-2.83-5.502.877-.877 1.652-.849 3.196.115 4.477 2.796 7.984-1.258 3.689-4.266-3.383-2.37-8.045-1.965-10.769.935m172.233-.497c-6.588 4.016-9.243 13.232-5.756 19.976 4.674 9.038 21.515 10.939 21.515 2.428 0-3.435-.007-3.441-2.474-1.824-4.104 2.689-9.389 2.285-12.154-.929-7.396-8.598 3.208-21.484 11.993-14.573l2.635 2.072v-3.537c0-5.808-8.837-7.834-15.759-3.613m28.179-.109c-8.006 4.882-8.518 18.148-.968 25.114 3.468 3.2 11.201 3.529 14.422.614 1.883-1.704 2.145-1.728 2.712-.25.381.993 1.765 1.636 3.521 1.636H1032v-28h-2.917c-1.604 0-3.115.563-3.357 1.25-.332.941-1.194.818-3.488-.5-3.955-2.272-8.957-2.219-12.818.136m70.651-.134c-4.63 2.36-7.19 6.126-7.791 11.458-1.37 12.154 10.811 20.379 21.615 14.593 17.282-9.254 3.643-34.958-13.824-26.051m38.964-.064c-1.709 1.197-2.525 1.342-2.806.5-.217-.653-1.483-1.188-2.812-1.188H1111v28h2.406c2.36 0 2.413-.194 2.75-10.09.313-9.183.556-10.261 2.705-12 6.56-5.308 10.139-1.041 10.139 12.09v10h6.098l-.16-10.25c-.171-10.96-1.514-15.917-4.788-17.67-2.996-1.603-8.378-1.309-11.115.608m258.559.062c-1.343 1.282-1.958 1.416-2.297.5-.255-.687-1.776-1.25-3.38-1.25H1369v28h6v-9.277c0-11.299 1.373-14.132 6.558-13.526 2.738.319 3.504-.038 4.428-2.065 1.875-4.115-4.638-5.964-8.392-2.382m19.71.206c-10.44 6.366-8.76 23.73 2.626 27.141 6.493 1.945 17.07-2.349 17.07-6.931 0-2.261-4.158-2.366-6.502-.164-4.826 4.534-13.498 1.891-13.498-4.113 0-1.726.862-1.889 10-1.889h10v-3.596c0-9.793-11.107-15.685-19.696-10.448M660 396v14h6v-28h-6v14m282-3.016c0 14.188 2.067 17.369 11.347 17.461 9.497.093 11.871-3.221 12.454-17.387l.456-11.058H960l-.014 8.75c-.017 10.988-.539 12.899-3.841 14.05-6.63 2.311-9.145-1.465-9.145-13.734 0-9.004-.017-9.066-2.5-9.066H942v10.984M1058 396v14h6v-28h-6v14m212.162-3.017c.395 12.837 2.676 16.694 10.431 17.644 9.678 1.184 13.371-3.884 13.392-18.377.015-10.181-.001-10.25-2.406-10.25-2.959 0-3.595 2.373-3.443 12.843.123 8.415-1.11 10.49-6.23 10.49-4.924 0-5.906-2.247-5.906-13.524V382h-6.177l.339 10.983m65.838.094c0 12.654 1.825 16.049 9.392 17.469 10.16 1.906 14.604-3.814 14.606-18.796L1360 382h-5.818l-.341 10.452c-.373 11.427-.923 12.627-5.853 12.767-5.021.143-5.988-2.023-5.988-13.41V382h-6v11.077m-652.365-5.004C679.583 391.26 680.406 392 688 392c3.85 0 7-.417 7-.927 0-1.417-5.045-5.073-7-5.073-.952 0-2.916.933-4.365 2.073m97 0C776.583 391.26 777.406 392 785 392c7.605 0 9.116-1.405 4.777-4.443-3.029-2.122-6.002-1.954-9.142.516m131.288.85c-5.303 5.303-3.036 15.058 3.804 16.365 7.71 1.474 13.118-5.936 9.919-13.592-2.587-6.192-9.006-7.489-13.723-2.773m99.875.125c-5.888 5.888-2.206 16.152 5.795 16.152 8.072 0 11.521-10.239 5.484-16.277-3.836-3.836-7.357-3.797-11.279.125m72.202-2.342c-9.911 3.623-7.497 18.567 3 18.567 7.224 0 11.289-7.145 8.379-14.728-1.22-3.179-7.442-5.278-11.379-3.839m315.413 1.617c-3.852 3.315-3.03 3.826 5.584 3.473l7.238-.296-1.867-2.247c-2.947-3.545-7.47-3.93-10.955-.93m-226.685 2.75c-2.981 2.457-3.728 3.759-3.728 6.5 0 7.199 7.867 9.934 13.921 4.84l3.075-2.587-4.646-5.913c-2.555-3.252-4.701-5.913-4.77-5.913-.068 0-1.802 1.383-3.852 3.073m-340.477 19.598c-3.188 7.744-3.308 9.329-.703 9.329 2.297 0 9.776-15.662 7.834-16.407-3.21-1.232-4.057-.391-7.131 7.078m-587.42 25.579c-4.548 5.637-8.732 10.763-9.3 11.391-.567.628-4.631 5.731-9.031 11.341a1728.73 1728.73 0 0 1-16 20.028 3245.481 3245.481 0 0 0-14.898 18.462c-3.794 4.747-7.258 8.271-7.698 7.83-1.275-1.28-14.762-20.159-29.656-41.514L144.5 444.076l-16.785-.038L110.93 444l1.2 2.25c.66 1.238 6.602 9.9 13.204 19.25a9484.58 9484.58 0 0 1 19.084 27.127c20.365 29.123 27.673 39.259 30.443 42.225l3.055 3.269 10.566-.247 10.566-.248 10.544-13.063c5.8-7.185 11.827-14.638 13.395-16.563 6.028-7.402 21.695-27.069 25.513-32.028 2.2-2.857 4.462-5.708 5.028-6.334.565-.626 3.13-3.739 5.699-6.917l4.671-5.779 4.801 6.117c2.641 3.364 10.656 13.39 17.813 22.279 7.157 8.889 16.935 21.112 21.729 27.162 21.831 27.551 19.38 25.539 30.943 25.4 11.016-.132 12.239-.594 16.059-6.067 1.791-2.567 7.719-10.892 13.173-18.5 10.977-15.312 46.752-66.113 47.945-68.083.594-.981-2.887-1.25-16.148-1.25h-16.906l-4.903 7.04c-10.302 14.791-18.674 26.479-19.311 26.96-.364.275-2.312 2.975-4.328 6-3.35 5.026-9.723 14.137-13.959 19.958l-1.695 2.328-2.805-3.3c-1.543-1.815-5.506-6.766-8.806-11.002-4.851-6.227-31.882-40.005-36.798-45.984-.679-.825-4.558-5.663-8.621-10.75l-7.387-9.25h-21.596l-8.267 10.25M187 554.562c0 .335 8.457 12.609 18.794 27.274 17.546 24.893 23.869 33.945 48.492 69.429l9.552 13.764 2.897-4.264c4.911-7.233 27.555-39.705 51.437-73.765l22.788-32.5-16.602-.275c-14.919-.247-16.738-.095-17.953 1.5-.744.976-6.403 8.975-12.577 17.775-31.237 44.526-29.843 42.759-31.749 40.251-.941-1.238-8.299-11.701-16.35-23.251-8.051-11.55-17.046-24.375-19.989-28.5l-5.351-7.5-16.694-.274c-9.182-.151-16.695 0-16.695.336" fill-rule="evenodd"/></svg>