<svg xmlns="http://www.w3.org/2000/svg" viewBox="0 0 1477 671"><path fill="#fbfbfb" stroke="#fbfbfb" d="M247.893 24.75c-8.393 11.962-18.692 26.7-22.888 32.75-4.195 6.05-12.213 17.41-17.816 25.245C201.585 90.58 197 97.217 197 97.495c0 .278 29.973.505 66.607.505 59.29 0 66.543-.168 66.022-1.525-.322-.84-6.07-9.277-12.772-18.75-6.703-9.474-14.216-20.15-16.696-23.725-2.48-3.575-9.243-13.25-15.029-21.5-5.787-8.25-12.796-18.254-15.576-22.232-2.781-3.978-5.359-7.24-5.73-7.25-.37-.01-7.54 9.77-15.933 21.732m-75.17 103c-7.359 10.313-15.411 21.675-17.893 25.25-2.481 3.575-11.149 15.907-19.261 27.404-8.113 11.497-14.982 21.509-15.266 22.25-.43 1.12 10.674 1.346 66.09 1.346 48.051 0 66.607-.309 66.607-1.108 0-.609-6.213-9.946-13.806-20.75-15.428-21.948-43.027-61.106-48.204-68.392-1.856-2.612-3.715-4.75-4.131-4.75-.416 0-6.777 8.438-14.136 18.75m156.022-5A12188.86 12188.86 0 0 1 308.028 153a8928.12 8928.12 0 0 0-20.858 30.5c-5.234 7.7-10.339 15.073-11.344 16.385-1.004 1.312-1.826 2.774-1.826 3.25 0 .478 29.963.865 67 .865 36.85 0 67-.219 67-.486 0-.46-26.693-37.562-55.227-76.764-7.106-9.763-13.309-17.75-13.785-17.75-.476 0-5.085 6.188-10.243 13.75m406.941 68.963c-2.533.389-2.749.724-2.17 3.36l.643 2.927H722v3.5c0 3.269.211 3.5 3.191 3.5 2.862 0 3.008.134 1.415 1.299-1.688 1.234-1.667 1.483.408 5l2.184 3.701h-4.599c-4.443 0-4.599.102-4.599 3v3h15v6h-13v7h13v7.933c0 8.507-1.118 10.116-5.962 8.579-1.896-.602-1.871-.809.748-6.149 2.657-5.417 2.672-5.555.771-6.945-3.313-2.423-4.439-1.635-7.59 5.314-3.246 7.16-2.755 9.268 2.158 9.268 1.157 0 1.848.923 2.059 2.75.293 2.551.683 2.771 5.398 3.046 8.456.494 9.841-1.356 10.262-13.706l.343-10.09H755v-7h-12v-6h14v-3c0-2.833-.222-3-4-3-4.587 0-4.717-.312-1.992-4.781l2-3.28-2.254-.906c-2.049-.824-1.958-.912.996-.97 3.036-.059 3.25-.294 3.25-3.563V198h-5.855c-5.746 0-5.873-.061-6.786-3.243-.962-3.354-1.894-3.779-6.673-3.044m144.564 1.032c-4.06 2.021-4.047 2.332.335 8.065l3.584 4.69-9.109.288-9.108.288.381 3.712.38 3.712H929.5l.308-3.712.308-3.711-9.178-.289-9.179-.288 4.121-4.982c4.959-5.995 4.939-5.82.799-7.317-4.92-1.779-4.937-1.77-10.109 5.799l-4.783 7-6.643-.052c-6.308-.05-6.531-.132-4.413-1.61l2.23-1.556-4.628-5.891c-2.545-3.24-4.674-5.862-4.731-5.827-.056.035-1.564.792-3.352 1.681m96.812 6.737c-2.677 10.134-6.865 19.34-6.983 15.351-.044-1.466-.61-2.843-1.258-3.059-.744-.248.051-2.182 2.159-5.245l3.339-4.853-2.27-1.838c-3.091-2.502-3.724-2.347-5.745 1.412-1.617 3.009-1.773 3.083-2.095 1-.293-1.893-.972-2.25-4.279-2.25-3.918 0-3.93-.012-3.93-4v-4h-8v8h-4.563c-4.546 0-4.563.012-4.25 3.25.294 3.051.574 3.269 4.563 3.557 3.73.27 4.25.601 4.25 2.701 0 2.211-.436 2.415-5.75 2.692-5.656.295-5.75.349-5.75 3.3v3l7.363.296c7.235.291 7.333.33 5.595 2.25-.972 1.075-3.04 1.954-4.594 1.954-2.191 0-2.969.57-3.462 2.535-.35 1.394-1.948 3.213-3.551 4.042-2.913 1.507-2.914 1.508-1.167 4.465 2.158 3.654 1.809 3.678 7.745-.542 3.657-2.6 5.954-3.5 8.934-3.5h4.011l-2.687 2.805c-1.478 1.542-2.687 3.307-2.687 3.92 0 1.146-1.987 1.684-10.25 2.772-4.624.609-4.75.716-4.75 4.064 0 3.845.489 3.981 9.206 2.545 3.561-.587 4.831-.451 5.219.559 1.148 2.991-.567 4.335-5.532 4.335-5.086 0-5.432.386-4.263 4.75.544 2.027 1.219 2.25 6.812 2.25 7.987 0 10.558-2.269 10.558-9.314 0-4.495.117-4.686 2.875-4.686 7.185 0 9.125-1.008 9.125-4.74v-3.49l-5.75.671-5.75.672 4.304-4.183c6.124-5.952 5.727-9.301-1.156-9.739-4.733-.301-4.808-.356-3.095-2.25 2.535-2.8 9.852-2.793 8.963.009-.615 1.938 1.867 8.05 3.269 8.05.404 0 1.351-.988 2.105-2.196 1.31-2.097 1.482-1.905 3.828 4.25 3.603 9.453 3.568 9.607-3.438 15.013-3.421 2.64-6.985 5.228-7.921 5.752-1.553.869-1.491 1.217.72 4.011 3.216 4.064 3.164 4.077 11.636-2.877l7.367-6.046 6.13 5.546c7.232 6.546 7.743 6.643 10.269 1.953 1.758-3.264 1.787-3.677.319-4.498-5.232-2.928-11.937-9.237-11.429-10.754a960.86 960.86 0 0 1 3.038-8.654c1.366-3.85 2.783-9.787 3.148-13.194.617-5.752.853-6.216 3.304-6.5 2.291-.266 2.639-.767 2.639-3.806v-3.5l-9.65-.285-9.651-.285 1.389-5.215c.763-2.868 1.394-5.28 1.4-5.36.007-.08-1.747-.313-3.898-.518l-3.91-.373-2.118 8.018M1058 212.324v21.438l-9.75.698c-5.362.384-10.813.949-12.113 1.255-2.314.547-2.328.507-.709-1.965 1.628-2.485 1.588-2.58-2.598-6.163-2.338-2.002-4.831-3.417-5.541-3.145-.874.336-1.289-.461-1.289-2.473 0-2.852.177-2.969 4.5-2.969h4.5v-8h-9v-4.5c0-4.239.159-4.501 2.75-4.514 5.806-.028 7.024-.864 6.295-4.315l-.669-3.171-6.438.236c-14.471.53-18.938 1.299-18.938 3.262 0 3.892 1.133 5.002 5.107 5.002 3.875 0 3.893.018 3.893 4v4h-10v8h4.567c4.276 0 4.523.144 3.872 2.25-.898 2.905-4.122 9.283-6.992 13.831-2.013 3.191-2.138 4.037-1.146 7.75 1.465 5.49 1.815 5.341 6.041-2.581l3.6-6.75.029 12.81.029 12.811 3.75-.311 3.75-.31.5-13.263.5-13.264 2.643 2.454c1.453 1.35 2.855 2.241 3.116 1.98.261-.261.773 1.391 1.137 3.671l.663 4.145 5.221-.579c2.871-.318 8.257-.87 11.97-1.228l6.75-.649v17.348l4.25-.308 4.25-.307.287-8.642.288-8.642 4.519-.678c4.491-.673 4.517-.699 4.212-4.358-.304-3.66-.329-3.679-4.536-3.414l-4.229.266-.271-20.766-.27-20.766-4.25-.307-4.25-.308v21.439m54-20.639c-4.926.814-5.042.971-3.467 4.739.807 1.931 1.467 3.964 1.467 4.518 0 .619-5.872 1.112-15.25 1.282l-15.25.276v7l5.686.298 5.685.298 1.702 5.202c2.393 7.318 5.045 12.403 9.541 18.294 2.137 2.801 3.886 5.418 3.886 5.815 0 .992-13.222 6.978-20.25 9.167-6.518 2.03-6.719 2.467-3.234 7.036l2.516 3.299 10.505-4.402c5.778-2.42 11.803-5.325 13.389-6.454 3.717-2.647 3.335-2.702 12.622 1.812 6.561 3.189 19.252 8.135 20.874 8.135.516 0 4.578-6.513 4.578-7.34 0-.332-2.558-1.348-5.684-2.257-5.487-1.595-16.325-6.243-19.224-8.244-1.153-.796-.841-1.688 1.717-4.918 3.704-4.676 7.668-12.338 10.11-19.542l1.763-5.199 5.659-.3 5.659-.3V202h-26.898l-1.734-5.5c-.953-3.025-2.214-5.439-2.801-5.364-.587.075-2.192.322-3.567.549m69 6.258V205h-26v35h4c3.333 0 4-.333 4-2 0-1.852.667-2 9-2h9v22.79l3.98.379c4.967.474 5.02.34 5.02-12.751V236h8.5c7.913 0 8.5.142 8.5 2.057 0 1.803.527 2.02 4.25 1.75l4.25-.307.223-17.25.222-17.25h-25.854l-.295-6.75-.296-6.75-4.25-.307-4.25-.308v7.058m68.262-3.693-2.087 2.25 7.996 8.397 7.996 8.398 3.144-3.145 3.145-3.144-7.453-7.503c-8.036-8.09-9.536-8.708-12.741-5.253m-469.762.415c-1.1.215-6.275.716-11.5 1.113l-9.5.722-.517 22c-.579 24.658-1.354 28.222-4.877 22.443-1.154-1.894-2.1-3.781-2.102-4.193-.006-1.23-3.483-.851-5.46.594-2.832 2.071 2.66 12.073 6.148 11.197 2.651-.665 2.918.248.88 3.018-1.27 1.725-1.195 2.191.674 4.191 5.87 6.281 11.336-3.767 12.648-23.25l.606-9h7l.274 17.25.273 17.25h6.906l.273-17.25.274-17.25 3.75-.31c3.546-.294 3.75-.498 3.75-3.75V216h-23.095l.297-6.25.298-6.25 6.5-.738c3.575-.405 8.364-.988 10.643-1.295l4.142-.557-1.06-3.455c-1.075-3.503-1.922-3.83-7.225-2.79m12.797 3.835-.099 3.5H814v9h-18.036l.268 23.75.268 23.75 3.75.31c3.22.267 3.75.02 3.75-1.75 0-2.019.447-2.06 22.5-2.06s22.5.041 22.5 2.06c0 1.77.53 2.017 3.75 1.75l3.75-.31.268-23.75.268-23.75h-19.151l.308-4.25.307-4.25 10.75-.284 10.75-.284V195h-67.604l-.099 3.5m248.859 1.834-2.193 2.334 6.077 5.285 6.077 5.286 2.441-2.294c3.284-3.084 3.249-3.178-3.15-8.39-6.499-5.295-6.389-5.268-9.252-2.221M822 206.5v4.5h8v-9h-8v4.5m-88.07 1.887c1.152 1.863 1.815 4.113 1.475 5-.462 1.203-.02 1.613 1.738 1.612 1.787-.001 3.036-1.21 5.165-5l2.807-4.999h-13.278l2.093 3.387m506.085 18.808c.016 23.63.357 25.224 5.999 28.053 4.91 2.463 21.057 2.463 25.986 0 6.325-3.159 10.53-17.336 5.688-19.176-5.631-2.141-5.989-1.936-7.231 4.152-.643 3.147-1.738 6.41-2.435 7.25-1.669 2.011-15.241 2.172-16.878.2-.698-.841-1.2-8.616-1.372-21.25l-.272-19.924-4.75-.305-4.75-.305.015 21.305M956 209.5c0 2.957 1.997 3.266 4.345.671 2.333-2.578 2.082-3.171-1.345-3.171-2.533 0-3 .389-3 2.5m145.01 2.25c.024 4.282 9.939 21.257 12.41 21.245 1.524-.008 8.674-10.154 10.74-15.24 3.218-7.922 3.447-7.755-10.66-7.755-11.242 0-12.499.176-12.49 1.75m-119.699 4c.783 6.304 3.533 15.25 4.689 15.25 1.136 0 3.736-8.527 4.61-15.118l.648-4.882H980.721l.59 4.75m293.662-3.082c-1.36.918-2.613 1.771-2.785 1.896-.384.279 9.659 20.465 11.023 22.156.76.943 1.88.764 4.914-.784l3.929-2.004-4.175-7.716c-9.302-17.186-8.602-16.452-12.906-13.548m-111.483.176c-.27.269-.49 3.789-.49 7.823V228h18v-7.421c0-7.288-.049-7.43-2.75-7.999-3.155-.663-14.027-.469-14.76.264m26.51 7.259V228h17.084l-.292-7.75-.292-7.75-8.25-.147-8.25-.147v7.897m36.338 4.574c-1.739 6.502-3.458 12.565-3.819 13.473-.777 1.953 5.984 4.747 7.594 3.137 1.122-1.122 8.365-26.142 7.747-26.76-.239-.24-2.218-.714-4.398-1.055l-3.962-.619-3.162 11.824M100.5 232.735a9797.085 9797.085 0 0 1-23.913 34.235c-6.002 8.542-13.842 19.805-17.423 25.03-3.58 5.225-7.782 11.14-9.337 13.144-1.555 2.004-2.827 3.917-2.827 4.25 0 .333 29.457.606 65.46.606h65.46l-32.263 40.25c-17.744 22.137-32.666 40.25-33.161 40.25-.494 0-7.895-9.939-16.447-22.087-8.552-12.147-18.253-25.872-21.558-30.5l-6.008-8.413-16.453-.276c-9.049-.151-17.058-.044-17.797.24-1.528.586-1.256 1.012 17.277 27.036 6.658 9.35 14.143 19.925 16.632 23.5a7896.024 7896.024 0 0 0 15.442 22.017c6.004 8.534 12.041 17.208 13.416 19.275 3.067 4.611 4.001 4.866 16.473 4.5l9.972-.292 22.528-28.16c12.39-15.489 23.796-29.664 25.348-31.5 1.551-1.837 8.076-9.969 14.5-18.071 6.423-8.102 11.904-14.725 12.179-14.719.275.007 4.188 5.286 8.695 11.731A9913.623 9913.623 0 0 0 225.115 371c17.107 24.257 20.452 29.027 29.279 41.75l8.499 12.25h-10.57l-6.736 8.5-6.736 8.5h-64.926c-40.506 0-64.925.359-64.925.954 0 .524 7.051 10.986 15.669 23.25 29.234 41.601 46.638 66.287 48.676 69.046l2.031 2.75 12.562-.067 12.562-.066 31.4-39.467c17.27-21.707 31.726-39.339 32.125-39.183.399.155 14.844 17.945 32.1 39.532l31.375 39.25 12.5-.034 12.5-.034 11-15.641c45.981-65.377 55.273-78.848 54.856-79.523-.261-.422-29.585-.797-65.165-.833l-64.691-.066-6.536-8.184c-6.456-8.083-6.601-8.19-11.752-8.684l-5.214-.5 5.948-8.5 15.251-21.802c28.022-40.065 39.167-55.87 41.634-59.045l1.824-2.347 14.81 18.347c8.145 10.091 24.98 31.059 37.41 46.597L404.476 426l11.512-.003 11.512-.004 7.835-11.463c8.626-12.619 34.654-49.645 49.299-70.131 5.151-7.206 9.366-13.618 9.366-14.25 0-.821-4.951-1.149-17.348-1.149h-17.348l-17.369 24.75c-22.148 31.56-25.955 36.75-26.961 36.75-.45 0-15.238-18-32.862-40l-32.042-40 64.965-.257c35.731-.142 64.965-.633 64.965-1.091 0-.459-8.179-12.493-18.175-26.743a16536.882 16536.882 0 0 1-32.081-45.909c-7.648-11-14.462-20.577-15.142-21.281-.992-1.029-4.378 3.215-17.155 21.5-8.756 12.529-18.648 26.606-21.982 31.281a21201.123 21201.123 0 0 0-16.972 23.858l-10.91 15.359-2.404-2.859a602.26 602.26 0 0 0-4.571-5.358c-1.192-1.375-6.653-8.125-12.137-15-5.483-6.875-10.469-13.03-11.078-13.679-.609-.648-10.281-12.686-21.492-26.75L275.516 218h-23.279l-29.868 37.1-35.222 43.75c-2.944 3.658-5.697 7.017-6.116 7.466-.42.449-2.496-1.576-4.614-4.5s-4.121-5.541-4.452-5.816c-.33-.275-7.062-9.725-14.96-21l-18.933-27.025A7285.7 7285.7 0 0 1 124 227.755c-5.225-7.533-9.725-13.702-10-13.711-.275-.008-6.35 8.403-13.5 18.691m937.508-15.019c-1.767 2.247-1.899 2.896-.762 3.75.756.569 3.499 2.787 6.095 4.93l4.72 3.895 2.47-2.32c3.235-3.039 3.356-2.748-3.416-8.221-6.912-5.586-6.402-5.472-9.107-2.034m-233.785 14.997.277 14.714 4.5-.12c2.475-.066 12.487-.162 22.25-.213L849 247v-8h-6.444c-9.627 0-11.539-1.988-12.277-12.766l-.565-8.234h-3.718c-3.708 0-3.719.012-4.301 4.932-.649 5.476-3.243 11.189-7.236 15.934-3.149 3.742-4.406 3.884-7.285.82-2.789-2.969-2.748-3.332.707-6.239 3.525-2.966 6.119-8.201 6.119-12.348 0-3.054-.073-3.099-5.027-3.099h-5.026l.276 14.713m34.49-14.092c-.87.869-.945 8.61-.106 10.797.44 1.147 1.965 1.582 5.548 1.582h4.94l-.297-6.25-.298-6.25-4.537-.296c-2.496-.163-4.858.025-5.25.417m33.067 8.539c-.213.638-.199 2.438.03 4l.417 2.84H925v-8h-26.417c-19.151 0-26.523.319-26.803 1.16m-7.59 23.59.31 3.75 33.75.263 33.75.264V247H863.879l.311 3.75M249 269.305a9096.758 9096.758 0 0 1-31.343 39.012c-9.264 11.457-16.648 21.026-16.409 21.264.239.239 28.647.318 63.129.177l62.696-.258-7.311-9c-4.021-4.95-18.26-22.613-31.642-39.25-13.381-16.637-24.395-30.222-24.475-30.188-.08.034-6.67 8.243-14.645 18.243M865 307v30h9v-60h-9v30m126-16.114v14.002l-4.567-2.021c-15.667-6.93-29.098 14.155-18.499 29.04 4.039 5.673 14.832 8.046 20.031 4.405 1.709-1.197 2.525-1.342 2.806-.5.224.673 2.271 1.188 4.727 1.188h4.331l-.165-29.75-.164-29.75-4.25-.307-4.25-.308v14.001M561 308v29h9l.045-18.25.044-18.25 19.268 19.75c10.598 10.863 19.578 19.75 19.956 19.75.378 0 .687-13.05.687-29v-29h-4.5c-4.229 0-4.503.165-4.554 2.75-.03 1.512-.045 9.37-.033 17.461.012 8.091-.323 14.924-.744 15.185-.422.26-9.07-8.266-19.218-18.948s-18.788-19.427-19.201-19.435c-.413-.007-.75 13.037-.75 28.987m480.45-25.593c-6.836 2.977-10.737 11.164-8.52 17.881 1.519 4.602 4.351 7.058 12.289 10.657 7.865 3.566 10.781 6.358 10.781 10.32 0 3.745-4.856 8.735-8.5 8.735-3.26 0-8.5-4.961-8.5-8.048 0-1.933-.382-2.126-3.125-1.577-1.719.344-3.803.625-4.631.625-2.304 0-.891 6.463 2.34 10.699 10.298 13.502 32.603 4.623 31.19-12.415-.605-7.291-2.924-10.04-12.473-14.784-12.306-6.113-13.86-8.342-8.666-12.427 3.544-2.789 7.195-2.611 10.451.509 2.608 2.499 2.795 2.531 5.805.975 10.078-5.212-7.572-15.885-18.441-11.15m129.544-.533c-7.538 2.473-15.541 9.713-18.46 16.699-9.552 22.86 11.787 45.792 35.332 37.971l5.134-1.705v-10.53l-5.75 2.927c-10.205 5.195-20.933 1.807-26-8.211-8.759-17.319 9.072-35.285 26.331-26.529 2.705 1.373 5.031 2.498 5.169 2.5.138.002.25-2.234.25-4.97 0-4.598-.245-5.101-3.242-6.651-3.612-1.868-14.894-2.77-18.764-1.501m92.807.651c-5.922 1.898-14.117 9.695-17.033 16.207-8.534 19.053 6.562 40.418 27.593 39.054 10.703-.695 13.639-2.58 13.639-8.758v-4.921l-5.602 2.946c-13.662 7.188-28.354-1.649-28.354-17.053 0-15.114 13.997-23.918 27.805-17.49 2.942 1.369 5.53 2.49 5.75 2.49.221 0 .401-2.238.401-4.974 0-4.598-.245-5.101-3.242-6.651-4.434-2.293-15.105-2.726-20.957-.85M739 286.467v4.467l10.915.283 10.914.283-12.872 22.5-12.872 22.5 19.178.272c22.138.315 21.971.346 21.551-4.015l-.314-3.257-12.711-.5-12.71-.5 12.585-21.994c6.923-12.097 12.803-22.559 13.068-23.25.376-.98-3.603-1.256-18.125-1.256H739v4.467m351 23.033V337h31v-8h-22v-17h21v-9h-21v-12h22v-9h-31v27.5m285-13.5c0 4.667-.333 6-1.5 6-1.111 0-1.5 1.167-1.5 4.5s.389 4.5 1.5 4.5c1.256 0 1.5 2.111 1.5 13v13h9V311.133l2.75-.317c2.489-.286 2.75-.696 2.75-4.316s-.261-4.03-2.75-4.316c-2.655-.306-2.75-.521-2.75-6.25V290h-9v6m-696.944 14.759-4.444 10.741-4.474-9.75-4.475-9.75h-4.331c-5.612 0-5.771-.715 4.537 20.447l8.742 17.948 4.377-10.251c2.407-5.639 4.661-10.427 5.008-10.642.347-.214 2.357 3.748 4.466 8.804 2.109 5.057 4.186 9.59 4.616 10.074.832.936 17.922-32.314 17.922-34.869 0-1.113-1.128-1.511-4.282-1.511h-4.282l-3.936 9c-2.165 4.95-4.239 9-4.608 9-.37 0-2.571-4.5-4.892-10s-4.508-9.996-4.86-9.991c-.352.005-2.64 4.842-5.084 10.75m-46.142-8.803c-17.16 5.2-15.693 33.386 1.859 35.74 6.357.853 10.964-.464 15.287-4.369 4.757-4.297 4.858-5.297.776-7.621l-3.151-1.793-3.14 3.043c-4.186 4.057-9.467 4.23-12.472.409-3.915-4.976-3.196-5.365 9.927-5.365h12v-3.351c0-12.093-10.04-20.041-21.086-16.693m160.401.095c-9.716 2.967-14.32 16.644-9.065 26.929 5.694 11.143 21.593 12.47 29.243 2.441l2.592-3.399-3.293-2.007c-4.174-2.546-4.005-2.571-6.634.985-4.255 5.756-15.158 2.555-15.158-4.45 0-.303 5.373-.55 11.941-.55 13.48 0 13.101.198 12.098-6.312-1.637-10.63-11.433-16.78-21.724-13.637m40.599-.119c-17.841 5.57-14.642 36.068 3.784 36.068 2.421 0 5.729-.687 7.352-1.526 1.691-.874 2.95-1.088 2.95-.5 0 .564 2.025 1.026 4.5 1.026h4.5v-35h-4.031c-2.615 0-4.229.514-4.593 1.462-.487 1.269-.879 1.254-2.959-.108-2.892-1.895-7.975-2.524-11.503-1.422m58.048 1.318c-10.207 5.147-12.622 20.729-4.587 29.595 4.672 5.156 12.228 6.653 18.105 3.589 1.923-1.003 3.105-1.178 3.333-.494.195.583 2.352 1.06 4.794 1.06h4.44l-.273-17.25-.274-17.25-3.758-.311c-2.646-.219-3.93.137-4.339 1.204-.504 1.312-1.07 1.254-4.228-.439-4.725-2.533-7.737-2.465-13.213.296m47.843-.444c-3.079 1.602-3.786 1.685-4.242.497-.372-.968-1.751-1.325-4.305-1.114l-3.758.311-.274 17.25-.273 17.25H935l.011-8.75c.02-15.634 2.066-20.273 8.258-18.719 3.724.935 4.731 4.449 4.731 16.516V337h9l-.077-11.75c-.042-6.462-.606-13.502-1.252-15.644-2.177-7.213-10.007-10.37-16.866-6.8m365.215.444c-6.473 3.308-8.384 6.503-8.853 14.8-.46 8.15.628 11.389 5.368 15.984 6.218 6.027 18.406 5.214 24.415-1.63 3.819-4.35 3.803-4.674-.332-6.646-3.337-1.592-3.42-1.574-6.187 1.314-3.615 3.774-9.033 4.045-12.257.614-4.656-4.957-3.379-5.686 9.962-5.686h12.136l-.645-4.707c-1.328-9.69-7.864-16.293-16.127-16.293-1.692 0-5.058 1.012-7.48 2.25m43.73-.416c-2.937 1.527-3.75 1.648-3.75.558 0-.957-1.249-1.392-4-1.392h-4v35h8l.006-9.25c.009-15.567 2.887-20.825 9.631-17.597l2.863 1.371.28 12.738.28 12.738h8.94l-.056-12.25c-.032-6.764-.591-13.775-1.25-15.656-2.388-6.813-10.278-9.728-16.944-6.26m58.391-.262c-1.765 1.267-2.546 1.391-3.102.492-.434-.704-2.359-1.07-4.641-.883l-3.898.319-.186 17.25-.186 17.25h8.656l.362-11.399c.433-13.633 1.733-16.135 7.847-15.102 3.342.564 3.7.368 5.243-2.869 1.387-2.908 1.436-3.657.3-4.6-2.459-2.041-7.86-2.279-10.395-.458m24.078-.316c-13.302 4.262-14.74 27.356-2.106 33.802 7.397 3.773 17.118 2.021 22.184-3.999 3.382-4.019 3.371-4.172-.461-6.353l-3.151-1.793-3.14 3.043c-4.186 4.057-9.467 4.23-12.472.409-3.915-4.976-3.196-5.365 9.927-5.365h12v-3.788c0-11.798-11.225-19.66-22.781-15.956m-797.512 8.76C628.579 314.263 629.374 315 637 315c7.26 0 8.216-.595 5.25-3.267-3.096-2.79-6.575-3.052-9.543-.717M796 309.784c-1.947.619-5 3.288-5 4.371 0 .465 3.15.845 7 .845s6.993-.337 6.985-.75c-.055-2.685-5.722-5.502-8.985-4.466m40.27-.081c-6.2 1.198-8.712 12.946-3.815 17.842 7.456 7.457 18.811-2.246 14.581-12.458-.988-2.386-6.694-6.534-8.187-5.951-.192.075-1.353.33-2.579.567m60.73-.018c-10.148 3.851-8.122 20.315 2.5 20.315 10.913 0 12.248-18.129 1.5-20.364-1.375-.286-3.175-.264-4 .049m81.476.735c-9.141 3.909-6.211 19.58 3.661 19.58 5.679 0 8.863-3.624 8.863-10.09 0-7.913-5.849-12.345-12.524-9.49m329.393.115c-5.637 3.008-4.43 4.465 3.698 4.465 7.122 0 7.45-.099 6.463-1.944-1.824-3.408-6.382-4.538-10.161-2.521m125.381-.036c-5.691 2.459-4.216 4.501 3.25 4.501 4.854 0 6.5-.349 6.5-1.378 0-3.338-5.314-5.04-9.75-3.123m-359.679 19.072c-1.865 1.865-2.054 5.546-.371 7.229 1.909 1.909 5.55 1.395 7.243-1.023 2.004-2.86 1.965-3.369-.443-5.777s-4.322-2.535-6.429-.429m58.629-.371c-2.998 2.998-.738 8.8 3.429 8.8 2.711 0 5.371-2.476 5.371-5 0-4.049-5.972-6.628-8.8-3.8m71.85.24c-1.583 1.907-.958 6.603 1.045 7.856 4.413 2.762 9.479-2.486 6.955-7.203-1.319-2.464-6.168-2.86-8-.653m-626.936 34.984c-5.004 13.375-5.525 36.685-1.127 50.423 2.558 7.989 3.621 8.972 7.82 7.233l2.77-1.148-2.732-8.216c-3.88-11.668-4.035-29.385-.36-41.216 1.367-4.4 2.492-8.518 2.5-9.152.011-.881-4.825-3.348-6.562-3.348-.154 0-1.192 2.441-2.309 5.424M1428 360.268c-1.375.619-2.635 1.209-2.8 1.312-.165.103.645 2.993 1.801 6.423 4.74 14.071 4.724 33.293-.039 46.845-2.131 6.064-1.878 6.819 2.591 7.713 8.777 1.755 12.332-36.805 5.217-56.594-2.477-6.891-3.05-7.373-6.77-5.699m-503 11.181v11.449l-3.702-1.547c-12.262-5.123-23.108 8.085-17.713 21.569 2.672 6.679 10.472 10.084 17.529 7.653 2.348-.809 4.116-.943 4.702-.357.517.517 2.233.793 3.812.612l2.872-.328.267-25.25.267-25.25H925v11.449m378 14.051V411h7v-51h-7v25.5m-698.458-21.771c-11.306 2.872-12.726 17.724-2.16 22.601l7.193 3.319c4.464 2.06 6.848 5.528 6.034 8.774-1.946 7.751-11.699 7.559-14.091-.278-.611-1.998-1.177-2.263-3.744-1.75-1.663.333-3.418.605-3.899.605-2.705 0 1.584 9.667 5.285 11.91 6.665 4.041 16.016 2.932 20.751-2.461 7.675-8.742 4.247-18.637-8.45-24.394-7.95-3.605-9.519-6.088-6.045-9.562 3.041-3.041 5.902-3.175 8.671-.406 4.057 4.057 10.104-.008 6.287-4.227-3.834-4.236-9.548-5.727-15.832-4.131m569.053.744c-5.796 3.131-7.427 9.993-3.796 15.972l1.789 2.946-4.794 4.621c-13.357 12.874 3.578 30.949 19.268 20.566l4.308-2.851 2.103 2.636c1.673 2.099 2.961 2.637 6.315 2.637 5.122 0 5.251-1.038.721-5.817-4.001-4.221-4.333-6.128-1.509-8.683 2.527-2.287 2.523-3.717-.017-6.016-1.965-1.778-2.091-1.755-4.847.886l-2.829 2.71-3.744-4.569-3.744-4.568 3.591-3.975c8.524-9.436-1.647-22.528-12.815-16.495m69.399-.591c-11.37 3.696-17.423 11.881-17.468 23.618-.058 15.605 13.84 26.892 28.946 23.506 7.498-1.68 8.528-2.53 8.528-7.041 0-4.514-.65-4.759-5.226-1.969-16.284 9.928-33.34-13.411-19.534-26.729 6.078-5.862 11.668-6.664 19.341-2.771 2.705 1.373 5.057 2.498 5.226 2.5.17.002.17-1.905 0-4.239-.259-3.584-.772-4.467-3.307-5.69-3.496-1.688-12.886-2.362-16.506-1.185M870 387.529v23.529l13.25-.279 13.25-.279v-7l-9.25-.288-9.25-.287V389h18v-7h-18v-10.925l9.25-.287 9.25-.288.163-3.25.163-3.25H870v23.529m-210.333-21.862c-1.507 1.506-.615 6.291 1.371 7.353 4.314 2.309 9.011-2.847 5.951-6.533-1.248-1.504-6.095-2.047-7.322-.82m397.344.82c-1.632 1.966-.501 6.223 1.85 6.969 4.185 1.328 8.101-2.79 6.139-6.456-1.284-2.398-6.164-2.712-7.989-.513m-16.344 4.18c-.367.366-.667 2.841-.667 5.5 0 2.658-.45 4.833-1 4.833s-1 1.575-1 3.5.435 3.5.967 3.5c.549 0 1.09 4.866 1.25 11.25l.283 11.25 3.75.31 3.75.311V388h2.5c2.19 0 2.5-.433 2.5-3.5s-.31-3.5-2.5-3.5c-2.364 0-2.5-.3-2.5-5.5V370h-3.333c-1.834 0-3.634.3-4 .667m134.674.886c-.786 2.049.713 6.636 2.347 7.178 1.878.623 5.469-3.612 5.123-6.042-.405-2.852-6.458-3.772-7.47-1.136m143.326-.886c-.367.366-.667 2.841-.667 5.5 0 2.658-.45 4.833-1 4.833s-1 1.575-1 3.5.435 3.5.967 3.5c.549 0 1.09 4.866 1.25 11.25l.283 11.25 3.75.31 3.75.311V388h2.5c2.19 0 2.5-.433 2.5-3.5s-.31-3.5-2.5-3.5c-2.364 0-2.5-.3-2.5-5.5V370h-3.333c-1.834 0-3.634.3-4 .667m-679.048 10.316c-18.545 5.886-10.471 34.444 8.513 30.11 5.305-1.211 5.868-1.801 5.868-6.152 0-4.577.052-4.553-4.226-1.945-6.815 4.155-12.774.713-12.774-7.378 0-7.522 7.42-11.222 13.273-6.618 1.398 1.1 2.809 2 3.135 2 1.301 0 .512-7.822-.909-9-1.944-1.614-9.196-2.187-12.88-1.017m41.637.662c-8.46 4.171-10.459 18.879-3.509 25.829 5.585 5.585 15.893 5.264 21.433-.667 3.536-3.785 3.519-4.275-.197-5.814-2.77-1.147-3.215-1.035-5.452 1.379-3.074 3.317-6.868 3.382-10.076.173-4.084-4.083-3.254-4.545 8.175-4.545h10.63l-.52-4.614c-1.173-10.405-11.355-16.241-20.484-11.741m37.494-.253c-1.513.819-2.75 1.066-2.75.549 0-.518-1.575-.941-3.5-.941H709v30h7l.015-9.25c.017-10.565 1.264-14.102 5.132-14.554 4.814-.563 5.853 1.821 5.853 13.436v10.489l3.75-.311 3.75-.31.311-9.5c.34-10.372-.742-15.723-3.725-18.422-2.67-2.417-8.948-3.02-12.336-1.186m33.464-.682c-3.793.727-9.947 7.348-10.735 11.549-2.004 10.683 4.676 18.91 15.45 19.027 7.769.085 9.071-.756 9.071-5.853 0-4.789-.454-5.237-2.987-2.945-6.972 6.31-17.327-2.396-12.85-10.804 2.648-4.971 7.761-6.105 12.11-2.684 3.5 2.753 3.727 2.607 3.727-2.402 0-5.777-4.449-7.677-13.786-5.888m26.286 1.175c-9.192 4.232-10.705 19.19-2.675 26.456 5.014 4.538 15.354 3.942 20.477-1.181 5.298-5.299-.294-9.852-5.815-4.735-3.332 3.087-6.767 3.295-9.487.575-4.167-4.167-2.835-5 8-5h10l-.004-4.25c-.009-10.788-10.121-16.641-20.496-11.865m30.695.605c-6.23 5.242-4.124 11.366 5.762 16.761 3.379 1.844 3.58 3.4.671 5.178-1.398.854-2.136.604-3.642-1.23-1.808-2.202-2.02-2.233-4.954-.715-2.438 1.26-2.877 1.938-2.141 3.312 5.206 9.728 20.309 6.531 20.309-4.3 0-4.412-1.292-6.002-7.387-9.091-2.647-1.341-4.813-3.106-4.813-3.922 0-1.773 2.134-1.949 3.773-.31 1.474 1.474 6.227-.432 6.227-2.497 0-4.954-9.185-7.074-13.805-3.186m175.305-1.823c-17.12 4.594-14.021 30.475 3.672 30.665 7.489.08 9.828-1.421 9.828-6.308 0-2.148-.45-4.184-1-4.524-.55-.34-1-.153-1 .415 0 3.78-9.201 4.975-12.545 1.63-7.772-7.771 2.233-20.298 10.818-13.545 1.398 1.1 2.809 2 3.135 2 1.301 0 .512-7.822-.909-9-1.655-1.374-8.862-2.175-11.999-1.333m25.509 1.188c-15.478 8.301-5.382 35.341 10.689 28.627 2.429-1.015 3.895-1.203 4.12-.529.192.576 1.886 1.047 3.765 1.047H1032v-30h-3.417c-1.879 0-3.575.477-3.77 1.06-.228.684-1.41.509-3.333-.494-3.938-2.053-7.259-1.969-11.471.289m71.61-.821c-6.692 2.004-11.076 8.856-10.37 16.206 1.923 20.014 31.751 18.273 31.751-1.853 0-10.608-10.453-17.625-21.381-14.353m38.131.413c-1.513.789-2.75 1.011-2.75.494 0-1.497-6.723-1.106-7.31.425-.288.751-.449 7.388-.357 14.75l.167 13.384 3.635.303 3.634.304.386-10.425c.424-11.456 1.375-13.682 5.845-13.682 4.205 0 4.902 1.746 5.213 13.058l.287 10.442h7l.288-9.254c.547-17.618-5.621-25.233-16.038-19.799m259.438-.584c-.721.457-3.546.617-6.277.354l-4.966-.477.278 14.88.277 14.88 3.75.31 3.75.311v-9.626c0-12.146 2.037-16.151 6.893-13.552 2.838 1.518 6.186-4.68 3.564-6.598-2.07-1.514-5.304-1.729-7.269-.482m19.778-.043c-17.528 7.769-9.205 34.389 9.443 30.199 5.051-1.135 11.866-7.569 9.591-9.056-3.453-2.257-5.741-2.131-8.332.459-3.086 3.087-6.929 3.317-9.668.578-4.097-4.097-2.816-4.907 8.25-5.215 11.853-.33 12.513-1.011 8.899-9.182-2.929-6.621-12.022-10.513-18.183-7.783m-739.743 14.93.277 14.75 3.75.31 3.75.311V381h-8.053l.276 14.75m281.715-13.5c-.35 7.051.397 21.39 1.206 23.166 2.338 5.133 11.004 7.425 17.653 4.669 5.083-2.107 6.203-5.363 6.203-18.035V381h-7v10.477c0 10.016-.108 10.548-2.451 12.083-5.887 3.857-8.549-.385-8.549-13.625V381h-3.5c-2.1 0-3.525.5-3.562 1.25M1057 396.06v15.061l3.75-.311 3.75-.31.277-14.75.276-14.75H1057v15.06m212-5.028c0 16.822 3.243 20.812 16.35 20.119 1.771-.094 4.137-1.438 6.25-3.551l3.4-3.4V381h-8v10.429c0 10.963-.945 13.571-4.916 13.571-3.949 0-5.084-3.088-5.084-13.829V381h-8v10.032m66.015.718c.02 14.903 2.996 19.583 12.451 19.583 10.042 0 12.638-3.707 13.313-19.011l.5-11.322H1353v10.345c0 11.971-1.516 14.915-6.737 13.078-3.354-1.179-4.037-3.587-4.163-14.673l-.1-8.75h-7l.015 10.75m-651.36-2.921c-2.561 2.83-2.094 3.171 4.345 3.171 6.336 0 7.148-.651 4.171-3.345-2.415-2.186-6.455-2.103-8.516.174m97.568-.272C777.618 391.082 778.625 392 785 392c6.336 0 7.148-.651 4.171-3.345-2.292-2.074-5.078-2.109-7.948-.098m131.11 1.019c-2.237 2.237-2.507 3.186-2.054 7.211C911.581 408.336 925 407.364 925 395.72c0-7.963-7.305-11.506-12.667-6.144m99.74.059c-2.96 3.762-2.783 9.746.382 12.91 5.118 5.119 12.545 1.244 12.545-6.545 0-7.964-8.412-12.106-12.927-6.365m69.382-.18c-4.145 4.144-3.295 11.542 1.617 14.082 4.043 2.091 6.665 1.817 9.473-.992 5.364-5.363 1.732-15.545-5.545-15.545-1.948 0-3.998.907-5.545 2.455m319.295-1.375c-3.707 2.159-2.022 3.92 3.75 3.92 5.85 0 6.606-.689 3.671-3.345-2.064-1.868-4.833-2.082-7.421-.575m-228.113 4.226c-4.444 4.191-4.584 6.719-.56 10.105 3.568 3.002 4.077 3.078 7.795 1.155 5.941-3.072 5.539-5.042-2.828-13.879-.423-.446-2.406.732-4.407 2.619M834.09 404.25c-.473 1.238-2.04 5.147-3.481 8.687-2.018 4.956-2.332 6.621-1.365 7.235 2.918 1.852 4.435.589 8.037-6.689 4.333-8.758 4.507-10.039 1.469-10.853-3.417-.915-3.732-.806-4.66 1.62M185.288 554.307c.276.719 5.161 7.826 10.857 15.792 10.203 14.272 16.95 23.847 39.037 55.401 6.16 8.8 15.128 21.531 19.929 28.291l8.728 12.29 9.732-13.79a12630.51 12630.51 0 0 0 19.33-27.488c29.015-41.404 43.931-62.486 47.349-66.922 1.512-1.964 2.75-3.875 2.75-4.248 0-.373-8.173-.555-18.162-.406l-18.163.273-21.087 30.2c-11.599 16.611-21.32 30.223-21.603 30.25-.283.028-10.161-13.675-21.952-30.45L220.595 553H202.69c-14.331 0-17.804.261-17.402 1.307" fill-rule="evenodd"/><path fill="#d31e26" stroke="#d31e26" d="M253.383 18.018A15011.215 15011.215 0 0 0 234.5 45.024c-4.95 7.101-15.215 21.748-22.812 32.548-7.596 10.801-13.63 19.819-13.409 20.04.221.222 29.94.287 66.041.145l65.639-.257-14.23-20.208c-20.839-29.595-35.268-50.216-43.525-62.202-4.012-5.824-7.665-10.72-8.117-10.879-.452-.159-5.269 6.054-10.704 13.807M179.389 119.75c-3.719 5.362-7.045 9.975-7.393 10.25-.347.275-5.531 7.475-11.52 16l-25.294 36-14.406 20.5 33.112.263c18.212.145 47.915.145 66.008 0l32.897-.263-15.454-21.988c-19.568-27.841-30.027-42.636-38.182-54.012-3.549-4.95-7.623-10.67-9.054-12.712-1.432-2.042-2.907-3.729-3.278-3.75-.372-.021-3.718 4.35-7.436 9.712m140.062 17.796a135513.6 135513.6 0 0 1-31.745 46.122c-7.037 10.218-12.621 18.751-12.409 18.962.211.211 29.909.269 65.995.127l65.611-.257-5.796-8c-3.188-4.4-13.981-19.25-23.985-33a19622.557 19622.557 0 0 1-27.762-38.25c-5.266-7.287-9.885-13.25-10.266-13.25-.381 0-9.221 12.395-19.643 27.546M734.35 195c.399 1.997.191 3.046-.625 3.138-1.891.213-6.976.612-9.475.744-4.155.218-3.017 4.883 1.393 5.711 3.417.641 3.511.754 1.509 1.826l-2.135 1.142 2.49 3.665 2.491 3.665-4.749.304c-4.349.279-4.776.537-5.065 3.055l-.317 2.75H735v7h-13.133l.317 2.75c.307 2.675.488 2.75 6.602 2.75h6.286l-.286 8.5-.286 8.5-3.75.31c-7.256.601-4.417 6.735 2.936 6.344 7.214-.383 8.314-2.205 8.314-13.765V234l5-.125c7.507-.188 7.477-.176 7.812-3.076.306-2.655.206-2.705-6-3l-6.312-.299-.313-3.25-.314-3.25H756v-3c0-2.892-.163-3-4.536-3h-4.536l2.558-3.75 2.558-3.75-2.772-1.164-2.772-1.165 4-.335c3.521-.296 4.038-.665 4.316-3.086.2-1.731-.171-2.79-1-2.858-.724-.06-3.341-.173-5.816-.25-4.061-.128-4.64-.459-5.93-3.392-2.097-4.764-8.665-4.977-7.72-.25m145.333-1.393c-1.891 1.025-2.527 1.916-1.935 2.71.485.651 2.353 3.095 4.151 5.433l3.269 4.25H867v7h62V206.075l-9.019-.287-9.019-.288 4.019-4.859c4.846-5.858 4.848-5.882.769-7.458-3.048-1.177-3.374-1.087-5.25 1.444-8.889 11.994-7.284 10.845-15.546 11.131-7.352.254-7.422.232-5.147-1.548l2.307-1.805-4.142-5.202c-4.62-5.804-4.396-5.706-8.289-3.596m69.124 2.643c-.306 4.24-.316 4.25-4.307 4.25-3.62 0-4.03.261-4.316 2.75-.305 2.645-.142 2.75 4.25 2.75 4.552 0 4.566.011 4.566 3.5v3.5h-6c-5.994 0-6 .003-6 2.987v2.987l6.931-.389c3.812-.214 7.191-.129 7.509.188 1.214 1.215-3.864 5.227-6.614 5.227-2.159 0-2.826.472-2.826 2 0 1.1-.337 2.01-.75 2.022-2.833.084-5.419 3.735-4.12 5.815 1.782 2.854 2.287 2.769 8.003-1.337 3.97-2.852 5.75-3.492 9.619-3.458l4.748.041-3.574 3.209c-1.965 1.764-3.842 3.939-4.17 4.833-.428 1.164-2.462 1.825-7.166 2.328-7.072.758-8.082 1.423-7.058 4.648.615 1.939 1.137 2.035 7.565 1.389l6.903-.693v2.995c0 3.339-1.359 4.208-6.582 4.208-3.466 0-4.115 1.02-2.811 4.418.717 1.868 6.503 2.137 11.149.517 3.306-1.152 4.991-4.22 5.458-9.935.281-3.436.38-3.509 5.475-4.022 6.134-.617 6.754-1.078 5.919-4.404-.659-2.626-1.033-2.666-9.358-.989-3.34.673-2.741-.855 1.75-4.465 6.278-5.045 5.832-9.12-1-9.12-2.75 0-5-.38-5-.845 0-1.893 4.15-4.411 7.221-4.382 5.86.057 5.953.093 4.916 1.946-.662 1.184-.514 2.584.476 4.5 1.785 3.451 2.67 3.49 4.432.198 1.372-2.566 1.397-2.539 3.551 3.845 1.193 3.536 2.667 7.361 3.277 8.5 1.167 2.182-4.977 8.824-12.005 12.975-3.373 1.993-3.381 2.037-.93 5.227 2.331 3.033 4.146 2.279 12.552-5.213l5.541-4.938 6.041 5.593c6.952 6.436 7.861 6.67 10.243 2.637 1.737-2.939 1.731-2.966-1.034-4.677-1.53-.946-4.647-3.488-6.927-5.649l-4.146-3.929 2.531-5.528c1.392-3.041 3.219-9.743 4.061-14.894 1.423-8.71 1.694-9.366 3.865-9.366 1.928 0 2.335-.523 2.335-3v-3l-7.75-.115c-4.263-.063-8.581-.028-9.597.079-1.6.169-1.742-.251-1.067-3.135 1.583-6.753 1.198-8.301-2.142-8.628-3.02-.295-3.076-.213-4.814 7-2.24 9.293-7.416 20.648-7.544 16.549-.054-1.74-.637-2.75-1.586-2.75-2.083 0-1.957-.401 1.956-6.211 3.185-4.729 3.323-5.234 1.75-6.429-2.595-1.972-3.605-1.647-5.652 1.818-1.746 2.955-1.931 3.035-2.632 1.14-.877-2.371-2.983-3.384-5.877-2.827-1.812.349-2.045-.111-2.045-4.048 0-4.397-.036-4.443-3.443-4.443-3.335 0-3.452.133-3.75 4.25M1058 212.886v20.887l-4.25.571c-2.338.313-7.737.867-12 1.231l-7.75.66v7.04l8.75-.675c4.813-.371 10.213-.933 12-1.249l3.25-.574V258h8v-18h4.5c4.476 0 4.5-.019 4.5-3.5s-.024-3.5-4.5-3.5h-4.5v-41h-8v20.886m51.227-20.073c-1.018.666-.968 1.563.25 4.478 2.44 5.839 2.759 5.709-13.977 5.709H1080v7h11.858l1.537 5.287c1.934 6.653 5.691 13.761 10.149 19.201 1.901 2.32 3.456 4.503 3.456 4.851 0 1.001-10.873 6.172-18 8.559a1699.199 1699.199 0 0 0-7.791 2.624c-.948.328-.684 1.315.996 3.713 1.259 1.796 2.345 3.395 2.415 3.555.274.627 16.237-6.122 22.263-9.413l6.383-3.485 6.617 3.445c6.08 3.166 20.09 8.663 22.078 8.663.464 0 1.751-1.434 2.86-3.187l2.018-3.186-8.17-2.647c-8.865-2.873-18.669-7.516-18.669-8.842 0-.455.922-1.662 2.048-2.682 3.246-2.937 8.552-12.354 11.103-19.706l2.342-6.75H1147v-7h-26.86l-1.952-5.25c-2.002-5.386-5.409-7.263-8.961-4.937M1181 198.5v6.5h-26v34h4c3.143 0 4-.375 3.999-1.75-.001-1.796-.309-1.772 16.751-1.286.925.027 1.25 3.022 1.25 11.536V259h8v-23l5.75-.077c3.162-.042 7.213-.155 9-.25 2.495-.133 3.25.234 3.25 1.577 0 1.375.857 1.75 4 1.75h4v-34h-26v-13h-8v6.5m69.243-4.25-2.105 2.25 7.181 7.759c8.137 8.792 7.947 8.706 11.136 4.999l2.359-2.743-7.657-7.253c-8.72-8.261-8.128-7.989-10.914-5.012m-230.067 1.082c-10.78.945-11.297 1.093-10.764 3.08.308 1.148.567 2.71.574 3.47.011 1.033 1.022 1.246 4.014.845l4-.537V212H1007.873l.314 3.25c.301 3.124.478 3.247 4.563 3.164 3.254-.066 4.248.285 4.24 1.5-.012 2.047-4.37 11.406-7.087 15.223-1.599 2.245-1.953 3.784-1.467 6.376 1.005 5.356 2.058 4.95 5.914-2.279l3.592-6.734.029 12.75L1018 258h8v-27.374l2.983 2.857c2.907 2.786 3.034 2.812 5 1.033 1.109-1.004 1.985-2.319 1.945-2.921-.1-1.506-6.756-6.928-8.506-6.928-2.401 0-1.838-5.641.578-5.792 1.1-.069 3.013-.181 4.25-.25 1.775-.099 2.316-.811 2.563-3.375.313-3.238.296-3.25-4.25-3.25H1026v-4.883c0-5.179.984-6.068 6.75-6.103 1.237-.008 2.244-.576 2.236-1.264-.03-2.764-1.285-5.74-2.353-5.581-.623.094-6.229.617-12.457 1.163M773 195.659c-1.925.187-5.862.597-8.75.912l-5.25.573-.008 17.178c-.008 19.475-1.077 27.929-4.413 34.9l-2.316 4.839 2.486 1.956c3.033 2.386 3.496 2.135 5.997-3.254 2.504-5.395 3.976-12.164 4.787-22.013l.638-7.75h7.782l.273 17.25.274 17.25h6l.274-17.25.273-17.25h3.477c3.306 0 3.476-.171 3.476-3.5V216h-22.585l.126-6c.156-7.428-.784-6.741 11.016-8.057 11.471-1.279 10.729-.954 9.883-4.325-.692-2.759-2.486-3.021-13.44-1.959m20 2.841v3.5h22v9h-18v47h3.5c2.833 0 3.5-.381 3.5-2 0-1.941.667-2 22.5-2s22.5.059 22.5 2c0 1.619.667 2 3.5 2h3.5v-47h-18v-9h20.767l.524-2.744c.289-1.51.315-3.085.058-3.5-.257-.416-15.29-.756-33.408-.756H793v3.5m249.071 1.655c-2.71 2.908-2.847 2.623 3.846 8.058l5.803 4.714 2.327-2.477c1.371-1.46 1.942-2.805 1.39-3.277-.515-.44-3.268-2.699-6.116-5.021l-5.18-4.22-2.07 2.223M822 206.5v4.5h9v-9h-9v4.5m-85.252-1.7-5.752.3 2.46 3.62c2.288 3.368 2.341 3.711.752 4.919-1.498 1.138-1.253 1.301 2 1.329 3.329.029 3.967-.411 6.25-4.306 3.664-6.252 3.573-6.346-5.71-5.862M956 209.5c0 4.383 2.058 4.631 4.932.596 2.742-3.851 2.656-4.096-1.432-4.096-3.333 0-3.5.167-3.5 3.5m285 18.944c0 27.613-.414 26.888 15.616 27.403 17.393.559 20.603-1.353 21.983-13.091.63-5.358.602-5.43-2.513-6.721-3.868-1.601-3.975-1.497-4.971 4.799-1.2 7.593-2.009 8.166-11.537 8.166-5.027 0-8.64-.462-9.378-1.2-.853-.853-1.2-6.933-1.2-21V207h-8v21.444M980.894 211.75c-.35 5.787 3.268 20.25 5.066 20.25 1.807 0 6.674-20.033 5.22-21.487-1.493-1.492-10.184-.447-10.286 1.237m119.106-.366c0 2.601 7.873 17.12 10.809 19.933l2.929 2.807 3.659-4.275c3.722-4.348 7.809-12.124 8.989-17.099l.652-2.75h-13.519c-10.848 0-13.519.274-13.519 1.384m175.75 1.405c-1.513.921-2.75 1.995-2.75 2.387 0 1.033 11.086 21.824 11.636 21.824.825 0 6.364-3.038 6.364-3.49 0-.623-11.045-20.866-11.841-21.702-.362-.381-1.896.061-3.409.981M1163 220v8h18v-16h-18v8m26 0v8h18v-16h-18v8m37.616 5.993c-2.127 7.198-3.699 13.228-3.492 13.399.207.171 1.805.793 3.552 1.382l3.176 1.071 1.989-6.673c6.054-20.306 6.061-20.438 1.152-21.649-2.449-.604-2.599-.31-6.377 12.47M109.267 221.25c-2.286 3.438-16.948 24.475-32.582 46.75l-28.426 40.5 65.488.5 65.489.5-13.403 16.5c-7.371 9.075-22.313 27.637-33.205 41.25-10.891 13.613-19.954 24.75-20.139 24.75-.185 0-10.159-13.95-22.163-30.999L68.5 330.002l-17.365-.001L33.77 330l1.797 2.75c.988 1.512 10.842 15.575 21.897 31.25 11.056 15.675 25.193 35.813 31.416 44.75L100.196 425l11.652-.071 11.652-.07 25.211-31.68c33.944-42.652 43.175-54.086 46.759-57.922l3.03-3.243 8.592 12.243c4.726 6.734 16.824 23.943 26.885 38.243s20.707 29.434 23.658 33.631c6.682 9.505 6.683 9.869.026 9.869h-5.338l-6.736 8.5-6.736 8.5h-64.426c-35.434 0-64.425.342-64.425.76s3.799 6.155 8.442 12.75c4.643 6.594 11.758 16.715 15.811 22.49 29.158 41.542 34.493 49.085 38.02 53.75l3.97 5.25h23.331l31.963-39.991c17.58-21.995 32.188-39.956 32.463-39.914.275.043 14.797 18.039 32.271 39.991L328.042 538l11.729-.036 11.729-.035 5.201-7.215c4.291-5.953 27.241-38.376 41.913-59.214l11.453-16.261c4.363-6.194 7.933-11.481 7.933-11.75 0-.269-29.137-.509-64.75-.534l-64.75-.045-6.5-8.41-6.5-8.41-5.75-.045c-3.163-.025-5.75-.294-5.75-.598 0-.627 3.831-6.177 29.989-43.447 24.718-35.219 35.184-50 35.404-50 .1 0 4.301 5.063 9.335 11.25 26.941 33.113 34.181 42.082 49.269 61.031L404.495 425l11.502-.012 11.503-.012 3.911-5.738c2.15-3.156 6.925-10.013 10.609-15.238 3.685-5.225 16.5-23.45 28.479-40.5 11.978-17.05 22.221-31.562 22.762-32.25.779-.99-2.667-1.25-16.559-1.25h-17.543l-21.83 30.986c-12.006 17.043-22.054 30.969-22.329 30.947-.275-.022-11.075-13.324-24-29.56-12.925-16.237-27.655-34.55-32.733-40.697-5.078-6.147-9.241-11.513-9.25-11.926-.009-.413 29.233-.75 64.983-.75s65-.233 65-.517c0-.41-32.13-46.577-60.771-87.32-2.45-3.486-4.812-5.961-5.25-5.5-.437.46-7.498 10.512-15.691 22.337-8.193 11.825-20.461 29.375-27.263 39a41201.673 41201.673 0 0 0-16.759 23.73c-2.416 3.427-4.761 6.458-5.211 6.736-.982.607-34.225-39.999-70.584-86.216l-2.556-3.25-11.208.063-11.207.063-29.314 36.687c-34.357 42.999-42.169 52.603-43.043 52.922-.835.304-34.606-47.15-58.331-81.965-4.022-5.902-7.554-10.739-7.85-10.75-.296-.011-2.408 2.793-4.695 6.23m929.203-3.217c-1.809 1.999-1.756 2.109 3.095 6.455 5.569 4.991 6.449 5.259 8.78 2.683 2.279-2.518 2.289-2.496-3.476-7.086-5.938-4.728-5.97-4.736-8.399-2.052M804 233v15h45v-10h-7c-9.778 0-11-1.333-11-12v-8h-8.773l-.709 4.727c-.808 5.39-3.235 10.595-7.059 15.139-3.148 3.742-4.406 3.884-7.283.821l-2.173-2.313 2.845-2.103c3.202-2.368 5.651-6.957 6.68-12.521l.695-3.75H804v15m34.202-8.818c.285 5.906.43 6.217 3.252 6.968 6.141 1.634 7.546.377 7.546-6.758V218H837.905l.297 6.182m34.194 3.228c-.305.795-.406 2.49-.225 3.767l.329 2.323h51v-7l-25.275-.267c-21.286-.225-25.362-.039-25.829 1.177M723.31 243.081c-3.186 6.998-3.031 7.919 1.327 7.919 1.711 0 6.793-10.437 6.039-12.401-1.519-3.96-4.292-2.273-7.366 4.482m22.984-5.784-2.205 1.226 2.205 3.893c2.929 5.168 5.168 6.55 7.246 4.473 1.436-1.437 1.326-1.991-1.231-6.202-3.14-5.17-2.978-5.078-6.015-3.39m119.373 10.37c-.367.366-.667 1.941-.667 3.5V254h66v-7h-32.333c-17.784 0-32.634.3-33 .667M231.94 289.9c-17.266 21.426-31.553 39.438-31.749 40.028-.252.755 18.575 1.072 63.726 1.072 35.246 0 64.083-.244 64.083-.541 0-.298-6.451-8.51-14.335-18.25-7.884-9.74-22.105-27.384-31.601-39.209-9.497-11.825-17.596-21.625-17.999-21.778-.404-.153-14.86 17.252-32.125 38.678M866 307.5V337h7v-59h-7v29.5m125-15.498v14.002l-3.735-2.002c-10.419-5.584-21.254 1.455-22.074 14.341-.909 14.267 10.568 23.633 21.79 17.784 3.279-1.709 4.019-1.822 4.019-.611 0 1.065 1.13 1.484 4 1.484h4v-59h-8v14.002m-429 16.472v28.647l3.75-.311 3.75-.31.5-18.429.5-18.429 18.945 19.679C599.865 330.144 608.759 339 609.211 339c.451 0 .701-12.488.555-27.75l-.266-27.75-4.25-.307-4.25-.308v18.058c0 9.931-.398 18.057-.884 18.057s-2.592-1.913-4.68-4.25c-2.089-2.337-10.466-11.151-18.617-19.586L562 279.828v28.646m478.549-24.797c-12.622 6.832-10.156 20.211 4.951 26.852 8.262 3.632 10.5 5.911 10.5 10.691 0 10.406-15.244 12.052-17.476 1.888-.615-2.797-.729-2.843-4.604-1.86-4.2 1.066-4.206 1.093-1.883 7.314 2.427 6.497 12.988 10.905 20.326 8.483 7.848-2.59 11.639-7.884 11.633-16.245-.005-7.971-2.428-11.167-11.767-15.525-9.523-4.444-11.229-5.853-11.229-9.275 0-5.809 8.73-8.481 13.394-4.1 2.7 2.537 3.438 2.569 6.411.282l2.304-1.773-2.143-2.725c-4.399-5.592-14.005-7.477-20.417-4.007m127.745-.089c-5.399 1.989-14.434 11.599-16.085 17.11-5.742 19.163 6.603 36.721 25.791 36.682 11.311-.024 15-1.949 15-7.829 0-5.246-.125-5.312-4.346-2.301-8.189 5.842-23.078 1.703-27.619-7.677-8.862-18.306 10.313-37.069 27.715-27.119l4.25 2.43v-4.781c0-4.235-.315-4.931-2.75-6.083-4.247-2.008-16.996-2.259-21.956-.432m94.75-.011c-16.495 7.156-22.986 26.765-13.544 40.919 8.154 12.225 21.601 16.403 34.75 10.799 3.513-1.498 3.75-1.873 3.75-5.947 0-5.117.337-4.995-5.148-1.86-12.006 6.863-27.612-.819-29.452-14.498-2.225-16.551 13.999-28.3 29.029-21.024 5.544 2.684 5.571 2.674 5.571-2.015 0-3.794-.267-4.17-4.25-5.978-5.196-2.358-15.718-2.559-20.706-.396M740.19 286.75l.31 3.75 6 .184c3.3.101 8.103.214 10.673.25l4.674.066-7.292 12.75c-4.011 7.012-9.822 17.025-12.913 22.25-3.091 5.225-5.625 9.837-5.631 10.25-.006.413 8.764.75 19.489.75H775v-7.942l-12.856-.279-12.856-.279 9.792-17c5.385-9.35 11.17-19.356 12.856-22.235 1.685-2.879 3.064-5.467 3.064-5.75 0-.283-7.902-.515-17.56-.515h-17.561l.311 3.75m350.222-2.382c-.288.752-.387 12.79-.218 26.75l.306 25.382 14.75.277 14.75.276V329h-22.078l.289-8.75.289-8.75 10.75-.284 10.75-.284v-6.864l-10.75-.284-10.75-.284v-13l10.75-.284 10.75-.284V283h-14.531c-11.371 0-14.646.298-15.057 1.368m286.116 6.437c-.29.291-.528 3.153-.528 6.362 0 5.166-.229 5.833-2 5.833-1.606 0-2 .667-2 3.383 0 2.543.497 3.514 2 3.907 1.872.489 2 1.364 2 13.616V337h7v-27h3c4.389 0 4.621-6.681.25-7.184-2.593-.298-2.778-.658-3.25-6.316-.476-5.706-.633-6.005-3.222-6.112-1.497-.061-2.959.127-3.25.417m-698.472 20.954-4.444 10.741-4.474-9.75-4.475-9.75h-8.648l4.014 8.25c2.207 4.538 6.172 12.714 8.81 18.169l4.796 9.919L678 329.115c2.401-5.622 4.657-10.403 5.013-10.623.356-.22 2.606 4.297 5 10.038 2.393 5.741 4.465 10.326 4.603 10.188.456-.456 17.384-34.79 17.384-35.259 0-1.765-8.932-.248-9.524 1.617-.362 1.142-2.233 5.529-4.157 9.75l-3.498 7.674-4.513-10.75c-2.482-5.913-4.804-10.746-5.161-10.741-.356.005-2.647 4.842-5.091 10.75m-49.072-7.907c-10.173 5.406-11.785 21.578-2.946 29.563 7.181 6.488 18.834 5.496 24.67-2.099l2.447-3.185-3.133-1.62c-3.08-1.592-3.196-1.566-6.733 1.54-5.529 4.854-14.289 2.303-14.289-4.162 0-1.747.901-1.889 12-1.889 13.556 0 13.275.219 10.899-8.5-2.66-9.757-13.846-14.467-22.915-9.648m160.777.21c-9.611 5.075-10.72 22.746-1.892 30.174 6.459 5.435 18.004 4.269 23.603-2.385 3.235-3.845 3.184-4.337-.616-5.911-2.837-1.175-3.305-1.103-4.792.732-4.078 5.037-8.985 5.561-13.141 1.405-5.411-5.412-4.418-6.077 9.077-6.077h12l-.022-3.75c-.073-12.488-13.044-20.087-24.217-14.188m40.223-.21c-12.28 6.526-11.206 27.397 1.687 32.784 4.46 1.863 7.217 1.715 11.829-.636 4.704-2.398 4.5-2.378 4.5-.44 0 1.192.886 1.487 3.75 1.25l3.75-.31.274-16.75.274-16.75h-4.024c-2.91 0-4.024.415-4.024 1.5 0 1.932-.301 1.896-4.226-.496-4.097-2.498-9.267-2.555-13.79-.152m61.516-.449c-12.337 5.445-12.654 26.155-.494 32.347 5.444 2.773 8.437 2.828 13.494.25 4.704-2.398 4.5-2.378 4.5-.44 0 1.192.886 1.487 3.75 1.25l3.75-.31.274-16.75.274-16.75h-4.024c-2.91 0-4.024.415-4.024 1.5 0 1.871.192 1.892-4.5-.5-4.508-2.298-8.709-2.491-13-.597m46.571.332c-2.536 1.248-3.535 1.373-3.834.477-.222-.667-1.941-1.212-3.82-1.212H927v34h7v-9.351c0-13.689 2.137-18.649 8.036-18.649 4.911 0 5.964 2.514 5.964 14.247 0 12.986.257 13.753 4.607 13.753H956v-12.935c0-14.751-.658-17.276-5.225-20.061-3.983-2.428-8.142-2.517-12.704-.269m366.429-.388c-10.023 4.61-12.705 21.139-4.839 29.83 5.376 5.941 16.916 6.007 23.417.134 4.67-4.22 4.883-5.67 1.062-7.253-2.612-1.082-3.125-.92-5.923 1.879-5.026 5.026-12.752 3.088-14.704-3.687-.646-2.245-.62-2.25 11.42-2.25H1327l-.002-4.25c-.004-11.583-11.971-19.244-22.498-14.403m44.5-.69c-.825.332-2.287 1.29-3.25 2.128-1.576 1.373-1.75 1.36-1.75-.13 0-1.264-.945-1.655-4-1.655h-4v34h8v-11.066c0-14.133 1.256-16.888 7.715-16.919 4.623-.022 5.591 2.555 6.097 16.235l.435 11.75h6.901l-.324-14.48c-.316-14.109-.391-14.548-2.956-17.11-2.65-2.646-9.496-4.112-12.868-2.753m56.75.915c-1.593.864-2.75 1.058-2.75.46 0-.568-1.8-1.032-4-1.032h-4V337.121l3.75-.311 3.75-.31.285-11.439c.337-13.566 2.582-17.362 8.87-14.994 3.082 1.16 6.266-4.829 3.624-6.817-2.198-1.654-6.133-1.521-9.529.322m23.75-.216c-8.722 4.038-12.111 16.042-7.25 25.682 5.504 10.915 21.308 11.673 29.02 1.393 1.743-2.325 1.724-2.383-1.306-3.95-3.006-1.554-3.157-1.519-6.675 1.57-4.377 3.844-9.393 3.623-13.039-.573-4.266-4.909-3.423-5.39 10-5.697l12.25-.281-.294-4.484c-.744-11.325-12.487-18.39-22.706-13.66m-798.295 8.394-2.705 2.75 4.25.307c2.337.17 6.163.17 8.5 0l4.25-.307-2.705-2.75c-1.793-1.824-3.745-2.75-5.795-2.75s-4.002.926-5.795 2.75m162.018-1.193c-4.429 3.102-2.837 4.443 5.277 4.443 8.086 0 8.961-.706 4.865-3.927-3.131-2.464-7.076-2.664-10.142-.516m40.078.215c-8.667 6.811-2.792 22.032 7.621 19.745 7.346-1.613 9.865-12.884 4.155-18.594-3.405-3.405-8.298-3.883-11.776-1.151m60.193.48c-5.266 4.529-4.231 15.281 1.768 18.384 8.986 4.647 17.253-5.938 12.228-15.656-2.794-5.402-9.392-6.689-13.996-2.728m82.429.671c-6.278 6.278-2.304 19.077 5.923 19.077 4.072 0 8.921-4.238 9.719-8.495 2.001-10.668-8.471-17.752-15.642-10.582m330.251-.609c-3.224 3.432-2.857 3.686 5.326 3.686 8.036 0 8.627-.413 5.461-3.811-2.775-2.979-7.927-2.919-10.787.125m125.015-.275c-3.531 3.289-2.629 3.961 5.311 3.961 5.869 0 7.5-.314 7.5-1.443 0-4.216-9.075-5.999-12.811-2.518m-298.618 18.532c-4.101 4.102.379 10.131 5.495 7.394 3.902-2.089 1.656-8.965-2.929-8.965-.547 0-1.701.707-2.566 1.571m72.652-.014c-2.699 1.89-2.854 4.562-.394 6.788 2.506 2.268 4.764 2.075 6.614-.568 2.004-2.86 1.965-3.369-.443-5.777s-2.917-2.447-5.777-.443m-132.152 1.311c-1.267 2.366-.497 4.833 1.909 6.121 2.688 1.439 5.262-.967 4.856-4.538-.425-3.735-5.036-4.814-6.765-1.583M577.065 366.25c-5.012 14.787-5.014 35.739-.003 50.5 1.167 3.438 2.238 6.25 2.381 6.25.142 0 1.638-.481 3.325-1.069l3.066-1.069-2.615-7.181c-3.961-10.876-3.977-33.789-.031-44.429 2.585-6.971 2.616-7.286.816-8.25-3.667-1.962-4.78-1.12-6.939 5.248M926 372c0 12.394-.178 12.936-3.441 10.468-2.949-2.23-10.762-1.883-13.944.62-13.748 10.814-1.388 34.299 13.865 26.346 1.923-1.003 3.105-1.178 3.333-.494.195.583 1.666 1.06 3.27 1.06H932v-50h-6v12m377 13v25h7v-50h-7v25m124.75-24.311c-2.152.563-2.239-.482.862 10.327 3.418 11.918 3.18 32.312-.501 42.876-2.291 6.574-2.139 7.423 1.53 8.528 2.255.68 2.494.291 6.097-9.92 3.641-10.319 2.55-37.312-1.929-47.723-2.014-4.681-2.509-5.015-6.059-4.088M605 364.13c-5.095 1.383-9 6.312-9 11.36 0 5.711 2.232 8.285 10.493 12.102 8.642 3.993 9.73 5.159 9.322 9.989-.699 8.262-10.362 9.86-14.065 2.325-1.531-3.115-2.124-3.505-4.75-3.119-3.531.518-3.812 2.23-1.173 7.151 6.63 12.362 27.184 7.243 27.168-6.765-.008-6.915-2.304-9.821-11.502-14.557-6.631-3.415-8.045-4.568-8.3-6.769-.608-5.253 7.141-7.761 11.455-3.708 2.193 2.06 2.376 2.075 4.916.411l2.639-1.729-2.795-2.917c-2.291-2.392-8.296-5.166-10.408-4.808-.275.046-2.075.512-4 1.034m571.016-.033c-7.475 1.6-10.566 11.322-5.411 17.019 1.808 1.998 1.767 2.096-2.313 5.485-7.353 6.107-8.014 14.368-1.645 20.541 4.815 4.667 13.954 4.925 19.683.555l3.675-2.803 2.26 2.628c1.842 2.141 2.968 2.567 6.088 2.303l3.827-.325-3.638-4.753-3.639-4.754 2.54-3.33 2.54-3.33-2.406-2.261-2.407-2.261-1.7 2.595c-2.296 3.504-3.337 3.227-7.739-2.061l-3.77-4.527 2.54-1.997c10.253-8.065 4.193-21.437-8.485-18.724m68.984-.191c-29.038 6.109-23.008 49.603 6.492 46.831 8.491-.798 10.508-2.06 10.508-6.576v-3.889l-4.669 2.364c-17.002 8.607-32.937-12.066-20.601-26.727 5.038-5.987 13.551-7.589 20.77-3.909 2.158 1.1 4.053 2 4.211 2 .159 0 .289-1.765.289-3.922 0-3.548-.31-4.021-3.25-4.95-5.041-1.594-9.92-2.028-13.75-1.222m-374.333.761c-.367.366-.667 10.716-.667 23V410h26v-6h-19.084l.292-7.75.292-7.75 8.75-.289 8.75-.289V382h-18v-11h19v-7h-12.333c-6.784 0-12.634.3-13 .667m-210.656 1.82c-.721.869-.966 2.557-.588 4.061.995 3.964 6.933 3.211 7.407-.939.487-4.263-4.122-6.372-6.819-3.122m397.614.031c-1.965 1.965-2.005 2.58-.319 4.886 2.742 3.75 9.542-.237 7.087-4.154-1.481-2.362-4.782-2.719-6.768-.732m117.912 4.087c-1.776 1.777-1.288 4.771 1.25 7.661 1.921 2.186 6.213-1.089 6.213-4.74 0-4.259-4.401-5.982-7.463-2.921M1041 376c0 3.778-.367 5-1.5 5-.988 0-1.5.988-1.5 2.893 0 1.649.645 3.141 1.5 3.469 1.208.463 1.5 2.723 1.5 11.607V410h5.934l.283-11.25.283-11.25 2.809-.322c4.047-.464 3.575-5.519-.559-5.994-2.586-.298-2.75-.612-2.75-5.25 0-4.816-.072-4.934-3-4.934-2.933 0-3 .111-3 5m278 0c0 3.778-.367 5-1.5 5-.988 0-1.5.988-1.5 2.893 0 1.649.645 3.141 1.5 3.469 1.208.463 1.5 2.723 1.5 11.607V410h5.934l.283-11.25.283-11.25 2.809-.322c4.047-.464 3.575-5.519-.559-5.994-2.586-.298-2.75-.612-2.75-5.25 0-4.816-.072-4.934-3-4.934-2.933 0-3 .111-3 5m-677.521 5.011C624.404 384.643 626.693 411 644.083 411c6.87 0 8.917-1.388 8.917-6.048v-4.097l-2.635 2.072c-4.533 3.566-10.503 2.641-12.902-1.999-4.882-9.44 4.382-18.007 13.214-12.22 2.3 1.507 2.323 1.482 2.323-2.574 0-3.661-.292-4.157-2.75-4.675-5.026-1.059-5.729-1.095-8.771-.448m343.951.01C968.465 384.627 970.798 411 988.083 411c6.87 0 8.917-1.388 8.917-6.048v-4.097l-2.635 2.072c-8.125 6.392-17.719-2.541-12.847-11.962 2.305-4.458 8.245-5.477 13.159-2.257 2.3 1.507 2.323 1.482 2.323-2.574 0-3.661-.292-4.157-2.75-4.675-5.031-1.06-5.73-1.095-8.82-.438m97.607.246c-17.729 4.611-14.125 29.733 4.265 29.733 5.166 0 10.013-2.86 13.424-7.922 7.255-10.765-4.488-25.244-17.689-21.811M660 395.5V410h5.886l.307-12.25c.41-16.375.337-16.75-3.263-16.75H660v14.5m19.615-12.412c-11.222 8.827-5.274 27.905 8.701 27.91 5.255.003 12.684-4.35 12.684-7.432 0-3.068-4.187-3.761-6.918-1.145-4.604 4.411-13.082 2.169-13.082-3.46 0-1.824.736-1.961 10.545-1.961h10.546l-.679-3.75c-1.598-8.824-5.441-12.25-13.742-12.25-3.962 0-6.107.556-8.055 2.088M709 395.5V410h7v-9.566c0-11.355.826-13.434 5.335-13.434 5.096 0 5.665 1.276 5.665 12.7V410h7.167l-.333-11.922c-.308-11.006-.521-12.121-2.758-14.5-2.68-2.849-10.561-3.693-12.876-1.378-.933.933-1.467.933-2.4 0-.66-.66-2.46-1.2-4-1.2H709v14.5m39.99-12.25c-15.058 10.248-5.72 30.736 12.454 27.326 3.383-.634 3.556-.865 3.556-4.736v-4.07l-2.465 1.615c-6.251 4.096-14.089-.041-13.898-7.337.202-7.704 7.965-11.817 14.14-7.491 2.403 1.683 2.786.989 2.235-4.057-.467-4.28-10.429-5.057-16.022-1.25m28.411-.353c-5.448 3.323-7.88 12.695-5.03 19.385 3.988 9.36 16.41 11.784 23.59 4.603 3.705-3.704 3.745-4.242.43-5.753-2.312-1.053-2.876-.901-4.952 1.34-3.272 3.53-8.545 3.48-11.366-.107-3.842-4.884-3.086-5.365 8.427-5.365H799v-2.532c0-10.788-12.181-17.314-21.599-11.571m31.054.558c-4.87 4.869-2.797 10.289 5.566 14.556 3.179 1.622 4.034 2.587 3.792 4.281-.401 2.803-3.409 3.384-5.891 1.137-3.393-3.07-8.341.139-5.64 3.658 3.706 4.826 11.472 5.313 15.795.99 5.362-5.363 3.588-11.236-4.65-15.394-4.443-2.243-5.806-4.124-4.045-5.585 1.091-.906 1.76-.813 2.988.415 1.29 1.289 2.004 1.363 3.856.399 3.324-1.729 3.319-1.703.77-4.416-3.225-3.433-9.13-3.453-12.541-.041m133.258-1.834c-1.332 1.331-.774 19.296.708 22.845 3.511 8.401 17.821 8.769 22.062.567 1.075-2.078 1.517-6.009 1.517-13.483V381h-2.912c-3.351 0-4.09 2.542-3.96 13.629.089 7.55-1.252 10.376-4.913 10.356-5.167-.029-5.676-1.069-6.215-12.695-.494-10.656-.532-10.794-3.037-11.086-1.396-.163-2.859.025-3.25.417m66.902 1.467c-13.585 10.686-1.625 34.174 13.435 26.386 1.691-.874 2.95-1.088 2.95-.5 0 .564 1.575 1.026 3.5 1.026h3.5v-29h-3.031c-1.759 0-3.271.624-3.602 1.486-.504 1.314-.815 1.314-2.691 0-3.195-2.238-10.868-1.909-14.061.602m49.052-1.421c-.367.366-.667 6.891-.667 14.5V410h7v-29h-2.833c-1.559 0-3.134.3-3.5.667M1110 395.5V410h7v-9.566c0-11.329.831-13.44 5.285-13.419 5.682.027 6.123.865 6.551 12.432l.391 10.553H1135v-11.066c0-14.885-1.674-17.844-10.128-17.902-3.008-.021-5.081.515-5.924 1.531-1.177 1.418-1.379 1.418-2.173 0-.485-.866-2.189-1.563-3.825-1.563H1110v14.5m160.166-2.52c.394 14.137 1.908 16.823 9.996 17.735 11.144 1.256 15.081-3.999 14.624-19.518l-.286-9.697-3.25-.313-3.25-.314v10.409c0 11.438-1.032 13.718-6.206 13.718-4.158 0-5.089-2.257-5.592-13.553l-.464-10.447H1269.833l.333 11.98m65.172-10.418c-1.266 3.3.284 20.931 2.082 23.675 3.593 5.484 14.569 6.226 19.483 1.318 2.461-2.459 2.615-3.223 2.931-14.575l.333-11.98H1354.262l-.464 10.447c-.507 11.4-1.423 13.553-5.765 13.553-4.939 0-6.033-2.509-6.033-13.829V381h-3.031c-1.826 0-3.27.621-3.631 1.562M1369 395.5V410H1374.767l.406-10.11c.453-11.275 1.724-13.523 7.057-12.481 2.966.579 5.435-2.234 4.378-4.987-.686-1.789-7.685-1.915-9.533-.172-1.06 1-1.417 1-1.783 0-.252-.687-1.771-1.25-3.375-1.25H1369v14.5m27.19-12.474c-8.912 5.433-8.006 21.835 1.461 26.441 6.048 2.942 13.48 1.653 17.887-3.103 3.088-3.332 3.073-3.765-.186-5.249-2.35-1.071-2.945-.921-5.304 1.339-3.608 3.456-8.216 3.419-10.975-.089-3.842-4.884-3.086-5.365 8.427-5.365h10.5v-2.532c0-10.792-12.296-17.243-21.81-11.442m-481.934 4.509c-4.128 1.735-5.894 6.391-4.364 11.5 2.886 9.633 16.108 7.289 16.108-2.855 0-7.186-5.531-11.258-11.744-8.645m171.286-.732c-10.45 2.262-9.517 18.197 1.065 18.197 4.603 0 6.266-.854 7.93-4.072 3.756-7.262-1.63-15.719-8.995-14.125m-402.973 2.394-1.618 2.303 6.14.301c6.809.333 7.841-.094 6.272-2.599-1.767-2.819-8.814-2.823-10.794-.005m98.002-.626c-2.737 2.738-1.745 3.429 4.929 3.429 6.822 0 7.685-.618 4.671-3.345-2.313-2.094-7.544-2.139-9.6-.084m231.509.349c-3.952 3.952-3.406 12.765.934 15.088 8.142 4.357 16.102-4.97 11.293-13.233-2.44-4.194-8.907-5.175-12.227-1.855m387.166-.766c-2.822 2.822-1.39 3.846 5.376 3.846h6.622l-1.487-2.25c-1.72-2.604-8.477-3.63-10.511-1.596m-227.023 3.79c-7.887 7.203.288 16.7 9.527 11.067 4.159-2.536 4.095-3.224-.843-9.122-4.821-5.758-4.571-5.702-8.684-1.945m-340.247 18.619c-3.286 8.499-3.239 10.349.263 10.422 1.251.026 8.963-16.187 8.085-16.998-3.547-3.279-4.973-2.155-8.348 6.576M187.523 556.75c.964 1.513 3.254 4.775 5.09 7.25 3.416 4.605 27.541 38.896 41.887 59.538 20.259 29.151 28.682 40.977 29.315 41.162.377.11 10.36-13.761 22.185-30.825 11.825-17.063 29.189-41.903 38.586-55.2l17.086-24.175-16.955-.274c-9.663-.156-17.441.133-18.085.674-.623.521-10.357 14.231-21.632 30.467-11.275 16.235-20.734 29.544-21.019 29.576-.286.031-4.524-5.68-9.419-12.693a10109.096 10109.096 0 0 0-21.409-30.5L220.642 554H185.77l1.753 2.75" fill-rule="evenodd"/><path fill="#251f23" stroke="#251f23" d="M734.731 192.603c-.332.331-.211 1.635.269 2.897 1.193 3.137.552 3.5-6.167 3.5-5.555 0-5.833.119-5.833 2.5v2.5h31v-2.45c0-2.28-.398-2.471-5.717-2.75-5.499-.289-5.752-.424-6.644-3.55-.889-3.112-4.905-4.651-6.908-2.647m145.32 1.289-2.449 1.917 3.699 4.514c4.799 5.857 5.059 5.554-5.051 5.888l-8.75.289-.313 3.25-.314 3.25H928v-7h-8.5c-9.845 0-9.529.366-4.908-5.688 3.356-4.397 3.474-4.79 1.808-6.008-2.981-2.181-4.043-1.558-8.863 5.196l-4.638 6.5-8.2-.007-8.199-.006 2.744-1.81 2.744-1.809-4.744-5.197-4.744-5.197-2.449 1.918m69.76 2.296-.311 4.312-4.75.305c-4.289.275-4.75.542-4.75 2.75 0 2.271.359 2.445 5.063 2.445h5.064l-.314 3.25c-.309 3.206-.394 3.257-6.313 3.75-5.281.44-6.038.77-6.32 2.75-.308 2.174-.046 2.25 7.75 2.25 4.439 0 8.07.417 8.07.927 0 1.196-4.914 5.073-6.429 5.073-.638 0-3.075 1.786-5.417 3.97-3.71 3.46-4.114 4.237-3.144 6.049 1.092 2.04 1.208 2.012 6.054-1.47 4.083-2.933 5.808-3.549 9.938-3.549 5.56 0 6.29 1.107 2.407 3.652-1.425.934-2.994 2.755-3.485 4.048-1.041 2.739-1.535 2.943-9.174 3.799-5.21.584-5.75.869-5.75 3.026 0 2.286.209 2.355 5.25 1.745 8.907-1.079 9.221-1.019 9.554 1.854.421 3.627-2.175 5.876-6.782 5.876-3.342 0-3.768.257-3.312 2 .438 1.674 1.364 2 5.684 2 7.342 0 9.429-1.76 9.804-8.271l.302-5.229 5.75-.864c5.013-.752 5.75-1.147 5.75-3.082 0-2.078-.349-2.19-5.5-1.762-6.569.544-6.76-.155-1.462-5.329 5.09-4.97 5.076-7.917-.038-8.062-7.82-.22-7.662-.1-4.5-3.401 2.324-2.425 3.7-3 7.187-3 4.763 0 6.534-3.606 2.313-4.71-2.561-.67-2.629-.409 1.686-6.415 3.523-4.905 3.603-5.191 1.808-6.503-2.627-1.921-2.511-2.009-7.393 5.609-5.711 8.911-9.101 10.16-9.101 3.352 0-3.222.133-3.333 4-3.333 3.6 0 4-.25 4-2.5 0-2.244-.404-2.5-3.943-2.5-3.923 0-3.943-.021-4.25-4.25-.464-6.426-4.541-6.884-4.996-.562m29.728-2.963c-.229.701-1.349 4.785-2.488 9.074-1.14 4.29-3.45 10.53-5.135 13.867-2.764 5.476-2.94 6.361-1.809 9.093l1.254 3.026 2.211-2.772 2.211-2.773.717 2.38c.394 1.309 1.84 5.232 3.212 8.717l2.495 6.337-2.804 2.927c-1.542 1.61-4.952 4.383-7.578 6.163-5.275 3.576-5.711 4.624-2.958 7.115 1.772 1.604 2.133 1.473 7.143-2.595 11.013-8.943 9.001-8.674 16.608-2.221l6.692 5.677 1.823-2.37c2.433-3.164 2.378-3.39-1.383-5.722-1.788-1.109-4.78-3.6-6.651-5.535l-3.401-3.52 2.583-5.955c2.417-5.573 4.371-13.697 4.963-20.638.209-2.452.758-3.058 3.006-3.316 2.303-.265 2.75-.794 2.75-3.25V204h-9.5c-10.54 0-10.734-.16-8.384-6.902 1.276-3.66 1.311-3.594-2.388-4.482-1.854-.445-2.91-.243-3.189.609M1059 212.941c0 11.518-.338 21.141-.75 21.385-.412.244-4.8.738-9.75 1.098-13.862 1.007-14.5 1.217-14.5 4.769 0 2.994.056 3.026 4.25 2.454 2.338-.319 7.963-.878 12.5-1.242l8.25-.663V258h6v-17.742l5-.664c4.708-.624 5-.833 5-3.586 0-2.85-.119-2.918-4.75-2.716l-4.75.208-.27-20.75-.271-20.75H1059v20.941m52.25-20.228c-2.66.504-2.716.927-.75 5.633.825 1.974 1.5 3.829 1.5 4.122 0 .293-6.975.532-15.5.532H1081v3c0 2.91.142 3 4.75 3.015 5.953.02 6.547.455 8.161 5.985 1.956 6.697 5.802 13.902 10.319 19.326 2.273 2.731 3.638 5.2 3.144 5.686-1.594 1.567-13.754 7.248-20.097 9.387l-6.246 2.107 2.346 2.942 2.346 2.942 8.888-3.731c4.889-2.052 11.093-5.02 13.786-6.595l4.898-2.864 6.234 3.426c3.428 1.885 9.865 4.753 14.304 6.372l8.071 2.946 2.062-2.897 2.063-2.897-5.764-1.675c-7.595-2.208-20.265-8.516-20.265-10.089 0-.684.633-1.877 1.408-2.651 3.361-3.361 8.884-13.371 11.049-20.023l2.347-7.212 5.598-.3c5.465-.293 5.598-.37 5.598-3.25V203h-26.514l-1.996-5.168c-2.091-5.412-2.579-5.812-6.24-5.119m70.234.312c-.348.564-.556 2.702-.462 4.75.359 7.781 1.316 7.225-12.439 7.225-7.269 0-12.555.409-12.75.986-.183.543-.199 8.193-.035 17l.297 16.014h2.885c2.007 0 3.078-.609 3.52-2 .572-1.803 1.513-2 9.567-2H1181v23h8v-23h9.5c8.833 0 9.5.14 9.5 2 0 1.619.667 2 3.5 2h3.5v-34h-26v-13h-3.441c-1.893 0-3.726.461-4.075 1.025m68.983 2.012c-1.816 2.007-1.734 2.148 5.595 9.536l7.438 7.5 1.75-2.147c2.673-3.281 2.256-4.223-4.787-10.811-7.332-6.859-7.44-6.903-9.996-4.078M769.5 196.398l-10 1.102-.5 22.5c-.488 21.966-.565 22.64-3.256 28.385-2.598 5.545-2.656 5.962-1 7.216 2.634 1.997 3.546 1.273 5.951-4.722 2.458-6.125 4.286-15.967 4.297-23.129L765 223h10v34h5V223.121l3.75-.311c3.256-.269 3.792-.672 4.066-3.06l.317-2.75H765v-6.921c0-7.972-.79-7.456 13.25-8.653 7.844-.669 8.559-1.154 7.143-4.844-.68-1.773-1.394-1.781-15.893-.184m23.916-.481c-.229.229-.416 1.451-.416 2.716 0 2.239.282 2.307 10.75 2.583l10.75.284.305 4.75.305 4.75H797v47h3c2.333 0 3-.444 3-2 0-1.943.667-2 23.5-2s23.5.057 23.5 2c0 1.556.667 2 3 2h3v-47.142l-9.002.321-9.003.321.003-5.25L838 201h21v-2.5c0-1.375-.337-2.506-.75-2.513-18.434-.32-64.535-.37-64.834-.07m224.584.013c-7.276.553-7.509.652-7.816 3.32-.305 2.645-.142 2.75 4.25 2.75H1019v10h-5c-4.889 0-5 .067-5 3 0 2.889.167 3 4.5 3 2.475 0 4.5.408 4.5.907 0 1.24-5.406 12.792-8.008 17.11-1.802 2.991-1.949 3.964-.981 6.5 1.379 3.614 2.384 2.622 6.14-6.056 1.292-2.985 2.686-5.435 3.099-5.444.413-.009.75 6.058.75 13.483V258h6V229.763l3.562 2.717c3.458 2.637 3.622 2.664 5.565.905 1.985-1.797 1.971-1.838-1.795-5.092-2.418-2.09-4.438-3.077-5.564-2.719-1.493.473-1.768-.072-1.768-3.507V218h4.5c4.333 0 4.5-.111 4.5-3 0-2.894-.161-3-4.552-3h-4.553l.303-5.25.302-5.25 4.5-.5c2.749-.305 4.461-.986 4.4-1.75-.384-4.797.55-4.608-16.4-3.32m24.028 4.536c-1.6 1.928-1.361 2.349 4.237 7.463 4.635 4.234 4.82 4.304 6.75 2.557 2.761-2.498 2.632-2.8-3.146-7.401-5.729-4.562-6.12-4.692-7.841-2.619M821.55 201.92c-.349.564-.527 2.838-.397 5.053l.238 4.027H831.11l-.305-4.75-.305-4.75-4.158-.303c-2.287-.167-4.444.159-4.792.723m-93.91 4.553c-1.805 1.367-1.798 1.497.25 4.372 2.8 3.933 2.771 3.992-2.14 4.348-3.803.275-4.283.596-4.566 3.057l-.317 2.75H736v7h-6.5c-6.233 0-6.5.101-6.5 2.452 0 2.31.363 2.47 6.25 2.75l6.25.298.294 7.845c.329 8.803-.525 10.655-4.916 10.655-2.935 0-3.346.618-2.271 3.418 1.009 2.629 7.994 2.072 10.938-.873 2.264-2.263 2.455-3.198 2.455-12V233h6c5.733 0 6-.111 6-2.5s-.267-2.5-6-2.5h-6v-7h13v-3.131c0-3.016-.127-3.11-3.482-2.566-4.481.728-5.189-.552-2.44-4.413 1.814-2.547 1.958-3.253.814-3.978-2.786-1.764-4.536-.824-6.68 3.588-1.202 2.475-2.529 4.537-2.949 4.583l-3.263.362c-3.897.433-5.388-.441-3.324-1.95 1.613-1.18 1.542-1.52-1.022-4.882-1.516-1.987-2.845-3.599-2.955-3.581-.109.017-1.036.666-2.059 1.441m514.136 1.777c-.614 1.753-.674 35.566-.069 39.421 1.084 6.915 8.808 9.471 23.779 7.867 8.519-.912 10.338-2.506 12.012-10.53 1.538-7.369 1.513-7.46-2.392-8.821l-2.898-1.01-.686 5.494c-1.007 8.061-2.701 9.329-12.465 9.329-11.262 0-11.057.44-11.057-23.723V207h-2.893c-1.591 0-3.09.563-3.331 1.25m-142.23 1.676c-1.577 2.551 8.425 20.934 12.783 23.498 3.356 1.974 12.419-11.229 14.19-20.674l.704-3.75h-13.553c-7.453 0-13.81.417-14.124.926m-119.069 1.111c-1.385 2.242 3.611 21.963 5.564 21.963 1.144 0 4.521-11.032 5.434-17.75l.713-5.25h-5.535c-3.044 0-5.823.467-6.176 1.037m182.208 9.212.186 8.251h9.064c4.986 0 9.065-.338 9.065-.75V212l-9.25-.001-9.25-.001.185 8.251m26.315.251v8.5h19v-17h-19v8.5m86.415-6.728-2.086 1.728 5.597 10.653 5.596 10.653 2.739-1.435c3.514-1.841 3.538-1.682-1.76-11.262-7.58-13.703-6.884-12.99-10.086-10.337M1230 215.949c0 1.209-1.166 5.653-2.592 9.875-1.425 4.222-2.732 8.351-2.905 9.176a96.274 96.274 0 0 1-.658 2.887c-.281 1.128 4.929 3.685 5.767 2.83.503-.512 7.335-25.103 7.054-25.385-.172-.171-1.742-.597-3.489-.947-2.799-.559-3.177-.373-3.177 1.564m-426.657 2.597c-.22.575-.275 7.55-.122 15.5l.279 14.454h46l.302-5.25.303-5.25h-7.098C832.965 238 831 235.989 831 225.712c0-8.759.296-8.329-5.429-7.874-4.343.345-4.571.514-4.571 3.397 0 5.304-2.233 10.748-6.307 15.376l-3.954 4.492-2.347-2.205-2.348-2.205 3.358-3.716c3.607-3.993 5.94-9.624 5.42-13.085-.353-2.351-10.633-3.556-11.479-1.346m39.863-.742-5.295.304.295 6.696.294 6.696h11l.302-6.398c.356-7.56.238-7.69-6.596-7.298m195.387.746c-1.399 1.399-1.002 1.995 4.099 6.149l5.647 4.6 1.811-2.236c1.797-2.219 1.772-2.266-3.14-6.15-5.538-4.377-6.213-4.567-8.417-2.363M228.5 249.182c-13.2 16.555-28.444 35.549-33.876 42.209-5.432 6.66-11.282 13.864-13 16.01a1921.416 1921.416 0 0 1-8.924 11c-7.571 9.268-7.275 8.901-14.211 17.599-3.29 4.125-6.22 7.725-6.513 8-.293.275-9.293 11.449-20.001 24.831-17.743 22.174-19.588 24.168-20.817 22.5-2.624-3.564-21.196-29.958-27.324-38.831A1652.53 1652.53 0 0 0 72.993 337l-4.628-6.5-17.319-.274-17.32-.274 2.462 3.274c1.355 1.801 11.159 15.649 21.788 30.774 10.629 15.125 24.419 34.743 30.644 43.595l11.319 16.096 11.255.644c8.376.479 11.539.327 12.364-.596.61-.681 16.371-20.338 35.025-43.681 18.654-23.343 35.38-43.994 37.167-45.89 1.787-1.896 3.25-3.632 3.25-3.857 0-.426 10.381-13.566 16.74-21.189 2.008-2.408 12.226-15.034 22.706-28.057 24.278-30.171 25.423-31.543 25.873-31.009 3.605 4.276 34.865 43.271 39.447 49.207 3.446 4.466 8.418 10.62 11.048 13.678 2.63 3.057 6.994 8.484 9.699 12.059 2.704 3.575 5.439 6.95 6.076 7.5 1.216 1.05 26.629 32.52 56.837 70.381l17.856 22.382 6.609-.624c3.635-.344 8.685-.628 11.223-.632 4.302-.007 4.809-.293 7.5-4.244 4.377-6.427 31.936-45.713 48.063-68.514C486.555 340.11 493 330.773 493 330.499c0-.275-7.538-.495-16.75-.491l-16.75.009-8.58 12.241a63607.038 63607.038 0 0 1-20.8 29.651c-6.721 9.576-12.67 18.251-13.22 19.278-1.397 2.61-.603 3.453-22.546-23.942-10.902-13.61-25.791-32.05-33.088-40.978-7.296-8.928-13.266-16.466-13.266-16.75 0-.284-.824-1.341-1.83-2.347-2.028-2.028-32.604-39.759-52.398-64.658-7.001-8.807-14.114-17.699-15.807-19.762l-3.078-3.75-11.193.04-11.194.041-24 30.101M872 230v3h51v-6h-51v3m-125.209 8.057c-2.441 1.423 2.531 9.933 5.37 9.191 2.376-.622 2.318-1.514-.411-6.292-2.467-4.32-2.494-4.336-4.959-2.899m-23.146 5.595c-2.763 5.632-2.546 7.284.961 7.333 1.288.018 6.504-10.998 5.77-12.185-1.45-2.347-4.157-.396-6.731 4.852m142.022 5.015c-.367.366-.667 1.716-.667 3V254h66v-6h-32.333c-17.784 0-32.634.3-33 .667m.333 58.274c0 15.918.34 29.151.756 29.408.415.257 1.99.231 3.5-.058l2.744-.524V278h-7v28.941M992 292.5c0 7.975-.243 14.5-.54 14.5-.298 0-1.86-.975-3.472-2.167-11.441-8.459-26.245 5.461-21.986 20.673 2.774 9.909 15.076 15.153 22.271 9.494 3.131-2.463 3.727-2.495 3.727-.201 0 1.468.645 1.724 3.5 1.391l3.5-.409V278h-7v14.5m-429.683 15.518.183 27.482 3.25.313 3.25.314v-18.564c0-10.209.337-18.578.75-18.596.413-.017 9.394 8.87 19.96 19.75l19.21 19.783.04-27.75L609 283h-7v18.5c0 11.377-.376 18.5-.977 18.5-.863 0-8.93-8.135-32.206-32.475l-6.682-6.988.182 27.481m480.424-24.589c-6.488 2.315-9.741 6.589-9.741 12.799 0 5.813 3.021 9.034 13 13.864 8.211 3.974 9.815 5.404 10.569 9.424 2.072 11.047-13.884 15.552-17.701 4.997-1.202-3.324-1.601-3.616-4.222-3.092-1.593.318-3.266.579-3.719.579-1.155 0 .984 5.933 3.375 9.363C1042.577 343.235 1064 335.76 1064 321c0-7.247-2.865-10.67-13.393-16-9.418-4.769-11.311-7.019-9.626-11.449 1.885-4.96 9.456-6.205 13.449-2.212 2.127 2.127 2.574 2.215 4.954.968 3.293-1.726 3.272-2.305-.209-5.64-4.624-4.429-10.082-5.505-16.434-3.238m128.449.083c-31.625 8.799-23.887 55.175 8.889 53.277 10.096-.584 12.921-2.307 12.921-7.88v-4.045l-2.759 1.965c-6.922 4.928-16.511 4.932-23.308.008-20.615-14.934-1.763-46.906 20.889-35.427l5.178 2.624v-3.832c0-3.383-.403-4.024-3.447-5.475-5.109-2.437-12.269-2.91-18.363-1.215m95.994-.48c-20.762 4.264-28.472 31.888-13.023 46.661 7.218 6.903 19.659 9.363 28.819 5.698 3.729-1.492 4.02-1.89 4.02-5.5 0-4.57.166-4.511-4.671-1.658-12.838 7.575-29.329-2.608-29.329-18.111 0-16.083 14.443-25.642 28.859-19.1 5.494 2.493 5.141 2.601 5.141-1.573 0-3.062-.448-3.738-3.25-4.905-4.601-1.916-11.522-2.548-16.566-1.512m-526.499.718c-.238.413-.34 1.875-.228 3.25.203 2.478.299 2.502 10.874 2.784 6.251.166 10.669.697 10.669 1.283 0 .549-3.438 6.947-7.64 14.216-12.976 22.448-17.355 30.197-17.359 30.717-.002.275 8.322.368 18.498.207l18.501-.292V330h-12.5c-8.436 0-12.5-.358-12.5-1.102 0-1.043 13.873-25.953 21.472-38.556 1.938-3.213 3.524-6.179 3.525-6.592.002-.413-7.395-.75-16.438-.75s-16.636.337-16.874.75M1091 309.444v26.445l13.25.305c14.438.333 15.705.021 14.994-3.7-.472-2.468-.586-2.494-10.861-2.494H1098v-18.93l10.25-.285 10.25-.285.313-3.25.314-3.25H1098v-14h21v-7h-28v26.444M1376 297c0 4.667-.333 6-1.5 6-1.998 0-2.024 5.585-.029 6.35 1.171.45 1.527 3.266 1.75 13.857l.279 13.293h6l.278-13.75.278-13.75h2.972c2.636 0 2.972-.34 2.972-3 0-2.667-.333-3-3-3h-3v-12h-7v6m-696.972 13.653c-2.351 5.416-4.638 10.243-5.082 10.728-.445.485-2.833-3.453-5.309-8.75-4.455-9.534-4.536-9.631-8.069-9.631-4.542 0-4.906-1.43 4.66 18.291l8.229 16.962 2.572-5.466a316.141 316.141 0 0 0 4.821-10.877l2.249-5.41 3.764 8.5a2838.81 2838.81 0 0 1 4.848 11c1.054 2.428 1.158 2.337 3.638-3.167 1.404-3.117 5.291-11.131 8.639-17.809l6.087-12.143-4.187.31-4.187.309-3.97 9.25c-2.184 5.087-4.299 9.25-4.699 9.25-.401 0-2.753-4.769-5.229-10.597l-4.5-10.598-4.275 9.848m-46.859-7.658c-13.48 3.178-15.365 27.265-2.552 32.618 7.68 3.209 17.081.852 21.105-5.291 1.303-1.99 1.214-2.318-1.032-3.789-2.36-1.547-2.58-1.489-5.497 1.428-5.609 5.609-13.837 3.405-15.727-4.211l-.683-2.75h25.091l-.546-3.75c-1.583-10.874-9.813-16.694-20.159-14.255m161.844-.288c-12.685 2.52-16.235 23.809-5.294 31.744 5.931 4.301 17.004 2.982 22.252-2.65 2.686-2.883 2.559-4.239-.531-5.646-2.302-1.049-2.814-.864-5.089 1.839-3.64 4.327-9.373 4.264-13.494-.147-5.175-5.54-4.013-6.309 10.028-6.629l12.36-.282-.667-4.172c-1.605-10.041-9.874-15.982-19.565-14.057m38.606.317c-12.337 3.738-14.67 24.183-3.62 31.726 4.304 2.938 11.035 3.01 15.633.168 2.86-1.767 3.368-1.843 3.368-.5 0 1.141.975 1.582 3.5 1.582h3.5v-33h-3.5c-2.813 0-3.5.386-3.5 1.966 0 1.935-.051 1.937-3.25.097-4.189-2.409-8.511-3.136-12.131-2.039m60.985.004c-9.122 2.762-13.998 16.508-9.169 25.847 4.083 7.896 13.744 10.65 21.197 6.043 2.86-1.767 3.368-1.843 3.368-.5 0 1.141.975 1.582 3.5 1.582h3.5v-33h-3.5c-2.879 0-3.5.369-3.5 2.082v2.081l-3.25-1.974c-4.131-2.508-8.457-3.278-12.146-2.161m46.695.068c-1.76.515-3.474 1.379-3.809 1.92-.926 1.498-2.49 1.174-2.49-.516 0-1.048-1.056-1.5-3.5-1.5H927v33h7v-10.55c0-13.836 1.745-17.45 8.427-17.45 4.754 0 6.031 3.177 6.573 16.352l.5 12.148 2.5-.011 2.5-.011.278-13.692.278-13.692-2.778-2.975c-3.137-3.359-7.266-4.401-11.979-3.023m366.669-.199c-13.316 4.276-15.793 23.913-4.016 31.85 5.626 3.791 15.455 2.99 20.015-1.632 4.23-4.287 4.35-4.9 1.272-6.491-2.789-1.443-3.001-1.387-5.48 1.438-4.985 5.681-15.759 2.593-15.759-4.517V321h24.26l-.52-4.614c-1.097-9.73-10.82-16.363-19.772-13.489m43.574-.177c-1.077.279-2.99 1.183-4.25 2.008-2.063 1.352-2.292 1.341-2.292-.113 0-2.31-6.545-2.243-7.435.076-.966 2.519-.451 31.293.563 31.409.479.055 2.109.146 3.622.203l2.75.103.5-12.103c.553-13.394 1.802-16.303 7-16.303 5.196 0 6.447 2.913 7 16.307l.5 12.102 3 .046 3 .045.308-11.5c.342-12.76-.771-18.299-4.099-20.406-2.658-1.682-7.478-2.57-10.167-1.874m55.684 1.258c-3.919 2.42-4.226 2.458-4.226.522 0-1-1-1.5-3-1.5h-3v33h6l.002-9.75c.002-13.143 1.677-16.785 7.665-16.67 3.506.068 4.346-.313 5.298-2.402 2.018-4.43-3.484-6.445-8.739-3.2m25.959-1.019c-12.754 3.136-15.598 24.215-4.287 31.771 6.624 4.425 17.217 2.706 21.815-3.542l2.213-3.007-2.511-1.645c-2.431-1.592-2.602-1.547-5.364 1.41-4.949 5.297-13.566 3.752-15.866-2.845-1.416-4.063-1.306-4.101 12.095-4.101h11.947l-.67-4.75c-1.417-10.049-9.632-15.686-19.372-13.291m-800.612 7.377C626.966 314.943 627.978 316 637 316c8.667 0 9.478-.648 6.011-4.806-3.011-3.612-8.288-4.008-11.438-.858m161.114.469c-4.321 4.51-3.621 5.195 5.313 5.195 8.968 0 10.029-1.062 5.545-5.545-3.34-3.34-7.45-3.208-10.858.35m42.701-1.825c-6.8 2.748-8.799 13.763-3.465 19.097 3.784 3.784 8.699 3.953 12.871.443 8.917-7.503 1.082-23.778-9.406-19.54m59.585.724c-5.021 3.46-6.534 7.68-4.89 13.634 2.502 9.062 14.422 10.439 18.369 2.122 4.825-10.169-4.971-21.62-13.479-15.756m81.125 1.045c-3.531 3.531-4.571 6.918-3.642 11.869 1.783 9.502 13.715 11.753 18.034 3.402 5.687-10.999-6.128-23.536-14.392-15.271m329.759.24c-4.073 4.073-3.005 5.011 5.702 5.011 8.429 0 9.953-1.879 4.806-5.927-3.674-2.891-6.99-2.601-10.508.916m125.22-.4c-5.23 4.401-4.218 5.411 5.423 5.411 9.454 0 10.215-.671 5.96-5.26-3.267-3.523-7.312-3.576-11.383-.151m-357.066 19.898c-1.527 1.84-.504 6.513 1.426 6.513 2.855 0 4.563-1.276 4.563-3.407 0-4.062-3.632-5.946-5.989-3.106m58.021.453c-1.646 3.076.359 6.269 3.684 5.87 3.349-.402 5.177-3.166 3.678-5.56-1.644-2.626-6.024-2.81-7.362-.31m72.153-.25c-1.601 3.054.342 6.499 3.457 6.127 3.413-.407 5.264-3.153 3.752-5.567-1.551-2.477-6.021-2.824-7.209-.56m-626.124 34.876c-7.541 20.156-3.321 61.33 5.699 55.604.987-.627.826-2.062-.748-6.635-4.674-13.585-4.705-32.567-.076-45.902 2.205-6.352 2.119-7.124-.887-7.91-1.642-.429-2.326.4-3.988 4.843M926 372.515v12.648l-3.368-2.081c-13.122-8.11-26.202 11.975-15.396 23.639 4.05 4.371 12.824 5.322 15.817 1.715 1.547-1.864 2.947-1.834 2.947.064 0 1.002 1.002 1.5 3.017 1.5h3.018l-.268-24.75-.267-24.75-2.75-.316-2.75-.317v12.648m378 12.419V410h6.035l-.268-24.75-.267-24.75-2.75-.316-2.75-.317v25.067m124.397-23.916-2.103.809 2.48 7.336c4.635 13.717 4.035 35.477-1.333 48.324-1.341 3.21-1.305 3.33 1.206 3.961 3.181.798 2.744 1.323 5.346-6.416 4.492-13.359 4.502-34.983.022-47.729-2.383-6.781-2.881-7.338-5.618-6.285m-828.035 6.289c-7.332 6.719-4.669 14.623 6.81 20.209 10.298 5.012 12.633 9.77 7.373 15.029-4.493 4.494-14.545 1.73-14.545-4 0-1.621-2.658-2.05-4.691-.757-.892.567-.724 1.802.666 4.907 6.198 13.845 26.042 9.132 26.274-6.24.095-6.241-2.238-8.985-11.805-13.886-6.593-3.377-7.996-4.52-8.251-6.722-.6-5.186 10.175-8.434 12.995-3.917.976 1.562 1.597 1.727 3.259.864 2.875-1.491 2.835-1.399 1.604-3.698-3.183-5.949-14.07-6.938-19.689-1.789m572.941-2.11c-5.286 2.554-6.446 12.95-1.868 16.749 1.188.986.607 1.971-3.505 5.934-4.643 4.476-4.93 5.05-4.93 9.859 0 11.581 13.722 17.415 22.865 9.721 3.657-3.077 4.508-3.072 6.956.04 1.469 1.868 2.909 2.5 5.693 2.5h3.727l-3.621-4.418c-4.195-5.12-4.368-6.157-1.534-9.173 1.71-1.821 1.884-2.597.964-4.315-1.442-2.695-2.191-2.637-5.038.394-2.664 2.834-3.195 2.594-8.187-3.709l-3.1-3.913 3.738-3.828c8.898-9.112-.567-21.442-12.16-15.841m68.129.129c-20.146 7.709-19.608 37.473.8 44.251 9.176 3.048 18.768.473 18.768-5.038v-3.51l-3.25 1.982c-13.978 8.523-30.439-7.25-24.101-23.093 3.366-8.411 17.403-13.372 23.91-8.45 2.885 2.182 3.441 1.88 3.441-1.87 0-2.917-.449-3.559-3.149-4.5-4.026-1.404-12.461-1.286-16.419.228m-580.911 1.295c-1.949 1.949-1.656 4.265.729 5.767 3.737 2.353 7.731-3.466 4.168-6.072-2.321-1.696-2.933-1.658-4.897.305M871 387.5V410h24v-6h-18v-16h18v-6h-18v-12h9c8.933 0 9-.019 9-2.5V365h-24v22.5m186.832-20.03c-2.06 4.52 3.8 7.955 6.133 3.596 1.339-2.502 1.323-2.635-.536-4.495-2.265-2.264-4.305-1.936-5.597.899m117.179 3.017c-1.365 1.645-.755 5.03 1.413 7.84 2.9 3.76 8.938-2.913 6.596-7.289-1.303-2.435-6.168-2.769-8.009-.551m-133.585 1.844c-.28.732-.322 3.039-.092 5.126.339 3.076.063 3.888-1.458 4.286-2.299.601-2.632 5.257-.376 5.257 1.246 0 1.5 1.944 1.5 11.5V410h6v-23h2.5c2 0 2.5-.5 2.5-2.5s-.5-2.5-2.5-2.5c-2.364 0-2.5-.3-2.5-5.5 0-5.218-.13-5.5-2.531-5.5-1.393 0-2.762.599-3.043 1.331M1319 376.5c0 4.222-.348 5.5-1.5 5.5-.933 0-1.5.944-1.5 2.5s.567 2.5 1.5 2.5c1.246 0 1.5 1.944 1.5 11.5V410h6v-23h2.5c2 0 2.5-.5 2.5-2.5s-.5-2.5-2.5-2.5c-2.364 0-2.5-.3-2.5-5.5 0-5.444-.03-5.5-3-5.5s-3 .056-3 5.5m-682.257 7.029c-14.365 9.761-3.75 31.919 12.692 26.493 3.128-1.033 3.565-1.581 3.565-4.474v-3.297l-3.885 1.922c-7.799 3.859-13.807-.912-13.226-10.5.363-5.987 9.494-9.519 14.476-5.6l2.635 2.072v-3.537c0-6.179-9.146-7.912-16.257-3.079m43.6-.473c-3.435 2.201-6.343 8.159-6.343 12.996 0 12.95 15.117 19.677 24.079 10.715l3.157-3.157-2.297-1.861c-2.109-1.707-2.373-1.724-3.22-.211-3.184 5.688-13.811 4.345-14.535-1.837l-.317-2.701H701v-3.352c0-9.852-12.116-16.064-20.657-10.592m37.736-.268c-1.792 1.246-2.529 1.362-2.834.448-.686-2.059-6.132-1.57-5.733.514.184.962.369 7.262.411 14 .077 12.219.083 12.25 2.461 12.25 2.327 0 2.393-.237 2.79-10.121.427-10.639 1.994-13.879 6.714-13.879 4.978 0 6.112 2.515 6.112 13.557V410h6l-.006-9.25c-.006-10.847-1.234-16.104-4.255-18.221-2.848-1.994-8.603-1.866-11.66.259m31.585.324c-10.75 5.672-9.596 22.075 1.859 26.45 7.408 2.829 12.877 1.171 13.301-4.034.321-3.948.311-3.96-1.73-2.113-3.256 2.946-9.9 2.512-12.778-.834-7.005-8.144 2.083-20.046 11.563-15.144l3.121 1.614v-2.99c0-5.303-7.97-6.835-15.336-2.949m28.635-.212c-9.276 5.828-8.371 22.665 1.437 26.763 8.186 3.42 22.781-3.614 16.742-8.068-1.793-1.322-2.236-1.213-4.739 1.171-4.796 4.567-12.949 2.653-13.913-3.266-.305-1.868.366-2.033 10.177-2.5 7.569-.36 10.467-.849 10.375-1.75-.07-.687-.184-2.382-.253-3.765-.387-7.778-12.655-13.09-19.826-8.585m30.709.592c-4.416 4.701-2.844 10.02 3.992 13.508 4.487 2.289 6.214 4.279 5.448 6.275-.908 2.367-4.183 2.721-6.719.727-1.93-1.519-2.661-1.609-4.605-.568l-2.311 1.237 2.507 2.914c5.748 6.683 18.9 1.368 17.123-6.919-.934-4.358-.961-4.388-6.561-7.226-5.281-2.676-6.884-4.838-4.99-6.732.877-.877 1.652-.849 3.196.115 4.477 2.796 7.984-1.258 3.689-4.266-3.383-2.37-8.045-1.965-10.769.935m172.233-.497c-9.01 5.493-9.805 18.907-1.472 24.84 6.885 4.903 17.231 3.519 17.231-2.305v-3.314l-3.711 1.892c-5.055 2.577-6.946 2.389-10.366-1.031-8.323-8.323 2.272-22.217 11.442-15.004l2.635 2.072v-3.537c0-5.808-8.837-7.834-15.759-3.613m28.179-.109c-1.694 1.033-3.832 3.462-4.75 5.397-6.091 12.837 5.68 27.428 16.824 20.853 3.027-1.786 3.666-1.882 4.149-.624.323.843 1.826 1.488 3.464 1.488H1032v-28h-2.893c-1.71 0-3.14.644-3.497 1.575-.527 1.373-.942 1.309-3.242-.5-3.313-2.606-8.852-2.687-12.948-.189m70.976-.457c-6.802 2.962-9.879 11.401-6.95 19.068 3.224 8.442 12.283 11.679 20.449 7.306 17.042-9.125 4.258-34.103-13.499-26.374m38.683.359c-1.792 1.246-2.529 1.362-2.834.448-.226-.68-1.499-1.236-2.828-1.236H1111v28h2.5c2.492 0 2.5-.03 2.5-9.545 0-10.578 1.984-14.455 7.398-14.455 4.307 0 5.602 3.289 5.602 14.223V410h6.098l-.16-10.25c-.171-10.96-1.514-15.917-4.788-17.67-2.938-1.572-8.283-1.23-11.071.708m258.515-.038c-1.343 1.282-1.958 1.416-2.297.5-.255-.687-1.776-1.25-3.38-1.25H1369v28h6v-9.277c0-11.087 1.253-13.723 6.522-13.723 3.904 0 6.872-3.502 4.331-5.112-2.243-1.422-6.31-.997-8.259.862m19.863.054c-13.73 8.64-5.875 30.748 9.875 27.794 3.47-.651 9.668-5.416 9.668-7.432 0-2.261-4.158-2.366-6.502-.164-4.826 4.534-13.498 1.891-13.498-4.113 0-1.726.862-1.889 10-1.889h10v-4.015c0-9.047-11.678-15.131-19.543-10.181M660 396v14h6v-28h-6v14m282-3.016c0 14.188 2.067 17.369 11.347 17.461 9.497.093 11.871-3.221 12.454-17.387l.456-11.058H960l-.014 8.75c-.017 10.988-.539 12.899-3.841 14.05-6.63 2.311-9.145-1.465-9.145-13.734 0-9.004-.017-9.066-2.5-9.066H942v10.984M1058 396v14h6v-28h-6v14m212.162-3.017c.395 12.837 2.676 16.694 10.431 17.644 9.678 1.184 13.371-3.884 13.392-18.377L1294 382h-2.5c-1.375 0-2.522.563-2.548 1.25l-.391 10.105c-.385 9.983-1.494 11.978-6.655 11.978-4.924 0-5.906-2.247-5.906-13.524V382h-6.177l.339 10.983m65.838.094c0 12.654 1.825 16.049 9.392 17.469 10.16 1.906 14.604-3.814 14.606-18.796L1360 382h-5.818l-.341 10.452c-.373 11.427-.923 12.627-5.853 12.767-5.021.143-5.988-2.023-5.988-13.41V382h-6v11.077m-652.826-4.763C679.971 391.725 680.331 392 688 392c7.594 0 8.417-.74 4.365-3.927-3.438-2.705-6.498-2.625-9.191.241m97.461-.241C776.583 391.26 777.406 392 785 392c7.605 0 9.116-1.405 4.777-4.443-3.029-2.122-6.002-1.954-9.142.516m131.288.85c-5.303 5.303-3.036 15.058 3.804 16.365 7.757 1.483 13.467-6.465 9.947-13.845-2.841-5.959-9.155-7.116-13.751-2.52m100.846-.956c-1.376 1.082-2.728 1.741-3.005 1.463-.277-.277-.45 2.2-.384 5.505.149 7.465 2.39 10.265 8.213 10.265 8.072 0 11.521-10.239 5.484-16.277-3.413-3.413-6.787-3.725-10.308-.956m71.231-1.261c-6.309 2.307-8.361 11.727-3.54 16.256 5.076 4.769 14.554 1.975 15.824-4.665 1.5-7.848-5.208-14.177-12.284-11.591m315.306 1.709c-3.749 3.226-2.88 3.731 5.824 3.381l7.37-.296-2.705-2.75c-3.341-3.397-6.803-3.508-10.489-.335m-226.556 2.625c-9.22 7.636.312 19.013 9.865 11.774a916.42 916.42 0 0 1 3.274-2.473c.374-.275-2.123-3.671-7.074-9.624l-2.315-2.783-3.75 3.106m-340.045 18.71c-3.409 8.815-3.521 9.562-1.5 10.005 1.975.434 9.305-12.984 8.393-15.361-1.385-3.608-4.303-1.34-6.893 5.356M229.26 455.553c-13.068 16.254-24.969 31.131-26.446 33.06-1.478 1.93-5.262 6.656-8.409 10.503-6.671 8.154-5.381 8.628-15.413-5.661-14.354-20.444-24.039-34.174-29.242-41.455l-5.361-7.5-16.743-.274c-16.58-.272-16.732-.255-15.651 1.765.6 1.121 6.539 9.795 13.196 19.274 6.658 9.479 14.595 20.835 17.638 25.235 3.043 4.4 7.392 10.475 9.666 13.5 2.273 3.025 7.571 10.493 11.773 16.595 4.202 6.103 8.998 12.548 10.656 14.324l3.015 3.227 10.612-.305 10.612-.306 10.031-12.518c5.516-6.884 11.523-14.317 13.348-16.517 1.824-2.2 9.211-11.425 16.414-20.5 7.203-9.075 13.652-17.175 14.331-18 .679-.825 3.233-4.067 5.675-7.205 5.135-6.596 4.614-6.746 12.473 3.585 2.979 3.916 12.468 15.895 21.088 26.62 39.167 48.736 35.372 45.008 45.792 44.989 11.444-.02 13.17-.662 17.102-6.36 1.947-2.821 8.051-11.429 13.563-19.129 12.69-17.726 43.924-61.976 46.368-65.691l1.848-2.809h-33.802l-11.947 16.932c-6.571 9.313-16.3 23.151-21.619 30.75-5.32 7.6-10.111 13.818-10.647 13.818-.875 0-13.472-15.457-51.954-63.75L274.677 426h-21.656l-23.761 29.553M187 554.551c0 .329 10.193 15.077 22.652 32.774 29.25 41.547 32.989 46.89 44.175 63.132 5.131 7.449 9.631 13.529 10 13.512.37-.017 5.272-6.654 10.893-14.75 5.621-8.095 22.823-32.719 38.227-54.719l28.006-40-16.598-.275c-14.916-.247-16.735-.095-17.95 1.5-.744.976-6.397 8.975-12.562 17.775a6665.63 6665.63 0 0 1-20.648 29.283l-9.437 13.282-2.698-3.782c-1.484-2.081-7.584-10.758-13.557-19.283a7829.026 7829.026 0 0 0-19.005-27l-8.147-11.5-16.676-.274c-9.171-.151-16.675-.005-16.675.325" fill-rule="evenodd"/></svg>