<svg width="520" height="725" xmlns="http://www.w3.org/2000/svg" viewBox="0 0 520 725"><path fill="#d31e26" stroke="#d31e26" d="M228.628 86.66c-18.022 25.594-32.583 46.718-32.357 46.944.225.226 29.959.295 66.075.153l65.664-.257-5.339-7.536c-9.012-12.719-29.212-41.385-44.886-63.695-8.203-11.677-15.246-21.436-15.652-21.687-.405-.25-15.482 20.485-33.505 46.078m-69.68 95.506A81798.834 81798.834 0 0 1 125.959 229l-6.706 9.5 65.533.257c36.043.142 65.705.085 65.915-.125.211-.211-4.655-7.526-10.812-16.257-22.298-31.618-43.647-62.023-48.362-68.875-2.649-3.85-5.149-7.375-5.556-7.834-.406-.459-12.567 15.966-27.023 36.5m154.543-3.6a32288.455 32288.455 0 0 1-32.07 46.75l-9.078 13.184 65.488.257c36.018.142 65.668.077 65.889-.144.409-.409-5.033-8.106-35.073-49.613a78928.993 78928.993 0 0 1-24.415-33.75c-4.074-5.637-7.484-10.25-7.578-10.25-.094 0-10.517 15.105-23.163 33.566m-205.526 78.266c-2.495 3.667-17.063 24.44-32.375 46.162-15.312 21.722-28.056 40.056-28.319 40.743-.38.989 13.048 1.302 64.506 1.506l64.986.257-32.194 40.229c-17.707 22.126-32.414 40.45-32.683 40.719-.269.269-10.317-13.447-22.328-30.48L67.72 365H32.77l1.783 2.75c.981 1.512 9.715 14 19.408 27.75 9.694 13.75 23.681 33.636 31.082 44.192 7.401 10.555 14.18 19.383 15.063 19.618.883.235 6.148.512 11.701.615l10.095.187 37.2-46.498c36.653-45.816 37.225-46.467 38.873-44.307.919 1.206 4.146 5.793 7.169 10.193 3.024 4.4 12.019 17.225 19.99 28.5C252.119 446.17 261 458.911 261 459.456c0 .299-2.363.549-5.25.555l-5.25.011-6.765 8.482-6.764 8.481-64.51.258-64.51.257 7.328 10.5c4.03 5.775 16.055 22.875 26.722 38a38486.658 38486.658 0 0 1 25.893 36.75l6.498 9.25h23.506l31.558-39.5c17.357-21.725 31.906-39.5 32.331-39.5.425 0 14.935 17.752 32.243 39.448l31.47 39.449 12 .012 12 .012 32.448-46.304c17.846-25.467 32.621-46.825 32.833-47.461.289-.867-15.709-1.159-63.948-1.167l-64.333-.011-6.73-8.439-6.73-8.438-5.415-.301-5.414-.3 11.968-17c6.582-9.35 21.21-30.155 32.506-46.234l20.539-29.235 36.984 46.235 36.984 46.234 7.654.311c4.21.171 9.562.032 11.895-.31 4.809-.704.062 5.475 45.709-59.501 12.558-17.875 23.283-33.073 23.833-33.774.805-1.023-2.506-1.22-16.852-1l-17.852.274-21.155 30c-11.635 16.5-21.669 30-22.298 30-1.159 0-65.391-79.568-64.75-80.21.192-.191 29.129-.328 64.305-.305 35.177.024 64.232-.232 64.568-.567.335-.336-3.111-5.854-7.658-12.264A3880.496 3880.496 0 0 1 456.481 315c-2.113-3.025-10.198-14.5-17.967-25.5-7.768-11-17.193-24.42-20.944-29.822l-6.819-9.821-3.126 4.412c-1.719 2.426-16.4 23.365-32.625 46.531s-29.725 42.108-30 42.094c-.275-.014-16.475-19.995-36-44.402l-35.5-44.376-11.562-.058-11.562-.058-15.461 19.25c-47.544 59.196-56.275 69.784-56.941 69.053-.403-.441-14.78-20.828-31.949-45.303-17.168-24.475-31.735-45.026-32.37-45.668-.877-.887-2.246.437-5.69 5.5m122.019 68.404c-17.316 21.485-31.597 39.334-31.734 39.664-.138.33 28.325.6 63.25.6s63.5-.282 63.5-.626c0-.773-61.649-77.539-62.882-78.301-.357-.221-14.817 17.177-32.134 38.663M184 587.598c0 .649 3.959 6.379 25.493 36.902 7.761 11 22.577 32.038 32.926 46.75 10.349 14.712 19.1 26.74 19.448 26.727.348-.012 7.657-10.025 16.242-22.25s25.27-35.952 37.077-52.727c11.808-16.775 22.273-31.737 23.256-33.25l1.788-2.75h-34.918l-21.406 30.475c-11.773 16.762-21.677 30.487-22.009 30.5-.592.025-7.529-9.641-31.397-43.752l-12-17.15-17.25-.036c-9.488-.021-17.25.232-17.25.561" fill-rule="evenodd"/><path fill="#fbfbfb" stroke="#fbfbfb" d="M245.224 261.354c-10.488 12.761-115.714 143.865-126.685 157.839-6.428 8.189-7.819 9.022-9.577 5.736-.61-1.14-4.981-7.552-9.714-14.25A12307.105 12307.105 0 0 1 79.772 383c-5.979-8.525-11.283-15.393-11.786-15.262-.503.131-.657-.432-.343-1.25.492-1.282-1.802-1.488-16.536-1.488-9.409 0-17.107.261-17.107.58 0 1.707 22.426 32.275 23.287 31.743.562-.348.733-.165.38.406-.629 1.018 1.523 4.463 12.093 19.358 2.893 4.077 10.736 15.175 17.429 24.663L99.358 459l9.321.179c5.127.098 10.153.21 11.17.25 1.265.048 9.698-9.734 26.664-30.929 13.647-17.05 26.463-33.025 28.479-35.5 2.016-2.475 7.199-9 11.518-14.5 4.319-5.5 8.558-10.736 9.421-11.636.863-.899 5.169-6.234 9.569-11.855 7.988-10.206 36.655-45.94 42.925-53.509 1.823-2.2 5.51-6.799 8.195-10.219l4.88-6.219 2 2.335c4.54 5.302 40.3 49.474 53.837 66.502 3.761 4.731 7.249 8.489 7.75 8.351.502-.137.8.178.663.702-.428 1.63 61.316 78.125 62.479 77.406.628-.388.792-.201.392.446-1.251 2.024 13.386 19.43 15.795 18.783 1.146-.308 6.134-.582 11.084-.61l9-.05 12-17.151A17899.316 17899.316 0 0 1 475.661 386c7.167-10.175 13.352-19.062 13.744-19.75.558-.979-2.933-1.247-16.096-1.238l-16.809.012-4 5.697a27202.179 27202.179 0 0 1-25.441 36.226c-6.75 9.595-12.498 18.033-12.773 18.75-.954 2.485-2.987 1.274-7.471-4.447a873.76 873.76 0 0 0-8.997-11.25c-2.47-3.025-16.336-20.35-30.814-38.5-14.478-18.15-29.289-36.595-32.914-40.989-3.624-4.394-7.134-8.669-7.799-9.5l-22.804-28.504c-11.878-14.846-23.155-28.731-25.062-30.855-1.907-2.124-3.931-4.728-4.498-5.788-.928-1.735-2.115-1.913-11.93-1.791l-10.9.135-5.873 7.146m-7.872 216.128c-7.442 9.36-14.27 17.918-15.173 19.018-.903 1.1-8.095 10.1-15.983 20-18.771 23.561-19.132 23.972-20.146 22.905-.472-.498-5.926-8.105-12.119-16.905-6.194-8.8-12.851-18.25-14.794-21-1.944-2.75-6.308-9.05-9.699-14l-6.165-9-17.182-.274-17.182-.274 5.587 7.774c3.073 4.276 6.806 9.613 8.296 11.861 1.489 2.247 13.658 19.656 27.042 38.687l24.334 34.601 10.298.312c5.663.172 11.025.168 11.915-.01.89-.178 6.343-6.253 12.117-13.5 5.775-7.247 11.033-13.81 11.686-14.583.653-.774 7.862-9.774 16.021-20 16.222-20.334 20.135-25.151 23.576-29.026l2.28-2.568 2.72 3.356c1.495 1.846 7.37 9.161 13.054 16.256 5.88 7.339 10.797 12.616 11.405 12.24.645-.399.776-.187.329.536-.437.707.831 3.126 3.094 5.905 4.542 5.577 3.108 3.784 18.966 23.707 7.005 8.8 13.217 16.331 13.804 16.735.587.404 6.13.741 12.319.75l11.252.015 4.493-6.103c2.471-3.357 4.198-6.62 3.838-7.25-.361-.631-.294-.82.147-.421.975.881 7.635-8.227 6.894-9.427-.289-.467-.079-.725.466-.574.545.151 2.737-2.2 4.871-5.225C395.009 506.149 414 478.922 414 478.51c0-.281-7.382-.51-16.404-.51h-16.404l-5.638 7.75c-5.362 7.371-8.074 11.187-28.941 40.722-4.888 6.919-9.225 12.788-9.638 13.044-.413.255-3.614-3.193-7.113-7.662-3.499-4.469-9.901-12.429-14.227-17.688-4.326-5.26-9.612-11.836-11.747-14.614-10.708-13.934-30.117-37.964-31.318-38.775-.588-.397-5.709-.63-11.379-.518l-10.308.205-13.531 17.018M186.551 590.75c.98 1.513 6.058 8.825 11.285 16.25 5.227 7.425 14.227 20.25 20 28.5 11.232 16.051 32.752 46.582 37.172 52.737 1.476 2.056 3.05 3.406 3.498 3 .448-.405.543-.259.211.325-.332.585.204 2.293 1.191 3.797l1.793 2.735 18.837-26.797A24138.811 24138.811 0 0 1 307.505 633c10.47-14.809 26.508-37.599 29.32-41.664l2.189-3.164-16.85-.123-16.849-.123-9.344 13.287a21653.949 21653.949 0 0 0-21.407 30.52c-6.635 9.478-12.33 17.24-12.656 17.25-.597.017-3.535-4.062-27.71-38.483-7.339-10.45-13.761-18.888-14.271-18.75-.51.138-.874-.087-.809-.5.491-3.108-.262-3.25-17.233-3.25H184.77l1.781 2.75" fill-rule="evenodd"/></svg>